<mxfile host="Electron" agent="Mozilla/5.0 (Windows NT 10.0; Win64; x64) AppleWebKit/537.36 (KHTML, like Gecko) draw.io/27.0.5 Chrome/134.0.6998.205 Electron/35.3.0 Safari/537.36" version="27.0.5">
  <diagram name="Page-1" id="KmuAsBxVYcSEGS94nPAK">
    <mxGraphModel dx="1426" dy="849" grid="1" gridSize="10" guides="1" tooltips="1" connect="1" arrows="1" fold="1" page="1" pageScale="1" pageWidth="1100" pageHeight="850" math="0" shadow="0">
      <root>
        <mxCell id="0" />
        <mxCell id="1" parent="0" />
        <mxCell id="_nvLQFHXTz9P7ObtZMR7-42" value="" style="rounded=1;whiteSpace=wrap;html=1;align=left;verticalAlign=top;fontFamily=Helvetica;fontSize=12;fontColor=default;fillColor=none;gradientColor=none;" vertex="1" parent="1">
          <mxGeometry x="76.25" y="70" width="983.75" height="690" as="geometry" />
        </mxCell>
        <mxCell id="iavCVBblB1wfD7l5K1Yd-84" value="&lt;div&gt;&lt;font style=&quot;font-size: 14px;&quot;&gt;&lt;b&gt;&lt;br&gt;&lt;/b&gt;&lt;/font&gt;&lt;/div&gt;&lt;font style=&quot;font-size: 14px;&quot;&gt;&lt;b&gt;&amp;nbsp;Data Transferred to Master List&lt;/b&gt;&lt;/font&gt;&lt;div&gt;&lt;br&gt;&lt;div&gt;&lt;br&gt;&lt;/div&gt;&lt;/div&gt;" style="rounded=1;whiteSpace=wrap;html=1;fillColor=#dae8fc;align=left;strokeColor=#6c8ebf;dashed=1;dashPattern=8 8;" parent="1" vertex="1">
          <mxGeometry x="220" y="400.15" width="230" height="39.85" as="geometry" />
        </mxCell>
        <mxCell id="iavCVBblB1wfD7l5K1Yd-83" value="" style="rounded=1;whiteSpace=wrap;html=1;fillColor=#dae8fc;strokeColor=#6c8ebf;dashed=1;dashPattern=8 8;" parent="1" vertex="1">
          <mxGeometry x="120" y="120" width="340" height="160" as="geometry" />
        </mxCell>
        <mxCell id="iavCVBblB1wfD7l5K1Yd-79" value="" style="rounded=1;whiteSpace=wrap;html=1;fillColor=#dae8fc;strokeColor=#6c8ebf;dashed=1;dashPattern=8 8;" parent="1" vertex="1">
          <mxGeometry x="684" y="360" width="200" height="340" as="geometry" />
        </mxCell>
        <mxCell id="8rQ6IWzLdjMxGU_nXrX0-2" value="" style="sketch=0;aspect=fixed;pointerEvents=1;shadow=0;dashed=0;html=1;strokeColor=none;labelPosition=center;verticalLabelPosition=bottom;verticalAlign=top;align=center;fillColor=#00188D;shape=mxgraph.azure.computer" parent="1" vertex="1">
          <mxGeometry x="106.77" y="592.5" width="50" height="45" as="geometry" />
        </mxCell>
        <mxCell id="8rQ6IWzLdjMxGU_nXrX0-5" value="" style="shape=image;verticalLabelPosition=bottom;labelBackgroundColor=default;verticalAlign=top;aspect=fixed;imageAspect=0;image=https://static.vecteezy.com/system/resources/previews/049/351/008/non_2x/microsoft-lists-icon-logo-symbol-free-png.png;clipPath=inset(21.33% 18% 20.33% 18.33%);" parent="1" vertex="1">
          <mxGeometry x="130.91" y="398" width="58.17" height="53.3" as="geometry" />
        </mxCell>
        <mxCell id="8rQ6IWzLdjMxGU_nXrX0-22" value="" style="endArrow=classic;html=1;rounded=1;entryX=0.002;entryY=0.591;entryDx=0;entryDy=0;strokeWidth=3;fillColor=#fff2cc;strokeColor=#d6b656;curved=0;entryPerimeter=0;" parent="1" source="8rQ6IWzLdjMxGU_nXrX0-5" target="_nvLQFHXTz9P7ObtZMR7-6" edge="1">
          <mxGeometry relative="1" as="geometry">
            <mxPoint x="670" y="440" as="sourcePoint" />
            <mxPoint x="370" y="180" as="targetPoint" />
            <Array as="points">
              <mxPoint x="160" y="205" />
            </Array>
          </mxGeometry>
        </mxCell>
        <mxCell id="8rQ6IWzLdjMxGU_nXrX0-23" value="" style="shape=message;html=1;outlineConnect=0;fillColor=#fad9d5;strokeColor=#ae4132;" parent="8rQ6IWzLdjMxGU_nXrX0-22" vertex="1">
          <mxGeometry width="40" height="20" relative="1" as="geometry">
            <mxPoint x="-20" y="-2" as="offset" />
          </mxGeometry>
        </mxCell>
        <mxCell id="_nvLQFHXTz9P7ObtZMR7-40" value="&lt;span&gt;Email sent with&amp;nbsp;&lt;/span&gt;&lt;div&gt;&lt;span&gt;Inquiry form&lt;/span&gt;&lt;/div&gt;" style="edgeLabel;html=1;align=center;verticalAlign=middle;resizable=0;points=[];fontFamily=Helvetica;fontSize=12;fontColor=#6170B9;fillColor=none;gradientColor=none;labelBackgroundColor=none;fontStyle=1" vertex="1" connectable="0" parent="8rQ6IWzLdjMxGU_nXrX0-22">
          <mxGeometry x="-0.0253" relative="1" as="geometry">
            <mxPoint x="10" y="32" as="offset" />
          </mxGeometry>
        </mxCell>
        <mxCell id="8rQ6IWzLdjMxGU_nXrX0-37" value="" style="shape=image;verticalLabelPosition=bottom;labelBackgroundColor=default;verticalAlign=top;aspect=fixed;imageAspect=0;image=https://static.vecteezy.com/system/resources/previews/049/351/008/non_2x/microsoft-lists-icon-logo-symbol-free-png.png;clipPath=inset(19.67% 17% 20% 18.67%);" parent="1" vertex="1">
          <mxGeometry x="500.66999999999996" y="374" width="88.67" height="83.16" as="geometry" />
        </mxCell>
        <mxCell id="8rQ6IWzLdjMxGU_nXrX0-44" value="" style="shape=image;verticalLabelPosition=bottom;labelBackgroundColor=default;verticalAlign=top;aspect=fixed;imageAspect=0;image=https://logos-world.net/wp-content/uploads/2020/03/Microsoft-Word-Logo.png;" parent="1" vertex="1">
          <mxGeometry x="753.99" y="410.28" width="60" height="33.75" as="geometry" />
        </mxCell>
        <mxCell id="8rQ6IWzLdjMxGU_nXrX0-45" value="Populate word Template with Mapped Fields" style="text;whiteSpace=wrap;html=1;align=center;fontColor=#6170B9;fontStyle=1" parent="1" vertex="1">
          <mxGeometry x="713.99" y="440.03" width="140" height="40" as="geometry" />
        </mxCell>
        <mxCell id="F561bkT5uyB8FZ7xWZqq-1" value="&lt;span style=&quot;color: rgb(0, 0, 0); font-family: Helvetica; font-style: normal; font-variant-ligatures: normal; font-variant-caps: normal; letter-spacing: normal; orphans: 2; text-align: center; text-indent: 0px; text-transform: none; widows: 2; word-spacing: 0px; -webkit-text-stroke-width: 0px; white-space: normal; background-color: rgb(236, 236, 236); text-decoration-thickness: initial; text-decoration-style: initial; text-decoration-color: initial; float: none; display: inline !important;&quot;&gt;MS List: Student Inquiry Data&lt;/span&gt;" style="text;whiteSpace=wrap;html=1;fontSize=13;fontStyle=1" parent="1" vertex="1">
          <mxGeometry x="94.47" y="451.3" width="185.53" height="40" as="geometry" />
        </mxCell>
        <mxCell id="F561bkT5uyB8FZ7xWZqq-5" value="&lt;span style=&quot;color: rgb(0, 0, 0); font-family: Helvetica; font-style: normal; font-variant-ligatures: normal; font-variant-caps: normal; letter-spacing: normal; orphans: 2; text-align: center; text-indent: 0px; text-transform: none; widows: 2; word-spacing: 0px; -webkit-text-stroke-width: 0px; white-space: normal; background-color: rgb(236, 236, 236); text-decoration-thickness: initial; text-decoration-style: initial; text-decoration-color: initial; float: none; display: inline !important;&quot;&gt;Master Data List&lt;/span&gt;" style="text;whiteSpace=wrap;html=1;fontSize=13;fontStyle=1" parent="1" vertex="1">
          <mxGeometry x="492.51" y="451.3" width="104.99" height="28.7" as="geometry" />
        </mxCell>
        <mxCell id="F561bkT5uyB8FZ7xWZqq-8" value="" style="endArrow=classic;html=1;rounded=0;exitX=0.5;exitY=0;exitDx=0;exitDy=0;dashed=1;strokeWidth=2;fillColor=#d5e8d4;strokeColor=#82b366;" parent="1" source="_nvLQFHXTz9P7ObtZMR7-5" target="F561bkT5uyB8FZ7xWZqq-5" edge="1">
          <mxGeometry relative="1" as="geometry">
            <mxPoint x="545" y="550" as="sourcePoint" />
            <mxPoint x="800" y="440" as="targetPoint" />
            <Array as="points" />
          </mxGeometry>
        </mxCell>
        <mxCell id="F561bkT5uyB8FZ7xWZqq-9" value="&lt;font style=&quot;font-size: 13px; color: light-dark(rgb(11, 144, 184), rgb(237, 237, 237));&quot;&gt;Adds Course details&lt;/font&gt;" style="edgeLabel;resizable=0;html=1;;align=center;verticalAlign=middle;fontStyle=1" parent="F561bkT5uyB8FZ7xWZqq-8" connectable="0" vertex="1">
          <mxGeometry relative="1" as="geometry" />
        </mxCell>
        <mxCell id="F561bkT5uyB8FZ7xWZqq-19" value="" style="endArrow=open;endSize=12;html=1;rounded=1;exitX=1.006;exitY=0.625;exitDx=0;exitDy=0;fillColor=#fff2cc;strokeColor=#d6b656;strokeWidth=3;curved=0;exitPerimeter=0;entryX=0;entryY=0.5;entryDx=0;entryDy=0;" parent="1" source="8rQ6IWzLdjMxGU_nXrX0-37" target="8rQ6IWzLdjMxGU_nXrX0-44" edge="1">
          <mxGeometry x="-0.2722" y="18" width="160" relative="1" as="geometry">
            <mxPoint x="862.5" y="466" as="sourcePoint" />
            <mxPoint x="760" y="376" as="targetPoint" />
            <Array as="points" />
            <mxPoint as="offset" />
          </mxGeometry>
        </mxCell>
        <mxCell id="iavCVBblB1wfD7l5K1Yd-17" value="&lt;font style=&quot;color: light-dark(rgb(11, 144, 177), rgb(237, 237, 237));&quot;&gt;Data verirication and Update&lt;/font&gt;" style="endArrow=open;endSize=12;dashed=1;html=1;rounded=1;entryX=0.75;entryY=0;entryDx=0;entryDy=0;fontSize=13;fontStyle=1;fontColor=light-dark(#bb9407, #ededed);fillColor=#d5e8d4;strokeColor=#82b366;strokeWidth=2;curved=0;exitX=0.432;exitY=1;exitDx=0;exitDy=0;exitPerimeter=0;" parent="1" source="_nvLQFHXTz9P7ObtZMR7-23" target="8rQ6IWzLdjMxGU_nXrX0-5" edge="1">
          <mxGeometry x="-0.2367" width="160" relative="1" as="geometry">
            <mxPoint x="409.94000000000005" y="267.99" as="sourcePoint" />
            <mxPoint x="340" y="245.25" as="targetPoint" />
            <Array as="points">
              <mxPoint x="370" y="310" />
              <mxPoint x="330" y="320" />
              <mxPoint x="220" y="320" />
            </Array>
            <mxPoint as="offset" />
          </mxGeometry>
        </mxCell>
        <mxCell id="iavCVBblB1wfD7l5K1Yd-23" value="" style="edgeStyle=elbowEdgeStyle;elbow=horizontal;endArrow=classic;html=1;curved=0;rounded=1;endSize=8;startSize=8;entryX=0.047;entryY=0.613;entryDx=0;entryDy=0;entryPerimeter=0;exitX=1;exitY=0.5;exitDx=0;exitDy=0;strokeWidth=3;fillColor=#fff2cc;strokeColor=#d6b656;" parent="1" source="8rQ6IWzLdjMxGU_nXrX0-5" target="8rQ6IWzLdjMxGU_nXrX0-37" edge="1">
          <mxGeometry width="50" height="50" relative="1" as="geometry">
            <mxPoint x="181.57999999999998" y="393.15999999999997" as="sourcePoint" />
            <mxPoint x="460" y="360" as="targetPoint" />
          </mxGeometry>
        </mxCell>
        <mxCell id="iavCVBblB1wfD7l5K1Yd-52" value="" style="endArrow=open;endSize=12;html=1;rounded=1;fillColor=#fff2cc;strokeColor=#d6b656;strokeWidth=3;curved=0;entryX=0.5;entryY=0;entryDx=0;entryDy=0;exitX=0.5;exitY=1;exitDx=0;exitDy=0;" parent="1" target="_nvLQFHXTz9P7ObtZMR7-7" edge="1">
          <mxGeometry x="-0.2722" y="18" width="160" relative="1" as="geometry">
            <mxPoint x="783.9899999999998" y="474.03" as="sourcePoint" />
            <mxPoint x="785.0050000000001" y="602.03" as="targetPoint" />
            <Array as="points" />
            <mxPoint as="offset" />
          </mxGeometry>
        </mxCell>
        <mxCell id="iavCVBblB1wfD7l5K1Yd-56" value="" style="shape=message;html=1;outlineConnect=0;fillColor=#fad9d5;strokeColor=#ae4132;" parent="1" vertex="1">
          <mxGeometry x="763.9899182505612" y="500.0000000446924" width="40" height="20" as="geometry" />
        </mxCell>
        <mxCell id="iavCVBblB1wfD7l5K1Yd-70" value="" style="endArrow=classic;html=1;rounded=0;dashed=1;strokeWidth=2;fillColor=#d5e8d4;strokeColor=#82b366;" parent="1" edge="1">
          <mxGeometry relative="1" as="geometry">
            <mxPoint x="818.9899999999998" y="636.0109216368653" as="sourcePoint" />
            <mxPoint x="948" y="636" as="targetPoint" />
            <Array as="points">
              <mxPoint x="910" y="636" />
            </Array>
          </mxGeometry>
        </mxCell>
        <mxCell id="iavCVBblB1wfD7l5K1Yd-75" value="" style="shape=image;verticalLabelPosition=bottom;labelBackgroundColor=default;verticalAlign=top;aspect=fixed;imageAspect=0;image=data:image/png,iVBORw0KGgoAAAANSUhEUgAAAcsAAAF+CAIAAABiZ6bWAAAgAElEQVR4Aey9h58T1fr4//1rfh9Jps8kNIHN1GSXXhRE7FgARYqK2K7dK165esVrb1e99n5tgAIqKKKiYkNFBAHpdUsyc878Xs+ZJC67C5vszmRTnjCvMMlOzpx5zjnveeY5z3me/+fjCyWAEkAJoASikcD/i6ZYLBUlgBJACaAEfCQsdgKUAEoAJRCVBJCwUUm2DsqlNH8RwY7nUZ/6PqUNu1GfuNQFGfg+8XxCfFqUUR20N15CBBJAwkYg1HopktKc73vU91wvRymh7OX7pGE36ns5kiM+IZQSeLlMFPXS3ngdEUgACRuBUOunSJf6LgMKU1599oH6pIG3nEeDy2fKK81m2+untfFKIpAAEjYCodZLkfAsTP32DvLmWx/MnXftFVfddNnl18xbcH3DbnPnXTdvwd/mL7xx7uXX3Xrb0m83bSb10tZ4HRFJAAkbkWDroVji+4ePtN237AlZNbRkJsY3iarFy3rDbqJqxoSUIJucpPNSk6zpn67/rh5aGq8hMgkgYSMTbe0X7FGyY9eeyVPOkRQzzuuC6nCyySkNvKlmTNY5xeRVi5N1JWldOHtR7bczXkGEEkDCRijc2i+abPtjl5WeLCgmJ1tyMhOXdV4xG3ZjbDU52eBVi1dMUbWmTL249lsZryBCCSBhIxRu7RdN/ti5x05PEVWbUx1esXjFYO9Wo76bwYULqiUolqRYp0+bXfutjFcQoQSQsBEKt/aLRsJ2uZcgYWu/U1f2CpCwlZV3jZ0NCYuErbEuW23VRcJWW4tUVX2QsEjYquqQtVcZJGzttVkFa4yERcJWsLvV46mQsPXYqqFdExIWCRtaZ2rMgpCwjdnuJV41EhYJW2JXwcN6lgAStme54LdMAkhYJCwOhX5JAAnbL/HV+4+RsEjYeu/jEV8fEjZiAdd28UhYJGxt9+ABrz0SdsCboJorgIRFwlZz/6yBuiFha6CRBq6KSFgk7MD1vro4MxK2LpoxqotAwiJho+pbDVIuErZBGrpvl4mERcL2refgr/ISQMJiVziJBJCwSNiTdA/8U+8SQML2LqMGPgIJi4Rt4O4fxqUjYcOQYt2WgYRFwtZt567MhSFhKyPnGj0LEhYJW6Ndt1qqjYStlpaoynogYZGwVdkxa6dSSNjaaasBqCkSFgk7AN2unk6JhK2n1gz9WpCwSNjQO1VjFYiEbaz2LvNqkbBI2DK7DB5+vASQsMfLAz8dJwEkLBL2uA6BH8qVABK2XIk11PFIWCRsQ3X48C8WCRu+TOuoRCQsEraOuvNAXAoSdiCkXjPnDJOwgmrziskrhqBavGxLWppXDFE1BcWIi02SZgmKwUm6oBghbqKic1KTlHB41eZkhktZ55Uu3Cz9oxn8VlAtQbEkxTp92uyaaUys6EBIAAk7EFKvmXOGSdiYCGwVNUPUbEnJcIKeGJKeesZF86+4cf7CG+ctuGHu/OvnLfjb5QtuuHx+eNuC60aPn8GrRlw2pWRzTNQ5EQlbM/2vDiqKhK2DRozuEsIkLCdZoL2qKUG1JTXNS8bNt92b8wj1fY/61PcJ26gP+2FtxPc93z99+iWiZp3Cw6lFUKVLV1q7HIk6bHSdrT5LRsLWZ7uGdFVhElZQHU7ROSUlajYvWZJm/u/d1ZQSSklAVLbvhUdXoDT1aXvOu+f+xzlF14aMHiQ0MUtFF26W/hEJG1LPaphikLAN09R9udAwCcvJBq8agmpKWlpQbE4c+f4HnxBCKHv1pXYl/cbzKPnX/Y+LqskrNieDIRh12JIkhweFIQEkbBhSrNsywiQsr5hSwgoAJ2tpUW16d/lqj70CyLquSykNW5ZezvWW3f+koJicbMnJTExsQsKGLWQs74QSQMKeUDT4B98Pl7BWoMOKmsNLpqQ1vbdyTVHInucFnA33Hcyw1P/XfU8Kii1qGWCrmkLCFsWOO1FLAAkbtYRruvywCauYInhlOZKaFpXU+ys/jl46oBXfu+xxUTUKVoK8LbVPnEU7bPQtVl9nQMLWV3uGfDVI2C6TYEjYkHtY3ReHhK37Ju7PBSJhkbD96T/4Wx8Ji53gJBJAwiJhT9I98E+9SwAJ27uMGvgIJCwStoG7fxiXjoQNQ4p1WwYSFglbt527MheGhK2MnGv0LEhYJGyNdt1qqTYStlpaoirrgYRFwlZlx6ydSiFha6etBqCmSFgk7AB0u3o6JRK2nloz9GtBwiJhQ+9UjVUgErax2rvMq0XCImHL7DJ4+PESQMIeLw/8dJwEkLBI2OM6BH4oVwJI2HIl1lDHI2GRsA3V4cO/WCRs+DKtqhKpT4lP2Ab1YvFYSw9yTbdt3205p4tqOi5bQsKOK30PTCWoTpCni1csSbUH8aeu+HBdaMkMTpAUgXpZ3/fvW/aUINui2szq0PcsMiy8rAURxCHhGOxMmnpxXy6BUJ9QiA/OXp3+d6uq82Bl+i8BJGz/ZVjVJVCWOQAytXgkzwJSaoU9L7dj1x7LmSInMqcIOq9ZvNJ3PLHQVgakOZBMUbW1wfY77/8VvbDUOpV9nEsouW/ZE6JqxSWb1aHvl8DYajG8moJqSQlnyrRZpdQIcuR0i32bT+7A7oHsj0EmnVLKw2NqRgJI2Jppqj5WNFCVqE/yhKU+CdQnyLDS2+b9vn2n6UziZENQHVGzuX4larXjkiElIE0WJxlKwnx3xce9VaDXGvZ6QM6jdNkDT7D8tbaUSMelfhEWMjUogNfgffK0S0q8BAIPE8fVllCPUBcAyxI9wBMGJNTBV11JAAlbV83Z/WIoJR5xPeIyjcmj1PV9t5B1MMg9eMJ3z3e37djttJwGqV8SGU4y4mK/rASQazZhDxJ0WUvzctP7Kz8psSZ9PgzuLL5/3wNPSglLUO24pDNEdrGulv7RjEuGoNoC5AaH1LlTzphVdt2oB7D1gbdMdSWEep4XRX6H7t0Bv6m0BJCwlZZ4xc9XzOIK1liXEDayj9emTqCGEd/ftmPvSGO8oFqcDMZTqT+JWmVrkNAkJWxRcwTZigkjln+47jil7gTV6M8xHss1e8/9T8akJpZL3Bb7nmg2D2ImDdBk5WT69DMvLbV6x2uweYsNS9YYdAlCiOuiHbbi4yPiEyJhIxbwQBdPCMnmvP0HDn/3wy/rPt344Zr1yz9Y9/7KT0vZVn746TPPvdFkThJUKyYasubwkEmwdI3vuCMFJVAhdVF1BNlUB9tLlj5YSjX6c8yKD9e9u3LtvKtuERO2oIGZgu+HlYBXQBEOCBvs2M1nlli95R98uvyDT99n2/IPP1u5av1nn337y8/bDh9qBbMNoDb0HGUD3fnw/D7Gh62vTkD8HFxQfqiCee/AodbX3/rwqsW3j5lwVmJoWlBSPNhSS9okVZdUQ2DJWQXVljSHk/qeqDUuGZChi83CC6o1SBgpakaJNenzYYKSElWdk3UOEtjYMTElgSfAcegv5yNYYJkRFlDLyQab+ypJmMElwESfnOJA/kZySHrSpPNuvOnud99bfeRoO0xF+sfZYQnN+xzUVydtrKtBHbau2pv4HYRQMD361CXZvfsPXXvDXaemJkkJR0w4cUkPnpQDRpRDlj4jCX94MgnIiTQvGbo1+e9L7tu3/zBl90bXdT0PmtAjXuDVVVd9tMEuBglbVw1OfDYyPUqI15HNnX3upXJ+TsYeJDSJmi0lHARrlUjgFKFJ0GxRswXFTAx1Fl93a4cL81+BawHaZOtjZCJh66Md81cBfvcwX0RbW9tu+NvfOV7nJUdOgouSoFrK4ExcMgK3+SqhTCNXQ0o6ccWMgfuXJahmXBq57KFnsq6bY4nNc7nOBp+66qUNdTFI2LpqbkZYQghZvmLN8BFjeckRlAyvmIywgYMReBo1Mteq6NpV6xQxJWgwdRZsiWEtX339rUto1ssxd66iSb2uemlDXQwStt6amxD36JFji6++XZIdUcvEwAMU5meUwRlONgMvziqiTN8nnU5m36yJC+Rkg82VOYUHC1NKODfceEfWhbUJbBUYgakvdDGo5TGKhK3l1utW92BZwU8//Tpt6ixJbo6JKSGRn/4+hR8VzOMX3mueUDWB0ZNUEtzXhBQn6qJiCoopaw4nG9PPunjHrn2Mrx7xXMRrtz5eY18gYWuswXqpLoWZrlUffea0TBfVzCl8SoRgArjVjATGjD/ny43fe8wdpJe2xj/XggSQsLXQSqXXkS1sX/HhJ7p9Gic5MdHgmTcrQrZWJOA0T1v32VcYoKD0Ll/lRyJhq7yByq0euKy/t3xNkzEpLlqCYnNI2JpS4a301DUfrw/CbuEqr3J7fxUej4StwkbpT5WAsO++v7rJnMxJNoRr6Vc0rJp5uK4VFbXXejrN01Z/9FnngFv96Q342wGXABJ2wJsg3AoQSv13l69OmVPiki1q6TgStqZ0WDszbdUaICyuOAh3YAxUaUjYgZJ8ROcFwr63Yg0QVmQBp9FKUGOEBSuB70NAw4i6CBZbSQkgYSsp7QqcC8I0vbdiDbMSOLxi82rfo2H1+kiLB4QuATsz7aNPNrBIW2DwQVNsBcZMpKdAwkYq3soXznTY5WtG6ZMEJc3JFvoShA7BSAu0M1MLhMWQhpUfPuGfEQkbvkwHtEQkbG3PziFhB3T4hH9yJGz4Mh3QEpGwSNgB7YB48uMlgIQ9Xh41/wkJi4St+U5cTxeAhK2n1mTpSimsOEA7bKTW0ugKRytBnQ1IJGydNSjqsKjD1lmXru3LQcLWdvt1qz0SFgnbrVPgFwMnASTswMk+kjMjYZGwkXQsLLRvEkDC9k1uVfsrJCwStmo7ZyNWDAlbZ62OhEXC1lmXru3LQcLWdvt1qz0SFgnbrVPgFwMnASTswMk+kjMjYZGwkXQsLLRvEugHYU+WoA1ynuLWZwkQ6kIiPJKP/XEySXdtdiRswxI2iGMQdAg2+tgXfe6EDfbDrgOJEupTn7KxV84A7FpO/whLfeIRFv7nrzqw8OzEpx7s0KCOSNuyJEAIzfm+52az1PMgGHPXVjvJZyRsgxKWkBz1ofXZC1LUQt9BRedEEqCUUgIb8XzIbhfICohFiE9cAgCDfZCoF+D2JMPuxH/qC2Ep9XO5nO/7nucR6hHCFC4/5/su9T3iQ8N6oIPla13cwQYvRQIEBoqfy/1152I5nU/chsf9BQnboISlMO4AByxPLWQBx3F3ouEWCCdIlO5R32VC84CzhKEr51Pa0dFGiOu6MA6Dco4bZyV/6CNhg/IB8cT1GGF93yOEtGdzB4+0fbf595dee+/2JfcvvuHOKxffdsXiW69cfOsVV9+ycNHNVyy+FbdeJHD1rQuvvPmqRTd+t2kzewYoq32RsA1KWELo6jXrFi68ETrP4luuuvrmRYtwrHWVwMKrb8mPvqtvveqa26698a4lSx987X8rf/h128GjbR05lwJnvVyug7KblO+TbDbLAvWWzNTjD+wjYQkBTSuX6/A8l1LfdemevUdWrV5/x53LWsbNEFhcfUl1BNniJFOQLVGxRcXmZQu3XiUgKrYgm7LatGrVOvYUgIStbWiWFcSgz3EJKPGffvpVUTI4yRJUi5N0QTJ77WwNdwDDEWQIlUxONATZljSHkw1R1cdPOufuex7+ZN2X+w8cZQ+RbgBZ9l6eqa4zY/tCWLBNUBpgnng0l/XfeXvV5QtuGpmaEBdTciIjqA4nOZzs8LLNSTYv27zscLIdlyxOtnE7uQR42YExKY9ctfpTMMEGT32dG+1k+6jD1jaO+0xYQvynnnqZk4y4YnOqzSmWwAbdyTtbA/6VjS8nIFKwz8k2r5iiavFyynCmLLrmjg8+XAdGWA/MCa4LOiwMwz69+kJYiOBEPM/Lua67a+eeW276h6lPFBSTV0xBteKSwW7atqCYhc3gZUNgGy/DPm4nk4BixRWLk0Z+9PFnQFgwp5XevEjYBiWs79Mnn34uJo3gk05MM2JySlDNk3WzhhyGomoKSp5FRSKBoFQzLqV4RedkeHecKXff/e+DB494xKXEJa5X1nRzZxT3TthgdBPmOURI3k4B457S337/46LZV0pampMyZT0K4cEnkQDHMvcJsr5q1WfsCcUr5/6JhG1YwvpP/udFQTN51QFDE7tPn6Sb4Z9OIgFBzchJ5/KF1/+5Zz9TKGEyjM14dYZnSfu9E9Zn81lB6XASyvwHKP11y7ZLZl/Bi6MExZa05pNUF/9UlgSQsGWJq84O7rOVwPeRsKHdXCUtHRNT2mBr4RXX79i52wOvKRcmnwovz2POXCUwtnfCBtPZ4DzGThCwfM/eA5dedrUgpWQtIyg2U7BDu7w6GzPlXg4StlyJ1dPxSNjqaE1DVG1BthTNunrxrYePtgZwJcw8GnC1RJW2FMKCETBgNmiwntfWkbv2+tvUhM2LtqCA9sopenXIpR4oj4Rt5L6EhK2G1h8kjBQ1JyZYsprRBjt3//Pf4CjL9NairhkiYcHRNbDDQqHUf+udD5ND04JsCkpaVDOi5sSVVDXIpT7qgIStj3bs21UgYfsmt3B/FWcqo6hleNkRFXOUMe6jTzYUMcjcY0udfC5Fh/UIAcgyBZbs2LHr7PPmBm4DUsI5RWziVOv/hKZwr7CRS0PCNnLrI2GrofUFLR1XjBjzLhA1k1eMuQuuP3z4MJv1AhJ2Nhec3BhbAmFhbQOUSX3qEv+NN98bqU8UVYeTdUE1eNgsXrWrQS71UQckbH20Y9+uAgnbN7mF+ytOseOKyauGmDA5RRc028qc/sGqj2GdFYGIK2zJVUlqbCmEzRfkktyBw23X/u1ugbkThXtJWFpRAkjYoigacAcJW52NLmr2nUsfPtLWQSBUgMf01rAJm/Xcn3/b3jJ2Bg+LC+phTqk6rwIJW53tUplaIWErI+fyz2JOO2vW7zt2edQtzHGFTVjq+6s/Xi+q4MdQfv2QyKVKAAnbyL0LCVudrS+o1rCRo7/+bjMprP8J4hWc3Ajr+34pVgIIT+q6LvX9hx9/FpaaKUjYUnHZh+6ChO2D0OrmJ0jY6mxKDlynUv9774Oc5xaoGqoOC5Fgff+Gm5ZIqo2EjbQTIGEjFW+VF46ErdoGEhTj4cefcVn8gHDtsLDUHUIUEn/ewutE2RYUFvwJTbHRSAAJW7VjrAIVQ8JWQMh9OIWg2rxk3LHkXtA0wbkKogkUlNmT/d+7lSCgNbhr+f6cyxYLcr+muQbJTULC4jSDU3QpaYuaxckGx8oUVIvNoZlwMdHAq0aKNXlZVzR9xcqPmF8IROAt9UVd6tN3V6weoU+MCYaUcHiIFRShTQML77ME4lJKSsKKc1GzoaUUW1AdMzP9o7VfBlErIZdJyWHziO8/+sSzcsLmwYhnB0Toc93wh90kAEG5brjpLmiRoHlKG5NlEJb6/ux+E5ZT9SCuGiebANaA16oVB84GYQ/Z9+Bj26AbB6uQTVk1Ply1jgWagGeIUl+UeMRbuXqtmZmaGDZ+EM9C2CFhq1ICUsIeJI4SNFAp4pLO+r+dHjNj3fqN0NwsCUxZhH3wkadEBfQVQbWkhNNPZagbYhr8Pm0KqnHDjUBYUs2E5RVd0ooqqi2o6QAosGYBOGvCM7IKiGncTbU5NR0T9dfeWMliw5YaxYeFjwAcf7Ppx4mnnS8q6bjYrwcOHGMRS8DgZF1K2HHJEDVb1BxeMSdPnbl1+y5CIQEepBItR4e9+ba7OViGBI+GombzUoMzMdzLrxHCiqrJibqoOoLqBPZcNklnCzJ0CEGGnbhgFEJ3F2N4N9BOTNIHyQYn6Y8+/jyzgAeJMEvVYgkhBw4euWzetbJqDxJ0KZGOGBPh9uMGKo2TTSnhMBOZyXRYU9Ts+Quva89CgNDC/RLyoZbS9i7xz585l5dSguoAXhUTCRtqz68RwkoJW0qkT+GaFK0Z0nnJo0S5afDQTKZl+oSJ50+eMvP0qRefPu2SKafPbNht8tQLJk27YOKUcx96+D+uy5L2lmwlCOKkU0qf+s+LimoKqhMTA9tLA5Er1HEVodyC+Ya4pMvJjKjZymAnLqdWLP+IObSzhUPQ7qVqsbt2H2gZM03Kz2GYcVkXFYyLH2Lz1QhhB8kpXrVFLZ0cOnpU07hrrr11/edfHTx0NOhHhGUDZwaofM8Kvm+od0gc4/ue6+eypJCeuRQlJn9Me8cx33ePHm2fdsYlCiiwaCgIcZiFWZSopUWWho9XTE7WecW4aM61Xo4lDqI5182xFi2VsMtXrBnZNBYIq5osG4ohyPj4EmJ7VTFhmZNAcKkmp9mcYp7aNOHqa+7YtOlX9hQMtuNCpvJgp8HfPeqzzDGUEnBvLizSKw2z1PcoLOzzv920Zcy4s8AsAwMYZj8C0zZMIbKkavheSQkU5xXgpKwJ4jJkfGG2AltQ9TPOnrN91xG2YohSCm7thdFxwkeYoGeAJ6Xn3XvfI4khLKaoakHiKcXkxBD5gkVVH2E52YKkszJYl3gFMgyLgFfLykz9z9MvHzvaVkiaUBo58KgSJFAMEgyDk/jrPvly5sz5cgKyUooKOMaxWcTGnkgcoEnULvO3cdmIy4agQdptbYg9Z+7VX3/7Y0kG12I3oD5x4U7sefSPnbsvmn1VrZhHarOe1UdYNkPqFLxcAa+iZo/Qxz3x9Cut7ZD4hrkiFfsL7oQggYJSQ13Xo9TP5chvW3fdd//TTfr4GHeqIOucmBIVm5d1XsKt0hIQZF2QDZA8GElNUdWlRGpUasxTT7+ybfvuHNjcT6iu9tw5mPs7If7Haz9P2ZNqk1y1oh1XH2F5BaLHSgmH5fe2BdX6P27k4htubcsRDxKRs+SNZWWq7rmX4bddJcBmnwNzHuwS4rd1kI8/+WLJkmULr7hxzmWL51x2NW4VlsCsOVfNLoj9ssuvmb/whr8vue/jTz73iJ8F2ysMiJzb3rUtT/CZBWyGwM2eR9va6b3LHpcSaHCPFNbVR1hRM2PiKDmZZuYCm1P0keakX37/PT87ztzoyzMxnqC34ddFCRR1WDYJTSg4/RBK3UJES9CRGHrBnx23ikqAKagwh8kkH0xguW6erb5PPC/HGqfYmCfbYWH28yNp+479E087n9leI0VMgxdefYQVNAvWBWppXoY1fJzSdOc/H8rBoiNCCYtjm09ee7KehH8rUwJBQgqYJAny/sCgZZwN/H6KXA1Ii+8VkwClHmz5Sd1gLheS63meGzRKMLVVYnMzwroEso74z7/4Pznp8HKDEzDqy68+wvKKIWqwsoCTYZGJoDVt3bk/R7ys68KCa5eAEoWvkCWQt+XBciAmXXgH6uZPQ0GHYn9jE9XBdDW+V1oC0B6UeNAqhASEpV4x8mgJXYJZCVzf9461dowZP50tjCwulYyaNY1ZfvURVlDtmNjEKxBPVlDMcRNnFJ+ISuhC9XBIMUGv5wVpJ4qOV/nHUwa/466Uzf4VcHjcXzzquy54S8K4dIPRyQ4I/AeOOxY/1L0EILaTR3zy8OPPiarDyw7mdop4oq/6CMvJhqiZnJwSNUdUrfMvnNcjOep4LHS2MndOBRy4qVFKs9ls8SkVHhXzj/OBpZQ9VLJHSzDSEZdZVEGEYAHwwEeniGP2zBjcv+pYnHhpnSQAbs/e9p1/Os3TRLVZgrzTONMVqXJdfYSF5YBsISDYChRr/hU3NBQDigpsMCyAtsHGfCjyoASJuGwrPN0DNeHAwGzq+15wALi3FszW4OgGdux8SuEiZ4MzdhqFuFu/EqBue0d26b2PaENaeDkdh1gfkfIFC68+wrIFM+CwJai2IJsLrryx0eyunfVWeJaHFJUeQyU4AwdLhKnvHzp87Letf3z99Q+ffPLFypVr33//oxUrPlmzZv0XX2z6+Zet+/cfYn7lzHTH6MzCglDPc4tIDZTl4sf65QpeWV4CLmn/4qtNYyecK6gZTnIk1WLrbpGD0Umg+ggrQGynURBITbVF1Z634PqG0mHZJAZccfAIzyBICXAWZvj27j+8/IOPlvxj2QUXzj996oXNo8+wndNMa4phnKbrU1L6ZN2YbNmnZVqmTZx83llnz7nh5juee+n1n7dsy7IsFkydBeXVdd3AyFvUZBFCjSCB/YcOXX/jXaKaFrU0ROeSDLTDNpwdlodlmjqn6IJqSxoQttHssIFSmcvlAsi2tWd3/XnwzTdXnnvB5XJCl5N2TIQEBDFRj0s6W/xmc7IVbIUYdPDXmKhzckoZbAlK07iJZz3y+HO/bf2zvYMEbC2+B5psI/AFr/G9FR8NHT5a0prlpMMpTRBsG+2w0cZZrz4dlpMNKWHFpSYe0jRa8xfeUMeEDVyjjh/5BFwdwS/V3/XnvjUffXrzLf8wrMkxfoSsOZxoxkWLU9I8Q2qQ+YOTDbb+DSKzxCU9LpnB97xsCVrzINHkJEtSnf+LnTp4WPOsOYteefWtLVu25XIQdZtZaTu5ZTHduWDMPb5e+KkWJFC8X3Z6OskPoB07/5ww+VxRteOiySkpUTM40GHRWys6EwEMyarLccCyYoAdFsK+KOa8hfWsw1JKmS4J9lX2CiJyeH/u2f/aG+9fvuBvI1ITwn2OExQrMaT57PMuf+jhZzb/8juL85CP1kyYwytUw3cpzKThq2YkEPC0SFXoV2CyJ66bZYHW/IOH2mddikFeIoVpj4UjYQduEAUqJLMJgN7K1ElIzbvm4/WXzFnYZIyPS6NEiCnXY8v1/UtRtTk5lRzqTJl63n+eefnQkQ4IZAcxX9iaTOIVvBcGTjR45jIlUPTkYzkOPNd1KfWyuTZC4FGlrcO7/c5lchKjqvd91PTVXIuELbMrh3w4hJJzOzo6fB8iWh071nHDzfcMObVZ0gxOTsnJ9CBJD9J097WBu3YpTjZPEcFPY5DQlBiWkTXjrHMv/2PHPgIhtToogUXusEChjk0zITdhVRQX2O6LJgJWp8Bjj3TkyNPPvTZkZEvot+qw+mRdl4OEHbgBQgnxckHIZKUhwB4AACAASURBVNraml3/+TfTzriAVyALE/Q51YnJlpDIhEtYQbOFRFpIpDmALCzr4BVTTeovvvL2wcPHwH/WcwGv+dVkAycdPHOZEujs5AeopaS9o62tw33hlXdGGuNFzRokNNU1y7oqE9VxsUjYMvtxiIdTn+TcLPX9g4ePPfPca5nRZ0iKydxooK9wis0pdly2Qiasag0SUxDFmXEcnI5Vh1f1ISOab77jnt+27YJ4o0GQnRAvFYuKWALF5Xmdg6lv+2P3Q489N0KfyKY0LHQbGAjmImEj7vonKZ6tYiVHWtvuuOueJnMCo2ozD5CFlDmFhHdG2A93JieDlSBI8QTB61ST06xBsq4Ny8y69Opft/zB0skE6Z5OUn38UxVJoDjHlcvlCCFbt2595tkXZ168QBuaZr4lsDxSkPSBQEx1qpYVqxUStlLDBIJVFQJWERaPjvj04JH2hVfeqA12RAVCNcbBNQ9SY7GFbcEcF6ROimBgBMUWzpUw46rByaY6JD1mwoyff9uRg8loFniUEgjflPfiqpSwIj5P8EAdWC3ZA3XBPy0Iv1pd7xCs5bgNgp6xZX6dQhoGhxxt7Vi5+tMrFt2UGXvG4FOZ4bUwTQqEjaQjVQxVNXoiJGzEg7lYvAfrXYPRAqFbCPX27j+0+LrbRLlJVCxRAdurmBwY58QYzKo5gHjJkBOW3TLlu81bXArx8djYZtUuXknt7wTP1MHsELuaLgyrqo/QAkE0ieCW4LF6u4R2ZN2jrR0HDx3btn3Xq6+9M3f+NSNTo+WEKSUhzR0s2YrWl75GkVfhaiNhK8UL4tOsmyvGDDxw6MiSu+9PDkmryXSM10UtDU/uzAu48gNDgPOCDsvLtpxwBEU/d+bcH37+NZuFCS8apEbraXVEpYQX2nmKemvRcNnW1r5j156q3f7YuXv7jj+3bt/5y5bfv/vx56+++W7tZ1+tXP3p8y/97+57Hr58wQ1jx5+lJgxeSgmKwUts7QkY1jO8OjB368r33uo+IxI2tMHbS0EsPQPLywJZlP1HHn92RNNYQTJ5yeJlOy6BC8FAheEQNVipzHRYgGxcMtQh9twF1/65+xCo3XVE2MDc0dk//8cfN18y56qq3S6es+jCWVeed+H8GedeOnnqBS3jpo8yJqhDLE4aJUAMZUuQbUnLsLzrkJI5JpucavOag4StDvIiYXsBY2h/JkAqWKiazdHVH29oMiZwksFJlpxsFlRb1ACvcQkCDlR+G8SPEhVLAs8tOLuo2XFJHzpyzB13LmPuZPkwNKHJYkAL6uycTyldu3Y9TLJX68biZFucZObTvcBq6cCGDsEoeNnmZDsmmFLSZuHoTDFhcZoZU3ROwfUFAzCUug1eJGylRjvY9uDR1N+5c//Q4elTuFGilgkiCcjJdFxqktkg6dZCleglyaGj40KKkwxRs+IQ+9zkNTsmGoI8atXqT/18+II6WYTQxTn/47WfcWCfqdItLplBTB9eycf34SG7UpqlWYK50ILPSeAnYMbEVExMse8r0XMGpLvW1EmRsJUiLKwTJ/TQ4dZLL1skqYaoZiARWdKJQxQxE+IwwGz+wPjTxHiYbRPAUcyC/D0J5oSrpkXFOHVk+qfNW5idIB9FMjBlVkps4Z+nC2HXffo5pxhVuzEfAEuQzWCT2OMOYJeZlQTVjMspQQN1VdTAHYWX2awp6Lw401UN9xgkbPhDGErsjKFgn9BszvOefeGt4U0TWIBOm6/i5zhBNQUVtCdesRZdc8e+A0ch/0i3VzTCi7TUICgKXAlrJn/tug01pRNVAzWwDqVLAAkb2XAOcNSpePLLlt/PmHGJMjjNKxDjNeylBKW3eilHsoUPEjjMNhkT3vzfChaFKw+m4nxRp6urlV0kbCmtj8eEJQEkbPRkCByDsjny6JP/1YY6kKJcTUuJNIvTGFZDhlwOPDVD2Fl40hRUfdalV+3YtS8QVZAioaAD1pxxFgkbclfBJ4CTSgAJGwFhO2uvRXPB7j1Hxk48k1dSvGqdIupSwqlyHRaMwhAmxomLqaGnZt57/5NsNlsEa/G6IpBfpEUiYZGwlZQAEjbK4VxELSHkif+8KihNMJ2lWtLg9Cn8qJPe+irZCXo8F2ivp4gpXnOkRJqX9dmXXdva2gZ8YgnBgzikUQovorKRsD02N34ZkQSQsBEN5E7Fep539OjRzJgZgqJzqsmplphMsyRa1Tzba8YlI66YnOrEZUtQrOTQlo0bv87lYFlaMB0fZPrqdKE1sYuEjQglWGyPEkDCRoIFZp1k68kJcQn1X3vtXZaYvoBUFtuluq0E0F2ghix0SFDVRYtvybmMUEEMWXqcy0Qkggy/UCRsjyDALyOSABI2/DGcn2lnETtgnUF7hzfzosur2yZQUvdKDrF37TlAqOdT18t5cIG190LCltTWddBdq+MSkLCRMIIt3vJ96nnUp5t/3tpkjK+O9u7X6IrxI15+/R2XeNRzIf4iEnYgljjXQUdqpEtAwkZAWPb0DPgB0FL63ItvDD11dB30KlGz5lx+dS7IgBBE+ItAehEXiTpsv+6yddCNK3sJSNgIBnTgQgBD2fNynnf9jXdC/I7a13f+j0+Nm3zOzt37YD0UCcJC15wei4RFwlZSAkjYCAgbFOnCK/vn3n0zZ10pKM11QFhezVjNp3+wZi0kPchHqc4HK4hMiqEXjIStJF/wXEjY0IcwK5CFefGoTzZ+8/3E087n1TohrDrUefb5VyEdDuQh9xhoo5FgVKUiYZF6lZQAEjaqkez5PuSk+3DV57o9JZpcW5XsKHAuTjVEzbzzrn+zxF21iNfANp4PYcM+YOSXSveieniYK8Pih4SNkLCuR8jrb6xMDm2O10WazxjECG9afO0dx461QzI+WnMmAiQs8rTCEkDCRkNYyCHou55H/vP0q0KQAquM+16FO0Gpp4MFabI+57LFe/cegKkugoQtVXQNprihWIoSQMJGQ1gC+p3b0ZH79wNPQz6lQlLlmh5pHASNtS64cMEff+wGVzRmLIhGftGVinbY4uDHnQpIAAkbzVgmBDLat7a23333wyJor/WQ+DMmGbxizjj70i1btrOprppz1UIrQQWYgqfoLAEkbDSEZaGqybFjHbffsUxUbE7qLPRa3ecgVZQ5bfolmzf/BoStRcDCKhCc6arVHliDj4BI2GgIy0olx461M8Ja9UFYIZGOiakzzpy9+aetvh94a0UovmiKHgDCxiU9yLYtqBYLuw7GlhqERS3VOS4ZgmozOYO0exJ4kLI36otCwkY1jonvA2HvuutBUbF5uR6sBHHFjEv6mWdd+vPm30FsqMOWNnsJ0dY1UP8DvEKCYdlgH018j0gC7AYGAo9LelzKS7vbXa0Q6660duz281LojISNiLCAH7ejI7ts2VOCYtaHHXaQpIuafe7587f+thOtBOWMtzxbRc2WEo6oQXoLpmFBdljcopCAqNmBE3qQgre7Gtv9m3IatBS2BscgYaMhLEy1g7cWfeLJl+rGlyCuGKJmXzL7qt279yNhSx+QwWAGE4HyF2p51cYtOglAYnM2wyyoNidbXLfc5sFNrvRG7OuRSNioCEsIzVHff/mV95SkUx9rumLwbKtfcdVNR48egxUHsHi25l4DYIcNrIHMFGsxlcqKM68M1isCayC+hywBQbEE2eQlg5cMQTEl1RYDs2zBAo6ENSDGvmLOW3h9TY5jH1bNUko/+HD9SH1ikCmgr7fB0h9Joj0yDuYO444lyzzwhMUI3OVKmyXmkeA5QE6mJdXELToJCLIuqqYg65JqaoPTompyUorZZ0C3ZSptBYywFq+gDhuNEkYZYQklX3z1w+jxZ0MywQit6eUO9b4erzna0OYHH3mG3fOQsCcRI5u/zrc4aGeCakkJe9jIcRNOmzl34c23L3l46T8fwy06Cdy19JGl9z5+9z2P3X3PY0vvfezGW+6ZefGVdsv0waeOEfK2GsBf9KMSCRsRYSG4FqGU/L59x7kz5/F1Eb0wLqdHmRPfX7GapW7wWT7Emls4G7mVICZbnAKqkyBbguZwGqzoExR9ztxFb7793oFDhzxCcjkvmn6HpZ5QAoSSLVu3PvHkc9Onz5JkU9TsmAIPyhFvSNgTtki//pDPxkq8tmzuqmtuFZR60GHjotUy7syft2wDwvq+67r9ktHA/LgChDXjSkrUTE4w5UQzpxpK0rznvsd37NrvUR/y9Hoe5ODBV2UlQFmkItelP/60ddHi29Qh6XjkeEUrQWRtHBCWMD32wUefGTysHrLIcKJx7gVzc5A813ddApkOau8VOWE5ePZMSQkrLplx0RA16+9L7jt6tCO/YhfS9MKystqTXI3XmEAgDZdSyJb8+/Y/L5mzWKjEWnbUYSPpN3+NH+rTjd/8ODI1LuKHkagfdqB8WbMeeuRpRlYKcbVoYCiIRIKRFRo9YWWDV1LM8JrhJfO0My76+detuVyOUs91sz4hXs6FyGv4GgAJUN/PuV6bR8iq1Z+b9tToRyUSNpJmBsJ6LqEehKk+1po9fdoF0bdl5JBVE+aPP/0GQW0goTd4/NbgK1rCgpOQ6ggqLH4T1XRySGbpPx9qb+/wfVCh4EEVrPMsakUNyq72q0yZD4zneaSjg865dFH0oxIJG0mvYeyBdbOg6RHqP/LYf6Nvy8gJe8GFCzqyBPBKXCTsiRpUUNLg5Q42PjtlTnp/+SrPc5m6D0l6WQ5JyEAcSb/DQnuVQJDEk4BR9tn/vnSiRgzveyRsr03SlwOOU1Ko7+/bd3D4yLGCYoJHnpY5hU9JmsPJengNGTpewccoJumcYgmwANEQVfOjj9ZlszlYrkZIEJSA1h4potVhgwYNdFhZc8aOm7Fx47csp7vH3kFebk3G1e3LMKiq31BYIQP/vBz0XuL5n3/+dfQDEAkbTS/ojB7KPLduuuVeJWnHRINXHSmRYU+RFXDH6yN5WTgoQ0g4sMpAteSkNWXqRQcPHgqkVby64k40Uoyi1GgJK6iWCKtjIYBDXEiNm3DWd9/9xBJegOU16AkwyHGmK4q2PWmZ1Keu58ItjlA3CxOP323ajISt2TVdnZS7wO722+/7RowaI6imlMgM4nUe5kMq4I7XR8IKKqzsHCTpnGqJmiUnjWeeezNwkAgu56SduZr/GC1hYSGibAgaPAFwstkydsYn674glORyOc+DuLSBHdZFf9iK9xEwglOmvbouIVnXdVetXouErVXCduk/lNK2Nu/vdy0T1ZSk2aLqxOWqTi0Tl3QWqcTmVFPUjBnnzNqydWeghRX11uJOl4ut7o9RE5athVchGYScbB46Ysx/X3jT8wpghbENM13VLaK6rV1e7jDlCC1x3/2PIGHrhLAQr5rQDV9+O27iDE5OscA/VR2GOdBhecUWNXvoiOYnn34hmztufUHNarLREpYFHLHisi4l03EZAmtccfWte/YezOVywf0poBdLMlS3IKvyC3PdHPXJn3sOTD9rFhK2fghLwQ+S3LvsseTwZm3oaE4Gh57oG7jvVgJBA595bWjLWedetnvfwWA5UgDWwFxQ5QPpBNWLlrDQoJAxyOA1a5BkKoObhzeNXb5iNUwNspcHDnzgZXKC6uHXEUoA+i3z6sjm3CeffmnwsDHRD0Cc6YqwQbsUDYa4bX/sO/3MWRyEsk4LqsOz/BY9pbjoIxn72WOgJoWNUwxlcLOcdFas+ozFKTxOhw2urQYfeKMnLMQlMOKKKSWbY5LFyXqmZeL3329mtgLq+9TzckjYLmOjIh/BVuND2Gay7rMvx4yfISiZfo6XEn6OhK1I28ICBHCCBIfIVavWDh3uQGoZxRESNs9mRQLIxqWB8S5gSY0gpJuo2ZxiQrwS1R4kGcpg8+6l98MELKyor5Skoj1P9ITtttpdTqRN5/R33v94996Drgcz2iwDT6DJ4nskEmC+WSR4B+8BWH7oZrMd+/YdfOvtDyZOOU8ETaICuZ2QsNGO579Kh5Hl5SglHvEffvQ5JQlJ8UTViYmGAP5baQ7mvirQ5D1ox5wM81qFrBuOoDgQLloz5s6/7vCRdnB9DfrqX1dTu3sDQFgWW8sYMqL5iqtveua5Vzd8uem3rTv/2LUXt+gksOPPfTt2wbbzz/1/7Ny75fcdG7/54fkX35x/xfUjU2NFVZcSMOFcghLaw3gp51dI2EqxgvhesDKdEL+1ndyxZJmkGQIEA2brLFkQioEiLA9z30FPgqSNgzhweJh+9qwffv69YECE5b+VElWk5xkAwooJ5xSxSVBNMWEOGzHGzkwbM/7sCVPOwy06CUw87fwJk0HCk047f+Jp54+ZcJbTMm3IiLFSwpYTDkuPqGN82BrOcdAdErCKhHqEgDWT+v6fu/dfevliTmxKDm3hRDOvxioDM/fFKboyOA1WAsURFUtJOOmWqWs/+zLrFvxbwExQH5MzA0DYU4QmbfiYU8TUKQLY3/Mm+G7GhMJNrp9KE/4cJBBkMQgS2fIKS96jObyaEbRmXoF8lMrgjPCXYhGd0FCH7c7CaL4JFqQDXiEAc86j/jff/XTBhfPiwgg1meFl1i0q0eQ9daaEGZOalGSGORul0s2nvfrGe9kcTAx4LgR5cV3Xo/VhiB0AwkIqb7BupwU1LaqZQQIzB8kWNDpu0UiAPRragupwkhkTWEJvyZK0tKDAukpBtQYJoyqy5AcJGw1Pu5cKma3YXJeXgwiVhMLq9K83/TTzovmCorOYTDav9YS/Cig7CVPQLF42Zc1qGXPGK6+/mwN9m8ISGAhawsyw3S+pJr8ZAMLyihGXUjxkPLU4yZISGRjbqolbdBLgZJ3LL5vMy1lkidFExRQh5YQZ+KRH/9yAhK0gJuCRG9x1mGskBP+jxPd/3bp9/lU38EoTOPkrjpxoYUlJjZg0UtIgRybfLRFx/7qFKSgGz6a2JGaQgkBQkIbT5uSmyVPPW/PJ51lYXZh/QTSo+jDAFi4IHCPYiy0B8Neu29A/eZZyU8yn6oI1tcFkJuI1YgmwVLIgdtjUQP6s5yvBWkpw2ume4juCnoCELaCk8v9Tn+aI6xJ/196DS5Y+KIN3ATj5gz00YcflFES3ElNhtzr0NlGzT+FHcbIpJdJAdnBj0M8679KNmzZ71G/PQh7yOn0NiA5bCoXxmLqUABK2CkBCqH/ocPsjjz2Xbj6NU1LK4ExMMEStOQY5SGz2sBNa5wsgPkjQ1cGgLAdLHoaPaL7iqht/376HrSwALZvk96pAOiFXAQkbWl8K+95flxVDwoY8gMsoDh7Ag1UIxKOwKNVfs+bTWZcv0oaCeV5QmuMSBHKOhxpGFkyBCrjfstguhpy0Jk+7+MmnnmttzTLHLAixF5gyyriSWjoUCVuXIKvai0LCDiAdmE0WjLI+YSspYVXfzt0Hnnr65cmnz1QSDlt2YoqhTn8xe6vJy0ZMHGHYE5f84/6vv/2ZElBaPc913VxAWFgXUZ8vJGzVwqguK4aEHUCOFIydJL8oFeLaEeJns95vv++479+PJYaYoqKHPtMlwaRqavG1t234ctPhI61ZCF1KWao+yCWVc7PMpWwA5RLpqZGwdQmyqr0oJGykw7m0wgm4mpJcroO5R/nEddkyVb896y/95+NO85nqkOZgVavQd88tU1BMJZke0TRh/sIbv/9xO6QQ80F5Bocsxnrm4wA1caEC9fpCwlYtjOqyYkjYqifJnj0HXn7lnbnzrp045fxRxhQIGqDACgUW/9DkIHqTzcsOrzi8bHOwMYcEyYKPSoaTrKGnjhs9bsb5M+c98NBTP/z4q+uCQ27VX3dEFUTC1iXIqvaikLARDeTwimXLE/z2dvenn7e+9c4H//r3E1dfd/uZ51w6ZvyMYSNbJE0X5CZBSQlyEy+PEpUmQWnSBltm+rTTp188d+H1d9797+defPOLr747fLiVhRhiMdwK1St6hha+qPv/kbBVC6O6rBgStvqRkl+aQAmB/Hkdrrt3/4Hfft/5w09bNnz57cefbFi+4qNXX3/3hZfeeOXV/739zspVa9at3/D1pu9/+WXL9l179rR2ZMG8SrzAFsFWOVT/NUdXQyRsXYKsai8KCRvdWA6xZHA3gOf6IJVelyD5AYE9l+RceBUtAMynlQQvqAuF4M/gKtDQLyRs1cKoLiuGhK0R3ABGO7GRBcQmbBFuLxeQh3Lw28A/jJG6COJefl9vf0bC1iXIqvaikLC1QRDIjgAJEv5aUP9XytK8JwDLVhyAuDOOCz9h5lwWbyD4pkjY4k5tSKK/tUTCVi2M6rJiSNj+jlj4fZAZMPB/gs95bTP/XB+cIUgvCn/Jq6JlRVzNL04IDAXBe4lkLBK2sFqr6wWfoBzqQ96Yv9Rmlp0hWEtbrAzsMOqzA/86tuspqunzABA2iKTHKzbEKlRtHvKzDUwyi0Za5xpEe7EKyTsgtXOwH2QghcCGIcdU6vEOgYQNY/QTQiDNIaXBO6H+h6s+3vXn3oA5HnsFye8C9lZ/wlFY+kDBKxYWI2QD2y67O7ALcD3Skc29/MrrHS6s/QJGs0wztbASbAAIyyuQV5glQ7PZvlGR6Po9DvhG+VJKOKJmB0hlkT1MTjaCUEdSIs0Ca1mCgllklBrI5l1QEllMQhYa77MN346dePYofezGr3/qyEJ6y2BuyoOcgn/phQFtwyB8VGXk0QnFw1wbW4yQI8Q/cLDtoksWyOqoRx9/vi3b4UKG6mCRBKNtVNUJpdwBIKyYMOPyKE5uEhOWqEG8/bDX6TUKN0vXwQcJqZgIeWIEFpmTKbDw3BATU0FCvIJuG7XoUIft97B1Sd48SgjJeeS3bTtmzroyDpHbjUzLtNffeP/w4WM+6IT5HAFesOT/+Jmrftci5AJAK4VgBRCvIJgrY1aCXM71Nnyx6eJLrhRkQ5Atu2X6uys/zLqgpRctGCFXJeTiBoCwQZRSMZFXYCHNMCQVtnGLTgKC6giQ6BAW4ATvga0Gbm+wMDIIy11MTxcdZ5Gw/R7ALHkB+ET51G9rJzfcvERKWnHZEZS0qNq6OfG++x87dKSVWRHyem6/z1mJAmBmjd0MAkMtRP/y/Tf+9/60My+R4fkLVpHFZf2Msy/a/Mu2oj2k6hXzASCsoKY5yY5Lpqg6gmzxoq6wdCaCYuMWkQR42YIl5rLJy6akOoJic5LBKwbEUVJNAbZ8cuXS9eI+HYmE7TescoSADud6lPhPPfVKYmhGSFiDJJ1TnbhkypozZHj64jlXbtv6p5vzPY+xmJG232eOtgCmvULwAlC6qX/kcMedSx8YYYyLSynQC2Q7JjZxiiElrXkL/wZLITqyQK/AYhBt1fpT+gAQNiaZSrJF1BxRMWRNHzo8PWHSWRMmnYNbdBIYO+GsiVPOnTTlvImTzx034Sw7M2XoiIygNfFKSlDzZnGWzic67TUoGQnbn9HKfutBAi5CPPLjD1u0pBGXzZickoZYg4QmKZGJCcGcpm6kRq/6cJ2bCyboYR6pmrO3QiKxIB6Nm6XU/+Xn3y+aOZfXUjFFFxNpFgDBEBOGoBnw8CWNev7511nc7uD+0W+ZRlhA5QjLtCQYZpxiSklbShiXzrv2i40/ZiG3JG4VlQDx/YNHs6+89eGkaTN5RRc1sCHExajxCmqyoBo33HhXMBP81yRMbz38//V2QPB3Ngnk+7MvWyyU7BiRz1/Gsq4KtTDTBQ/PPtl94MD5l1whas2Cks7nYjo+DpaoWMNHjl1y1wM//7odkgwGwbfZ0zV7DAeiUT+/IivwSYjCshnMyxXfC6fwKCM+Ayu0HRzgE4+QvfuOvPra8rETzhEh5VHXHikotqimBdXUhllff/8zGBWYz1pgWMiXU12Gg8gJG5dhUMXElDpkLK84HCSk0sdPPm/FB5+4LtyBghqUNoLwqBAlAL2zrS37nydfzDRPFRSD69afu/fwfn+DhO13C3qu157tePyp54aOHBsTLFFL95glWFQdXtaVpDnjnNnP/PeVPfsOQ34DkqO+x7RF5lTLAggGgzDAU+Bp2+86HlcAjPDAKsw8eYGGjKYMuxC+gIJhwDvWllv54dorFt00eJjDySkJbvtdCcu8XgzIU6vol82/ds++gxCA8fhXkbbHfz1Qn6IlbMHpEmaxRa05Llm8Zpx+5sXffL8lP8HJ5APZ2fBVWQkEWgUhpKPDfW/5mjHjz+ZgvrGHLh3ql0jYEJqZfvfD5tOmXSgojqg183Bv7CF9IeRz1RxeMQRFHzw8fdGsq957f/WxY62+77su+NLCtFJRtwT4RjIIgzMUVNfCzBuLvF38EyHkm29/vO7Guw17EvgYaTavWhy4ynfrjipcLCTHVZyRTeOff/GNIDBC8SYRgnRDLiJawga3HF414rIusGw9KWvi8g/Xwl2LeepBFvdoWjZkOdVjcSx0kkdItrWt/ZHHnx966thQYdptdAC+kbD97kltHR1L731IToJZR0pkODnFMxNHl8aLySan2oMkMy4b2tAWKeEkhmTmzr32u++2FBJme76fy0HGgbznU6TaX1B4oM/6fg6MyRR64N59rUuWPDCiabyUcAK37ZhsxhWoeXc/eU7RY9JIZtXKCKp9zvmX/fb7H4FEi7zut4DDLSBawgqKJSgmp+pCAnKkc5J+7Q1/P3DoCJgHIHgPPKh6BOPvhNumZZRGSNb3Ozzq7t1/9PQzLu4ySCP4iIQto3V6PnTL7zvt9OmcZMnJ5v+PGw6OID09esQkndcsgbnjDRJ0mCBSnBiv85I+d/51az/7at+Bg23ZtiL4AkJFoe8UFcxgB9Rnn+w7eHDTD78sveeRkamJMV4XZHCECBwJY7IuJtMxuYeVSIJi8nKKrVbKxCVjyPDMCy+97bp5z99I7xA9N0bv30ZOWFG1hITJaxavOUNPbXnxpTchqhkEkHQJM7/A6o3qsk33LrU6OQIE77UdOwzLY6i/9J4HI0BqF00WCdvvuoo45QAAIABJREFUvnPr7fcKigH+oZrBqylwxIOMA10EDc8LcUnn4EhTStjgf67ZcTbRLKjG0BEtF8++6tnn3vryyy+PHDlSXIZbfJzvdzX/KqAIVs/zOjo6Nm/e/Pa7H91w491mekpcauJABXM41WaLDk0p4XCywZZy92C0ClwO45IRZ56GnJyaNn3O/v0HgxtDIxJWtUTV5DWTU624YreMPfPTT7+gzN0NHIophfVvMKmZvwn91Sq4F70EoFvCpD5M6XvEX/XR2p7GafeR259vkLB9aVdKPA/cmXz/55+3Dhs5Nj8FpBq8aoAjgdxDXA9BtdhyPQsMtXLe85lTwWjAnr4NXjbkhDNp6jlXLL7pmede+XHzb9lgxW3gzQ/1BE2IBWQpfXwGx8PDafFCIaYL8Xf+ue+tt1fecvvSGefMGjxsNA+rtg2opGIGG5uvY47ZzD37BGEywKOb/Qp+KyimpNkvvfw2QwpzLKg6lESuw4Jer5lCAm6f4yae/cMPmwO/JI9ZCpj+GozyYoPgToUkAHIPpnLZU8TX32xCwlZdXAKmlxEIKcXsan+7aUm4jRRXTSFhDTm1xbQnnXXOrPvvf3zDhm8PsQQwBSdKmvPymQphOoytYSj2UKhXp288cAxgMyzME68j6/26Zfsz/31lzmWLMmOmDW8aqwxOB4EwQryKzOgzjrXnbY4+pVWWVzFywopwlzL4hC0k0qPHTd+4cVPRsA6+WsFCjsIS6mLD4U7UEggia4DfDKUE5pb9DV98FWK3P0FRqMOW37CBKz4h/tatf45sajmBZPv4ZCFpLbDcVkuLmsNLhqAYkqoPH5k594LLlt778Dvvr/npl+37D7UdOnL0WFt7W0euPet25Lxszsu6sHXkvI6s29aRa23PHm1tP3Q0u33n/jWffPHwo89evuBaw54gyCNFxRBkXYQAek5MtDkFQg2FuMXFkW+9/QEFHwlY5RWFKbn8Riv+ImLCqpaoWHFZ55gdNmVO+t+7K9mCtza26hieR6rsllOUTJ3vgHOkT10vx3wUIQHI8y+8EmK3P0FRSNi+9CviwSOf/9gTL6iDezAInEDWJVGMk032PG6DX63mxCBxrMFJOifpkmYKii6q+pBTWyaffu455196+YLrrv/bnbf9/V93LX1w6T0P/+OfD92xZNnfbv7HwqtunHnx/KnTZ44yJ8pJk1dSkmbyrJBgFi44Ba85vJbmIMJASXUr8TA5mTl35tyjbe0spmHgEPaXjaIv8g7zN9ESFkQkmYJmcaoVk0xtSOaupQ8ea2/3CGRo97wcJFsDt4IwLwnLKkUCcMuH9e2wyp1Qv62DzL/iuhK7dD8OQ8KW0jidjmEaGTyc7913+JI5V4cfhk7VRQ1mw+KKAcuBwBcVDLscpO+GKEFswRi4AYEBVLE4xt9gn5dNCG8hG8xnCP4EYYaZWzWLN2xxEiNpEPYiPyFjxmS9Hx2oBzTHRNNIT/50w1cem1hgEvvLltxJlgOyGzlhWQwnk4OpvzQnm5OmXvD1tz8GhmlQoKgH01xI2Io3PqE05+ZybhbUI9//eN1G05kSbs/vqTQkbDktDaYccBcnhHqrP/o0M+ZMUW3uSaw9cKfEw+Jyild0gU2a8YrOqxaYCyCupc4Cr9kxweAVOy5bnGJ32eKdvo/LVly2YiJANgjnHgTKZGuNTEEzecVgngO6lOxpKUE/tNqYnFaG2v+6/2EPcuOCxLyC4bgcYUd0bOSE5aFpYNpQSY6OS5aYtObOv7a9w8/BuAYTYN4vNqLrw2JPIIFgGoMQ4rrutj/2zJ1/g5IMefD2NMaRsCdoj5N8DQ8a1Hvq6RdEzYhJIRsxA5cDTjZFZtETWQQ25ntgB14HUoI91Gt2XDVjshEH5yp4Ji1uccUMvhQStqjlU2UIqgW+YuAtYHKyDuVrLAi8bPGBYtsPpHbtWImWmDxq1mUL9uzdX/D7bBwd1mRxCVjOEjBwpznNSAy1Z8++oq0dVu75lMV9catHICfp6XX1J3ChYWGXjh1rv/a6WyXF4MIevF0HAowpJGw5vYgFyPF8n+zbe/jKK28TYE6jAkF8+64R99TkkZcGrJesMePO2bBhUxDzoBwZR31s9Dpst3uVNNgeJI6cdtYlb7+7esfOvYcPH3Wzbs7DrXIS6HCzh48d+2PX3pUffnb2efN50DDAIT36AYKELWdEwzor5q+8ZcsfY8aeFRd1rvtS/W4DLPpWjByaZV0CW/1lJ4dkXsqv76oqfW0ACAvWcwUWbgwbMWbG2Zfeetu9Dzz4n4ceeRa36CTw8KP/ffjRZx965JkHH3nmwYefuf+Bp/6+5L7zLrg0OdQWwPE8w8Fa8AqoR0jYcggLTv9gRfNXr/lc0SxRtcHzseGR2kUCoMNCohTjjr//69ix9ipb2TUQhJUdXk5DYCCwiUN6PrbaGBZr4BaRBFjeQ7CGw8QDOCaCH46kpkTFFGQbpnxlS0xUQDVBwpZHWOoSMKH96/7HOUkXVCcmNXXhC37kVGuQCP4M582ct3vvARBwkAW8PFFHdPRAEFaxpASwFdLzyQav2RxkloYZSNwikgCELYZUspDuKL+j2BClWob4ooGbR0zsIQZe2OMXCVveQGZxqX3/otlXwtyRaPYYRivsRqrAnTbMU5wijhKTzTHRTNkTt27bCQKuIjvBgBDWGCSM5GRdGZwWNYuTdSlhB47P+B6RBAppuNiS7mBFuAJ3NU624iJ44wRx46IfqkjY8gnr+v4IYxxrLVsEt6cw8VQHpcUVlqNMsUUttf7Lb8C/reBSUJ6wIzl6AAgrQBgdcOrgJENULEm1eUg0DYn5cItKAir4I0KgOwgPD3KGHZb9kD1PsIU84GAe9YaELWcYgzusT3f8uZ+TR7GnG5sZeqJupBorX9DMQWJKgKBcqWeffwPWHbBMO+VIOrpjB4CwxaA5wUoQQQELfpANAd8jkgBDJ/OZY1TlWTwjXrUYcIPUeUGi76gHFxK2vLEMytjqjz8XYFFAIfF65LfBqDtB6OXrnJyCriybd9z5ALPB5kPVlCfsSI4eAMJGryiF3oJYYFgSQMKWN4yBsA8/+qykgQtBHDKwo5Wga1+EaVxFhxipknHRJVfBWhqaK0/MER6NhO3aXngDiFICSNjyBjMQ9prrb5fAyhPECkDCdh2xjLAGB24xZvPoM9hqxdID2pbXHuUfjYTt2l5R8gXPhYQtZ4wGsVYvnrUQkhoo+fX+2EG7SCCYHY7Dwl9n2KmjWY5VJCyypjElgIQth7CBZ+eU08/jZV1Q0zxzuOvCF/zIYoBBogRBcbSEfeRoR4PPdGGXaGAJIGHLJKxHfCczGSIEqum4ZIvA2ca8OZ/wqoGwqgVBFyVLUow/dx9AwmInaVQJIGHLIyxk/0ie2gwrIBUb4rFiXIJuNxhmhzV5FW4/qmb9tPm3alpygHbYE94aGxWCkQoECVs+YRPDM50IizNdXTso2GEVEyLbKo6smj/+tAUJi/BqVAkgYcslLPUTw1gUDwiYBJFYG7XrdAVrUQ4BYTnFEhRbUvTvf/i1c6bb8uQd/tGow56w4YotiDvhSQAJW94YJh71tWFpXrZFIKyFhO3eF/8irAyE/e77X1jIx/IEHdnRSFgkbCUlgIQtbygDYdWhDhK2O1iL33Qh7Pc/IGErOaTxXFUlASRsmYR1yXGEZdGmq6pFB74yRTusAHZY44cff0U7bPH2gzsNJgEkbJmE9aivDIHkrxLEnbQqEiZ94KFZ1qgAwsLCWTbTpSBh880H4bcVS2AZgiH9GljwcYtOAoHYYdKVRd6BKDBiwuFZnjqWD7QCKWQwT1d5eGWJU30gLMzhwIDBma4e6A/5OQqEZTNdvzS4DsvJhpRIx8RUTGySE7aoGFIh4BNCNiIJBHk/i4UXI3jFJF0ZnBE0OybqcZboviztofyDUYctD7IQiQ8Je/J+hoTtJh+DJSwxtKEZQTX+v/hwOekEKYHxPToJsOzLoAPlN1jGnYZwIpLFyZB1QtRY2uZuDt3dmq8HNaLkY5CwSNiwexgStvvwC0LExiUIiCMl02C+l8HWhFtEEshnkQlScrFMlJA/RmFZZNS0oAJbK5JkDwmLhEXChi2BLoTlgtxQappnRlhOSilJR0ngFqEEZNVSE46iwaYl07Jqi3JKlJtExRBkmwXGq0wKKCQsEjZsvqAO24WwouYIqsXJqeYx02+97V8vvfLuihWfLF/xMW7RSeD95R9B4SvzQn773Q//88xLl12+aNipzXGwhmd4xeYhwUzUGxIWCRt2J0PCdhm3YtKKyyNuvPWfv23b3dqaI5D1gbJoOB6+RyoBCumLYKO+m81lDx1t/2bTrxfOupqH2PkWr1XAnQAJi4RFwoYpATMmmQIEaDd5Oc3JNq+ZySHWCy+8lc1RiC9MXMgLWT3xcsvr/zV8NKG+x8Te2tp+2+13JwY7vFyBwHhI2PL6DPoS9P5UhTospxjMQ6uZk63EqS3LHnjy0KF2n/GVUo8S4pPyuh0e3X8JsGxGvke8bC67a/eBRdfcriSRsIo5b+H1tP/SDa0EJCwStlcJ2IJqckEWDMU6+4LLf/1tO0AVIl+SIEQDLL7GV2UlQH1KKPG8LKEeof6Gr35wWqZ2sedE8BF12PKaGQnbK1+sBtdhYapaNTkVzAWJYc0PPPx0zvWoT1wvCwqsTwghkO4NX5WVABDWJx3ZVuq7hJCOLF10zc0RILXLAEHCltfMSNguHaiHj41MWFiaqVpxWec0i9ccw57y4eq1rIuRogJLKQK2vFEXytFsepG6Xg4aAm51/quvvYmERStBDwiLvlv066SNTFgeouKagQ7LqfbYCWdt3LiJEuLlXB+ymgNbPWaLDYUaWEjpEqAsSjE0gecSz6XU/3Lj19EPJdRhS28iOBJ12N7h2/CEtQTNEjQ7Lhtjx5/17bc/AFapTz2fEEoI8WBKG6e6yht4oRwN7UCol4OZRs+jG7/5FgmLOmzvRIu+l5RXhwYnLC9bgbeWoFqZljPWfLyeOcACXj3Po+Cv5YE7LL4qLgG4t8GtjvpgDveXf7Am+rGDOmx5zYw6bO+0bXDCxsEf1opLuqg5Q4Y3/+fplwOzay7XQYhLKWivrgtGA3xVXgKUkva2IxScOvzb7vgnEhZ12N6JFn0vKa8ODU5YXrEFzYrJuqilOSk1Z+41u/7cSwhxvRz4vFOXOcRWni2Nfka23sMnJOf7HYR62/7YM+m0mdGPHdRhy+t4qMP2TtsGJ6zACDtITomJjKimh44Y89/nXjt2rINQ32UmQJhyQStBeeMunKPZw4TnkY5jrW33/fvJwcPGIGFRh+2daNH3kvLq0MiEZVkMnLiic5rBqw4n26Jm25nTX3n9fZeAFwGhBFbNImHDYWZ5pYAfgUeyWe+VV99Nj57OYQRuAdd0hblkvjxQ9hncDU5YCHiqmXFFj4My2wwxnFRj2MjRS5bev/fAQUIYYV30JSgPjmEcDQ8Prcfal933WFPTuJgwStBw1SwSFgkbxtjqVMaAZPO2BdXmFb157Jn3P/TMTz/v2nug7eChY7hVTAL7DxzZ/OsfDz/5UvP4M+NSisWTdHgZcxwgYZGwnegYxu6AENbkFVjrBeGflSZZ1RODzaEjW3CLTgKDR2SGjGjObyObk8PTctLg1SZOaWK+dAYnmyLqsGgl6POj+gD+sJGtBD2KXUqwnCWyIShmsEmqxUEWE9yikgCv2Zya33jNiStWXA6iShpxSecVg8VE13tsr1C/RF+C8vQi9CXo3ZiLhO0yRNmQtop59zjZGsSnIspPhcUGEoD4O2wTZDvYeBlsNSwBog3Re1XMIsOWeGP0wi7Dtfo/ImG7tJGowdgu5JIxeM1Sh7aIioVbpBIQZFOQTVGxijucYrK7HSwJgQgS7L1LY4X9EXVY1GHDNvUiYbuMUlG14xI8nAqazScsTjM4zQC/Ltwik4CognhF1RZVm5fNYONks5jEm5MtUHLD7vzdCkTCImHD7mRI2C7DDKJtgZBNXjE4eDg1OUXnVQu3SCXAgSnA4jWLU0xOAb1VUG2mxhrBIwVANuzO361AJCwSNuxOhoTtNswqMJLxFNUpASQsEhYJG7YEkLAogYIEkLBI2LD5gjpsYXRVp1aFtaqkBJCwSFgkbNgSQMKiBAoSQMIiYcPmC+qwhdFVSV0Jz1WdEkDCImGRsGFLAAmLEihIAAmLhA2bL6jDFkZXdWpVWKtKSgAJi4RFwoYtASQsSqAgASQsEjZsvqAOWxhdldSV8FzVKQEkLBIWCRu2BJCwKIGCBJCwSNiw+YI6bGF0VadWhbWqpASQsEhYJGzYEkDCogQKEkDCImHD5gvqsIXRldeVBMXgZJ2HCNA2J5u8YkoJm8UnDaKU4nskEhDUIOR24R3CnxuwqdAEnGx0aaZoPiJhkbBI2LAl0GWsxqUmXtFZqq4gUCyLAK0YPG6RSSAmpZh4AaYQVUuzRNUUFV2QdRHCwsKX7G4XtcUACYuEDZsvqMN2IayYsDjZiIk6r9iSluEVOyYakIMWt+gkABkNHF6x45IJm2hykimw07HvzZioI2EtzNPVZazWxEckbJdmOkVsioNlwOFkY5DQxCumnExzsoFbdBLgA/FCSi6QvJRw4rLJMnc5MdGQtHQQIrZLS0XwEXVY1GFRhw1bAl0GqqjZomZxclNiqDN63JnnnH/5hZdcOevSq3GLUgKLL5mz6OLZi2ZdunjWZYsvuGjBtBmzdOc0QTVEFfJRMrgHkdEjNRQgYZGwYfMFddguhBVAwqmJU867/8EnP13/1Y6de48dy7W2u7hFJ4G2Dq+13T3GhHy0LXfg0LEtv+94f8VHt91xj9N8Gi83Qdo0BXIAR7whYZGwYXcyJGyXQcuJqXkLbv56069t7R71fZ8S36e+T3CLWgLU96jv+T6BHeq6bvbo0daPP9kw7cxLYLJLa+7SUhF8RMIiYZGw4UmApS8140pKSJhxxeIkg5ebzr/govb2dkopgWTwvud55XU6PDoMCRBCKGU3OEo3ff/TuIlni0omAqR2UYqRsOU1HgwRZYgtKLakOoJixvNJ7rqItaE/NrYOa3KyLibNmJziVUcd0uI0T/t8w1eEkFwuF4xw0GLZUC+v6+HR/ZYA3OEoCN91vRde/t/wkeORsOa8hdfDfadaXkjY3m8ejU1YcMziVV1IWILiiKp1y233Hjna6rqu7/ud1ahq6dGNVA9CqE99180R6h04dPS8mZcjYZGwvRMt+l5SXh2QsODrrpqSljl11LjXXl9OmdJKKfU8r2graCSyVcu1Bk8OlLiAWc976NGnoh87aCUor/VRh+2dtg1OWF6xRM2KS7qsZcZPOPfzz7922SvoaK7rUvYqr9/h0f2WAJgHmHnGy+UoyXmet3bdBiQs6rC9Ey36XlJeHRqZsGyBJiyKFbU0J5oTJp77/febixMsgQ4bKLP9JgYWUJ4EqE894jEnDurlsj71v9u0Ofqxgzpsec2EOmzvtG1kwhZGrClp6bhgjB0344svvnG9/DQ2KFE+PKCW1+nw6HAkwMRPfTASMH+5T9d9WWiv3nt1X49EwpbXeEjY3vtigxOWUyC8i6Q6nGimjEmvvvEeob4LFlhwyyQ+eGZ60I/wVWkJwMMEGMXBDZcQ//Ennu0rN3sfBYWSkbDltTIStve+1eCE5VULlmZqdpzX1WT65lvvOXK0NbC9Mj8htMOWN+RCPZr6vufm2n3fb231Lrp4YYGDvffqvh6JhC2vAZGwvffFRiasoFqiZsalUbxqKFqGE43M6OlfbvyW+n4215FfwkQJYc5b5XU9PLp/EmA3OeL7OernXM97+53VI1OT+srN3kdBoWQkbHnNhoTtvW81MmFhXKkGr6Z4RZeTzZxsC4pxyewrtm7b5YGtwCXE89wcTGvjq7ISoL6fA09YN+e6P/y05YKLrmDRI3vvzwVW9u1IJGx5zYyE7b2fNTZhIWiTlDCBs2CQzYBWqxizL7vm08+/6XDBSwiUKYKELW/g9f9oyuJBZHPkq40/XjzrKmWwEw9vtfSJKYyELa/pkLBI2F4kwMk2r+qwKTavZnjN4hWHk8yWcWf+/R/3fv3tphy4FpTX7fDo/ksg5+Y2ff/9vfc+NHr0mRIsdjfjcBfspTX7fQAStrymQ8L23iMbW4ftQT6i5gSJoUTNTgxrsZqnTz973kVzFuMWnQQunH31hbOvnjl70UWXgpxnnDc3PeZMbWiLlIC26Dc3e2jlE5SJhEXChn0bR8J2G2xgOhA1O0hzwCmmMjiDSboilYCgmYJmBqdgO3pc1ru1S+mg7PORSFgkLBI2bAl0GcmCagdRDYOkKYEOBau/cItMAhxk9gUJM2mbLM2E3aVdKvIRCYuEDZsvqMN2G7qQxzsY7cydK9jvs1qEP+xdApxssZlGWP3BKxb72PuvujVc/3+ChEXCImHDlkCXgRqXYEZF1PJgrVQe6f7ToYZLkBIOu6VZ7N4GnA0+dmma6D8iYZGwYfMFddgu4zZAKssdDVPYgmrJyXSXY/BjuBIQVLtokwkkj4TN3zA5xeAUnblt26Jiz1tQRRG4wZHR95XBJi9bkprmZYtnzyDhdo5aLw3SJitWXDZFxRGlph9/+g1WglfLi4UHKCR0odRfu+7zqAXOCGuwgFugSXEyTHxFfVIsP7iZiRqEOqus/0Bn3b8KdVhVjytNPEwFZkTZnjf/+moZmyyhmkv8RDIlSCleMgTVikkpTtFx6yyBmNwkJW1eNgRZl+SR3333S/WsYGJBQiHXAHvB/fLjdesRRiiByCRQhYRVDE7VwU9bTYuqPW/+ddWjABHiEeqtX//Fp+s3rlv/9dr1Gz/74pu167/CrbME1m34as3az9d+tvGzz79eu+7zo62tLKRUVdwoCVuvmo/DAkmb/I8++Syy0dVZl8H9xpRA9RE2znRDXrNjkqkkM+dfOK96COv7JJdtZfE7YHB6vpd1s1FnJK7B8iF/cpDvj4X090BU1fEqEjZI+Nre4S1f+RESFiUQmQSqj7C8AiZqHhzZbEG2LGdyrlqGJ6RbgsXNLCuwBy8XUEJxO14CJEc9j5JC3OlqSq0KAbAJRAbw///27vY3iuOOA3j/m9Z3tw+zu4dtgg3epzs7JBFSGjVUoRJSQwoYU0IDJjIhUSClKFXTtFIqVXmRqumLpEGNRNKUkLRR+wKpUfOAElT6gMpDIIDDg+3i23lof7NnQSFSj+N22fN9rdNxRvbN7me935mbnZlVMmnwhKvnf/piZmdXb7basNfXCxQvYW231meuML2QLRk1WFQdqP3lo2PFaADRXX5ozY60M0/Sje/1qarX9E1X9sWzVIJTlag/iat0Bn5x+mG5SLeF1rgXXCVcffOhR5CwEMhMoHgJa7lRxV5uV2mQMF2MdsJtk3uKk7B0S2bJKWhl897MCNUbBJqfxKmjQN+so0jLnPB0kXu6yQCXQh058rfqElzWv77NhdedFShewpo0PJPGDBpOpF9H7sDYxx8fFTw9kenyhKBPpfpcoVcLd4ag/tr0rMZzkQToiv0dedAfRHoXwrSGpvED6V+NnFcq4UKt27DddGqZtV86e67i3bpRoHgJe/Ofu+lG68cfuzB9WSTUJpK6H406+nQLiQJ24VpY8xox/oEACejeGx2unHNBfy7Ua06D7mRydb7x6mtv9C+9u8+8IwuCdGNYYJvbEOiGhDWcaGBobN8PX5j+4oo+bYSkteLpw6fQN5XTSZt+IqUTCA8INAWaKdusgakxrRJJq9yL9/74/sr71phebHqYXtVGcOBXWhTokoQt2f6Qv2r33h+fm75EJw9dzU/HAHElEz0YiAs+j3SFwHUCdI9XqbiQC7dvpvYstWZfP3Bo1dcfZtWxPjso6UUDbv7khP+BQCcEuiRhy3ZUtn27Gjz40LqDh/7USPQdIdIOgmvP+iMg2m8QWGjBcspWGkxHN9DWN9M+eersjqndfnQ/3YCA1ftMn9FSrS22R/BjELhVgS5JWIPFdrVuVGNaWNcdeXD1d17+1eufHj0+MytmZvnFS/OXLjdmZsXsHMcDAqnAzBy/PJdcvDJ/eVZcuDh/6N3D2yZ39y8dZV5Ei1159T4rYF6tZKxAwkIgM4EuSViLpiFEej0RWjjDsAODjVjuiDdY679rdOnwyqXD9/TfNTY4hAcEmgIDQ6MDy8aWDq+sDtYtNzCdwHRCg8WWV6s4cTldodmJTJbnPUVutQWEn+92gS5J2MxqmG4/fth+CECgyAJIWPTBQQACEMhKAAmblWyR61VsGwQgkI8AEhYJCwEIQCArASRsVrL51JAoBQIQKLIAEhYJCwEIQCArASRsVrJFrlexbRCAQD4CSFgkLAQgAIGsBJCwWcnmU0OiFAhAoMgCSFgkLAQgAIGsBJCwWckWuV7FtkEAAvkIIGGRsBCAAASyEkDCZiWbTw2JUiAAgSILIGGRsBCAAASyEkDCZiVb5HoV2wYBCOQjgIRFwkIAAhDISgAJm5VsPjUkSoEABIosgIRFwkIAAhDISgAJm5VsketVbBsEIJCPABIWCQsBCEAgKwEkbFay+dSQKAUCECiyABIWCQsBCEAgKwEkbFayRa5XsW0QgEA+AkhYJCwEIACBrASQsFnJ5lNDohQIQKDIAkhYJCwEIACBrASQsFnJFrlexbZBAAL5CCBhkbAQgAAEshJAwmYlm08NiVIgAIEiCyBhkbAQgAAEshJAwmYlW+R6FdsGAQjkI4CERcJCAAIQyEogw4SVQnIphVRq46bHDTsynNjIajfyqY5QCgQgAIFbEDDdmulETzy1TyolhKQvJVULX19p4WfoPfU76oRlSNhbODCoiiAAgUUhEJdM/8mnnxVSCZ6mq2ghPFXrCSu4UBNbdhosMl20YRGyEIBAbwmYTrhn73OUrkJSM1Z1NGGVkkKpqV1r/gTTAAAFr0lEQVT7DBYgYRdFndxbpwcOGQRuR8B0Y9MJf/LCi1IpKSXnXHWwl0CnNfXD/uznvzTdwHDC29lW/C4EIACBrhMoWcO/OfC7tPNVUCO2o21YIRKp1KHfH64O1isMCYsGIAQg0FMC4eDQ3R8cOSoUF/qrYwmr30hw0ZBKHT12Ihr7hulGhku4JjVmQ3qtv+26SgkbDAEIQODLBCjZKOj0c4XR6wdWP3L8xGd0oYu6CFTHegm4SrhsSJUIIc5fuLJtx27DCw0vNt3IdiOD+RU3KDvBl21lT1Vx2FkIQGCRCJSYX3ZGLDc0mW+5cR/z7SXRnr3PXZ75t6B+WE6XpVoarNXCWAJOI2EF5/NCiESoV147MLj8vpIVOP1jtlcr274zOPpVcxgJCwEIQGBxCJTYiFmNKiyw3Njy6oYbj8QPvPX2H+YToZNV6FBsZbBWCwmrM1smvKH0UNsTp86sWbvZrtYrVliyaFxBhQXUqsUcBAhAAAKLQqCPrVjo+YwrdmhXaxs2T52fvtjgXNKEA04N2E61YdOglko1Gg2ayKDUK79+szpYM1no9I+V7XTwlo+EhQAEILBIBNy07UgNR29grDpQe/vdw0KPWE07YSXNwepQG1b36ErdV6BooC0Xs7ONrY/tsj3fcEJqQjuRXa0tEtlFUQPjWEAAArcjQKNfdf+A6UbOkvCZvc9z6h2QepCWnjLb0VmzQkjBpUgEp7dNuJLy5Omzax/ebLi+6dYMh6563c7+4HchAAEIFEfA8uKyHRiUs8Gj25+6MH1JSopXzmmoFr2WXKh0RMH/acm2Mmu2+RY0T4watPTuXIlP/vr3b317vMJGDKdWcUYNtsJyg7K9omz7lhcbTlxJx3KhVQgBCECgGAILbcHmYKz02wqttUKPCvMNZ8RwR0pObFXrZXt4fMuO4yc+++90VpG2L/WErvRjfQdXfrkxpClhZcKl+uiTY2vWTlhebDp1t1q33MjyaqYbl2y/7PgVxy9T/vqGGxhuYHohHhCAAATurADFkRNUdEDRM/NNN2BL6rpnILK82K7WyjTMP1g/MXn85JlEyLm5uRtDsOXvb6ENe+09qb2sm8pK/eOfp7d+78llQysrVtRnBGU7pGtf1ais98H0aEMNGi3b3KX0NZ4hAAEI5C+QBuu1cumKVlhm/teM4bId2NXRkhkarLbcv3fX08+eOXeJNz+3S+oVaOurnYRNr3cJ3SUhhJqdTfbvf2Pd+u3Llt9re6HBgpLlVxj1z17XsUI9x9d9i35bCEAAAndAoBlELKqwUD8i06lbbq1i+wYbWR6smtiy67dvvdNo0JhXzhO90Eur8wtuDuF2Eja9qEYF6zELtIyXUP86dfrAmwcf3/lMWLvfdkKL1Ww3tmjSV2CywHJC0wlNpp/T13iGAAQgkK8AxZEu0WBB+tpyY5PFFgvG7lm9+/s/OvjOe2fOnRdcX8qidQq5am2VwpuzNf2fthK2+WZSiCQdd0sTHaRIkmRmZu7M59N/fv/ISy+9OvXE3u8+OjW+ecf4xOT4xOSGTdvXb9y2cdN2PCAAAQjcEYH1G7dtSCNoYnJ8844tW3dO7frBL17e/8GHR89+/sXs3FVquEqhaB6rTBrzNI9VJImglQXb+2ozYdMS9aqG8urVq1S2nuSgh+HSlTelqAdD3x2BtjZ9jWcIQAACRRD431CimVqUWumW0TRW1Zif1zmmszZtSLYVsW0mbFtl4ZcgAAEI9JYAEra3jjf2FgIQyFMACZunNsqCAAR6SwAJ21vHG3sLAQjkKYCEzVMbZUEAAr0lgITtreONvYUABPIUQMLmqY2yIACB3hJAwvbW8cbeQgACeQogYfPURlkQgEBvCSBhe+t4Y28hAIE8BZCweWqjLAhAoLcEkLC9dbyxtxCAQJ4CSNg8tVEWBCDQWwJI2N463thbCEAgT4H/ALTxXHguXcBIAAAAAElFTkSuQmCC;" parent="1" vertex="1">
          <mxGeometry x="950" y="600" width="74.85" height="62.3" as="geometry" />
        </mxCell>
        <mxCell id="iavCVBblB1wfD7l5K1Yd-76" value="" style="sketch=0;html=1;aspect=fixed;strokeColor=none;shadow=0;align=center;fillColor=#2D9C5E;verticalAlign=top;labelPosition=center;verticalLabelPosition=bottom;shape=mxgraph.gcp2.check" parent="1" vertex="1">
          <mxGeometry x="990" y="630" width="50" height="40" as="geometry" />
        </mxCell>
        <mxCell id="iavCVBblB1wfD7l5K1Yd-78" value="Printing &amp;amp; Signing Enrollment Completes" style="text;html=1;align=center;verticalAlign=middle;whiteSpace=wrap;rounded=0;fontColor=#6170B9;fontStyle=1" parent="1" vertex="1">
          <mxGeometry x="920" y="666.5" width="130" height="30" as="geometry" />
        </mxCell>
        <mxCell id="_nvLQFHXTz9P7ObtZMR7-5" value="" style="shape=image;verticalLabelPosition=bottom;labelBackgroundColor=default;verticalAlign=top;aspect=fixed;imageAspect=0;image=data:image/png,iVBORw0KGgoAAAANSUhEUgAAAMAAAADfCAIAAAAvPkseAAAgAElEQVR4Ae29h1sTTff4/fsD3u8tLfSEEqqC2HtFRYUAgogi9gp27BV7BYTQA3a97b3TVDqKYsGG5VakSy+puzt5n01gDWlsCiFguPbS2dnZ3dk5n5w5M3Nm5v9xNX+aElCgBP6fAvdqbtWUAFcDkAYChUpAA5BCxae5WQOQhgGFSkADkELFp7lZA5CGAYVKQAOQQsWnuVkDkIYBhUpAAxBafAAAhUrxL775bwEI8P7YLFZ5aWl+Xu6D27fOnzwRczw07OD+Q7t3HgreeXj3rrBDBxKiqJfOnkl6cP9jYWFdbS1AEA1b0n8dPRwghEdAc3NTatLjPVs2+Ux1GTeo39DeNv3IZg4kYzsTAxtDPSt9Hf5hY6hnb2roYGbS38pihGNvlxFDA+b5nz954tfPH/znSC/Kv/NqzwQIAMBisX5XVaY8frhu+ZL+VuZkgralnpash5W+jqWelq0RYY6Xx72bN35XVXE47L8TFElf3QMBore0ZD59cmzf3imjh8vHjVjOrA103caNijke+qHwnaZew3jqUQCx2exnqSkrFs4b6dSHrzzEoqBIpK0RYeroEZEhR2uqf2OF+DcHeghAAAB6S8u2oDUOJGMlah1JqFkb6Pq6TSktLtaoop4AUGN9/e1rV0c59VEBOoJIDe9j9yQlmclkajRQNy6B0l+/dm1c39eCSCbIbCML0iBHmEzQcjQ3PRkX09Lc3I1LULGsd2MNBAD48e2b54Rxdsb6cohfWbc4WZJOxcXCMKyYILrr3d0VIARBXr/MH2BtoSwOFHzO3Zs3/k6GuiVAAID8vFzXMSNVbPRIgYxM0L5/629kqFsCVFZS4jXJWfVGj1SAtMYOdMp69vRva5d1P4DYbLbnxHGd1M0jBZEOL5EJ2ov9Zvyuquyu5oxc+e5mALHZ7KN796hPzSVK1ZmEeARB5JJFt7ypOwEEAMh4kjbc0V5UbOoT09/K/NuXom7JglyZ7k4ANTY0bFwVqIaVlxC+c7w8OByOXOLofjd1J4BePs+1NzEQkpYanjqYmfw91nS3AQgAEBV6TJ2tHwxlK32doIClTAaj++kT2XPcbQCCIch5yEC5m+7mur0wASsYMNf5x0K3l70RYbyDlaWEx04cNvhtwSvZxdH97ug2ALU0N1vz3LvkEL+9kd6prUv8xgy0Jmhb6PYiy+JZxk9srtuLpP1PfzNjnxH9Di30unNg9YdT+8quh5H1xHNppa9z6dyZv6FPqNsA9LuyUibBC3LmOrB3xfXj7NSEbxcO09b5+48bNMreYqC5cV+SoYOpQR8T/d7G+r1N0KOPqb4j0cCJaNjfzGioNcnZ0WbBxKGHFk67vXfl1wuHmx/FQmmJnJQEVlI8JyUBeXZqKNlUUq62rFnF+Atqse4BEADg3esCQSZkCOtqHV40rflhLDuZxk6mQamJnNSEypvhhSf3JR8Nurxz2YkN8+LW+sevm0MLmnN688LruwPSQje8Ttj949LR5ocxUGoi70jg385JScAOKDUhwHW0pJwMd7SvranpfnWSjDnuHgDV19UFzp8rSVTS460J2pd2LMWkzg+wk2loIDWBg/LERwT9t+0UpaQ1jQAxQg9hJsXHrfWX9HYyQfv7168yiqP7Je8GAP2uqloye5bc3T+TnGwKaLs6pEEIDjynrKT4F7E7pJjn6Wmp3Y8IGXOs7gAx6PTgTRsUab2vcB/D4usbyboEDy6iadjJtMrbVEkNMUs9re3r1/V4O1qtAQIApDx6aG9qKKma6DDeiqD98NAaUdkrK6b6bqSDCUFsNsgE7amjR/T4cTG1BojJYEwYOkgR9eM60J7ZOeqHj2D17YiRduKd2sgE7QHWFj1+HplaA/Q8O0vsjxtnZG9jQvWdyM6wfjAFVn83cuGkYZLyY22oS29p6dm1mPoCBMPwmiWL5FY/DqYGJzfMVy49zQ9jf146WkALzqBuSQlZn3Is6Fn4pg3TJ0oCiKyn1dTYqAFIRrtcSckbGxo8JoyVJBvp8baGujtnu9bcicRUhYIBKDXhwYHVQV4TZozsN8HReqgVsb+5cX8zoxE2ZkOsiJIyY0XQbmxo0ACkJCJkfMznjx/GD+4vSTZS4i10egV5OTfej1aW+mEn08CzU7YGOhZ6Wha8wS8LPS0znX/MdP6xMdAZaWsuJTONGg0ko9yVlvxZaspwBzspshG9ZEXQHmpFjFw5E7++YSXT6u5GVt4Mr7oZzngcJ+XGj6f3n9m0YO9c952zXUOX+VzasSwvdkfTw5gHh9f2MRE/r8jGUJdOpyutRNTyQeprA/17+pSjmYkoJVJiRtqa3z+4mskbqJKCAu8SrepGeFro+uhVfptmuCybOiqQMubm3hVQ6p+RCqEnsHndSOiwRhqvz5rXVc1OSciO3DpKnBL63zyNQbZkNruHr+ahpgABACKOHpa193lsb8ucqG1Cghc+TU0ovx4WvtzHe7jTMCuiFW983kz7n1H2Fi/jdwknFtf3yK8Z0XEPHkMfz+x3H+wgijWZoD151DBNP1DX6E0Ygg7v3iUqFekxDib696V2GzKS4hPXz8XGz9Emnq5WfzPjqJWz4LREPDYTK5lWfCUkfp3/Dr8pJzfMr78XVX83asFE8S35zatXaADqGoA4bPa+7VvF4mJrqDvMmjSxr42Lk81oewuH9vbHvyLjpphSYSfTLu1Y2o9k5GiqP9ya5DqoT6Db6H+3LS67FoYHHfQ5qYkXti2xM9Qz1/nHXLeXuU6vueOHwE9OrPYcJzard29c75riU+Fb1bQKYzGZuzdvFJKKnZHegonDTm2c//T4pncn9r4/tS8natulHUuXTR1pb6THT0xdMZP+KBaDRihQdPbAteDlN/YEPju+8euFw/RHrVYz31WjQ4ygtMRjS7yt9HXG9rac5zzEZ0S/SzuWQqmJm3wmibpKkvW0ij59VKEou+ZVagoQg8HYuSFIEKD+5saPj6yrvk0VspFZSfHVd6ihy2bwPU1XUsbW340S4kb6KTuF1nA/+hUtOD9uZ9ODGOmJa+9G5sbuKLkaWn0rAm24JcVDqQlHeVQJ5tZST6u3qeHvyp4/yVBNAUJXi1q3hi8SMkHbfXCfihvHRV26MGGzUmjBc9z6mOhP6W9XfSsCi5ceYCfTSq6GHl7s1ZdoQNL+PzOdf6JWzhICVPQJLJ5jmmD8g4Or7dpUIJbnedOn/Q3LvqgpQI2NDUEBy/jCmORk84q2i5VMa34Y++z4pqfHN7WIVFLsZFrLo7hzWxY+CduIVUyCMhYNs5NpjEdxPiOcLHndg46mBiNszRLXz215KFwDQmmJScc2NN2PFn0IvyH2+ewB0a6g44cP9vg2PJerrvuF1VT/Xj4Pdfaz1tcJW+7D1wp1dyOD/d1G2pqt9RxXfOkYR3SYnde0Fitm0UiUuYexJr3+P0s9rbVezk/DNr6I3Vl1M1w0JZR2YqX7ONo6f7FGEjuF1vQgprdxO6cOG0O9m5cv9exBDL7NpaYaqLy01N/Lw1JPy4lkWHIlhC9UdkpCy6PY68EBVgTt2WMH/WqLFxU5/pg3ibuTjwVJH/dgJdOex+wYakVkiesW4qQkwOmn+5sZCdpAE4YOfP0yv2vMWtW+VU0BKv7xY/qUSZZ6WqNszVE/5faSK0jYPdDceIff1CaFB7zEKhWh16ETMJ6edHa0SgvdIHoJBejJCe/haFWIHUtmz2yor1etKLvmbWoK0PcvRa5jRlrqaU1ysoafnRQUG+pIejN8KNnUxkD3/NbFgpc6NXxq4/ytvi4MceMk/7Put82agtFjbaC7a+P6v2TBMjUF6POHD+MG9SMTtJwdreCnwgAVXz5G1P4/C91eTkTDn5eO4dQicuMFpSY+PLx2lfuY2WMHll0LFX0OO5l2e99K/kC9pZ5WH6LR7WtX/wYDSH2N6HdvXg+2syITtEbYkITa1exkWuP9aMrgPvwRiYUTh7JTeHN02ldzomKWOwZKO3F4qW/smtmfzuwX+xB2Mu3diT0YQAOszKurqrqmRlH5W9VUA+VmZvDXXu1LNCg8uVdIbKwkWmro+uE2ZpZ6WkPIxCdhG1WghKBUiTPF2Mm096f2YQCN6uf4NzTg+ayqI0AAgLSkx3xnVhsDnYhAX3QGYHsF0/ww9va+lU4kIyt97d1zKB32IAvdLt+pJEzZybSko0F8gMgE7a3r1vwl9Zf6VmE3Ll/ERpfmjB9cejVEVHiMpLh3p/YOtjRxcbItOndQPiZw3sVOprGSafX3ohvFjXWwkmmhy3ws2lph2X/TUptqqoFCD+zHGjV2Rnr/bl8idnIgO5n2+1b4h1P7WElKM4P4HYwV18Nq70Q23IuqvRNZfj3sw+n9YQEzRtqaPT6yThRlKDVh3oQh/AxbEbQrK8o1Gkjlxlj7F85wnYwBZKmn5exg9ZoWLCo5TH9IuYSlwR94Gbdz7vjB67wnbPadvM7Lee74wW4Dey+bOup6cEDdnUgxPeBpiUPbXOvtTQxbWv6inQ/UUQM1Nzb2Jrbr2LXU05rY1/rdiT2SIFAuQJU3jt/Zvyo2aG7YKj/a+rkPD699d2JP1c1wsW9hJ9O+nD/UhzeUQSZoD3ew/0t6gNTUiAYAFL59YyVug8ERNmaZEVtEu/LYyTRmMu3yzmUfTu0TK2NJ2EmJZ6cksHh2DyspXvozodSEkKXT+YtfkQnabuNGaQBqX52o9gyG4e3r10maT9jPzGj3XEoWdeu3C4f5Uym+XTiUFrIh0HW0hV6v7bOmMB6jSz+p8vh9K2Kec6sBRCZo+7pNhiFItWXWlW9Tuyqsob5+hKO9JID4rhf9zYy8hvVd5DJ84aRh04Y6YgOZzg5W+fgc45VFGDuZ9vDw2n5tI6lkgvbsae4aDdSVRD+6dwfnWr4Wur2wvjusBbRrtqskxx1lQYM9h4027KP8xw3C7H3U923CWA1AXQYQvaVl5cL5UtQPJipJASt9nSfhm1Hfxc6vyFhJ8Re2LhZaH2iwnRWnp88FE+RDjaowAMDz7Kzxg+SZzizIkxPJKDd6u2jnNaY5lBRAe59tDXQFX22pp0UmaJeVlGj6gQQhU1EYdaTfGCTrZEIh+fFPpw6wf52wW0mgCJvk/EZZevjmsb0tRd9OJmhHHD2sAUhF0GCvAQC8LSiwae+aLioenDH2Rnon1s/jTx5VOka8odO9YunhZ2+gDflvcKfny05dqrD/vn0bO7CdUx9OVsQmszfSS1g/tzMAargX/SRswyALaZP27UwMTsXF9Pg5qWoEUEnxz6X+s8SiIF+knaFe/Lo5ygWInUz7duHwgQWefSQsiiiYVW+XCX/DGr9qMRpfW1O9aVWgrVG7WQ2CwpAjbGeoG7/WX7kAXd21fOoAe1tDYatZbPZsjQgn42L/hh7FLq7C6C0tW9etwVY7ECsMOSJRgEQ0EOqSkRTf8jAWnRmIw4mRnUyjP4qruUNNC90wdYCduc4/+PNJJmgPsbeuLCvDjLyeGugygNBd379/W71koRx8dHiLraFunIgGQvv97kZlUrdcC16eE73t56Wjjfej23YySIRSE/hhxuO48uvH357Y8+DQmrDlPqjvLG8JmA5fKpogeNMGqKcPa3QRQAB8+vB+yWxfpTTaRSVna6gbu3Y2f2MUoVZY3d3Ii9uXuA609xnZL8Bt9K7ZriHLfOLW+ses9gsP9N09lxLk5Tx7/GAXJxsnoiHa0637Z7KO6Iukx9gaE/Lzcnt2k75rAKqqrJjh6mIt0gsnXR74r9oY6MSs9hMLEL8iSw/fNILnUm1F0LY20LE11LU11LUx0LEiaGOekPhfJyXlPB/vnr39ZRcAVFZSMn2qmPVQpIhB1ks2BjpREgDiKyT+0nRT+9sJjabJ+qIO048fPODzx568yIuqAaooLwucP1e5v3JRKdoY6ESumiVWA2E1GjsloejswQC30XLvYyf6XtGYPkSj0z16I3CVAsRiMo8fPohzsF1UGPhjrA10qCs7AIhPUsWN4wcXePZWUg+4aA7JBO0je4OhnruJs0oBysvOHGRnJVrKSo+x1tehrpwpXQMJqCIaNXBm5ynF7evXtrS0aJrxipYAm81evWQh/q4URaiy1teJWIEboGQaJzXh9p4V4/uQFXmppHvXLV/a0NCgaPGp6/2q00C5WZl2qtr13Upf+3igL04NhKmi3Kht3sOdlI74mqWL6+vq1BUARfOlIoA4HLbnxPGKeIpJ+n2LjecBNENWgFjJtF+Xj80cpahDklCWggKWNWo0kIKgfnj3lj/XXahwO+nUiqAdFiAzQOh6dbwjyMtZaMUxRfK5ff1ausYGUgQgAEBUWEjndRuKSteKoB0a4COrBsLqsqaHMdGr/AZZmoo+WY6YQ8E7e3BfoiqqMCaTsXSOnxxFL/ctZIJ2yHL5AeKkJPxvmGyH31TF61w7EwNaJLUH+wapAqCqigpfyp8FvOTGAv+NigPESUk4thRdUxz/S8WmHNbHLuNJWg8eDlMFQF+LPruNGy22fDsj0kK3FxmtwnwV9AfiL0qvYA7dncf2YAtaRQ5lBfkvnIcMUFASkm7n1zLmOr0s9bQczUynjB4eOH/uwZ3b8u+ch56dwcwaOQI39q+eOGwwb5M5OQfkUUV4YF8Prr9UBNDL57njBvWTRIDc8eY6vYha/zfI2mwmZcrh3bvu37rx6X3hr58/62prmAwG4LDhn2844tbExAVTMq3lc96P798e3L61dM5sW2N9OYZd7U0MqioqFGl/qP+9qqjCCt+8cRkxVG5Q+DdaEbSsCVq9DbX6mWqPsdJaOVb37AKjovw0dP4DAFwAAEC4XCBQ4ryokreiqwTjAijzX6SunPdY9DlVFeUnIkI9JoxzNDOxM9C2InSsk6z0dc6eSOjB1g+/qFUBUElxsZfLBJkA4lcctgZaQ8y1Xfvozhuqt2kSYe4QvXuBxp/3mNCpJFYUiRFJYt2YJcKNAEJcLhcgcHEh59lZXNBgk1lTE6HPWQCB257Fp5PLaGl5kZEWO9ds2xTCguF6bg46Q8y0bfW1LHTRQ+gD/TzcGhp6/lLRqgCosbFhrrenUPmKnvLnulvo9nI0IsxwMImYYXB9mdGz9caFO03LjxCbI4iRMwxqQoh0KopO6xFlgZTmoxpI4h8AEBsufsdJa7dWcAc8PT0DGqvFPBYAuOQlM9aqOYJYcdS0cJfJk3XGYdMNNrsQlo7QG2+jY2ugZY46MfaaMHRgTkZ6j1c/KrKBEATZvn6tpI5Evv070ETP14a8e3D/C85jH06ekuM3pj6sHSt0KjF6pn7VUdM/9ESSUFV0a65EeNouAASBfn3Ebw9B75LE0IM+DXAyDzEizbA80KnEmwGG91YaNhwnVocQv+41vb/S6ICn8eNTByFWjx2BbytX9H9VaCAul5uW9MjGsHVPOHQLFYL2YGN9N7JZkJNDxMhhd1wmZlLcsj0oGRS3DHf0eD5zYu1hK0xODJQVYqyfftVRomAkGqY5wV8etbd+BD+QH0btGOjXe87T0x3onpQEdtoJALHFKg+AwMx7S4Uy8DTI5F6gcXNEa8boVCIzisSMseCcG9GUeYFR8ovT1AQQRDRPPSNGRQA1NtSP6d8XXXtAT2uCmWlQP8cz48ekuU3N5OGS3sYNn54Md7cc78nlO/sIiqoVoGMiAEWS2PeXAkZNh/IAMITWZU+l2UPsZBr87Xk7W/zPcwFc/4t52aNdHRpJqjhqGutnUBcqJmNVe+3ylywqCg2pSE7i1PfMAXkVAQQAuHHpooOB3lonh6sTxz91m4qxIjaQ5Tn156Z+DAFzRwpAjFgb+MtjABCxauMPAFwAYA786720uizjAkKvl/AcAH9PYtAcBbFmRJKYkaTtU/QrjpnSqcIMNYebZ3q4ZXpQcmbOeLtxQ3VWJtLjZvmoCCAul8uqq7vo0VpDiYVGKPJ70EBBUdGpxLjZ+jXifuioFE8OATCno4qMzxKAy4vEV2TJNOh7AVdSdQMAVHhBlBJGJCllrdGTdcail1jRJjnek7Hvyvae9l9iAkynCzDd7YOqAAhAUOO7dy+XL+VXWFiBSg8UrRzSEt7OXJUCEINK5KRu5yIQDoYAlwvgX4WcpyL91JkXQX25pCcAdgs7ebOgUsT4bgwnzh+qJwoQg0oqXDJKsILO8qB82BPc/P27BCO9+/HU6QABGK59nlsQGCAdF9GrhUtGNoVaYEKiRxKjZkrUQGiyaDJcdFuS+NtLBnAhNvzjNSftpOAKrPD7NInqhwtASxXz5GAsP4IBVhRpzhDd2jDhKoxOJRVv6SsIUIY7WqO93rC+4f37nsFQ5wIEAGj577+XixdmeFBEEZEe88p/fP1RsoCciNQZUgGKJDGvTgP1P/AyBEOCYx3sx3GA2SRJqAAgcNV7hoiVw88enUp8EmT0aJWRQG5be6qq99uKfmamp/ubTRsYpSXtse6WZ50IEACAUVnxasliOejJcHd74Tux/ohAS55KDJ2uXyfyK28vMzNO1hEAsfAxhA5UoAzx+hihwlRJ9KD9PwCwn+5lRArrGAwgTjRpswtBiDA6lVR70EbQDMJgyvSgfDpyGGGxuiU1ApnuRIDYdXUf9+2Vjx60JT99cv0R6z98UImHp+nXh7XrSPxzta1vmhlnB395zANISvc0VgCAC0PQf29Y6ecBhy0ZIPRRjFhb0ddhMexo0rYpYvhuOEp+NWc8xo1gINOD8vP0aaSbTxnrLIAQDqfkyuVsH2/BIpMpnOU5te6QtUCnC3EvRb/heAcAoS2yE0OQplLJNGD08AIAoOP2ta3jpu2vtZ0BgJS9EshJ20BKG7WMSFJzBPHRKqOC7cYYUvxA83HzDwHDJH14zozpVU/S8Ga1LTtq9X9nAdT8pejF4oWSCg5PfJbn1JoDtgJiI+6YQmgMF1+JCImNddULbdVLGyPjSwHtoa4r/RG1dyev70ei0mLdni/0CtHTd7tMTs01FIqnU0nfgwZK+d7CrZuZv7vx9oadAhACw1+jIjNlN5zbF7Tr7/1/AGJGmm6cYNCEDyBGjDUnL5wLMaX+WFF6XuVk+06eaK7Ta+bEcT+/fRNrPAFWI/PcOCEyhE7pVNK7nSan5xtiYxpYguJN/TI9JXacZnlPK71xHcDYyL/ULKvfxU4BqPHjh5wZ09vTIEMXInZj5V5BgEirxhJa2oacMPFICjBPDUWKs3jOHqKlzusKYjGvn0lwHtQPdYHl7RXn5+by6U2ByLgVgD7dZMa3G1cR+9KSQ6a3A4wq2w/3MiJJFcF9cqb/6U7Evg4LFKwMZHXbPVaVDxDCZr9et0Zu2xkr1gx314rg3lgVxowkLR0prrNOwBARkivr7FguzBZVKgAAemND+J5dAyzQiTvYVFRrfR3PMcPLfxXzGGqtzgDM5jzZLqn9JfjGlgji1aWGRai7Urt6tuEo+cWsCQLfJfxbyvJ0/3X5Eo4KV/SX0PUxygeo9mV+tqe7lPLCeSmd0g4gRiRp3lA9pmRcBGWJhZmX3EC7igx1DeM0Nh7fvI6/b4ugWxKZt878CFsrdl1d23AYQGq/MP91wR4oJcCKIsXNNizYIQxQC5X00l98QwwrimwvT3ZNx+PBXc+LSA6UDBDMZH4+egQrFwUD5btaNRCdio5Z+g7UYUeLaQFJESoj0oyTEwI4ra45AIEbP79/u3lz3OiRA431Benhhy10ey1ztH8VsLjhw3sEhtH+w0/XhXp3RF/HjCTVhRFzNxnvoei/FQGIEUl6u3C09KJAm/RnT3dHS0jJADUVfX4ZsEx6YeG/WiYAEINKnN5fW3aASMwEJ/jTLS6AAQxV52TnBy5Lp1BSXV13Dh5oJzLty9nc+M7kiRkelFcrA+oL33IBYElWP2hVRUVdEy8uMtzsQoiaaZC8xrhWZLiXGUkqWjlEaEBDtBBed09LSJkAAQQpv30ra5qHaOnIF1O2E9NAxKbjRI++2vzxJnYU6hPdEkFsiWjntSiqG1pjaE5IU1lp8u1Mrz+m/VOKq49Nu80ubPS19g7ph0k6Z6YPKzda7DNRr7FIUk0IkTrDwKe/Dm22QfkR04bjRCHrB7u3bIcD9lhJRZE13av09q1uZwkpEyCopeXz0cMyDblLKk1+vIAGIrZQSXF+qPfx+gmEbVMI1BkG15YaPQkyfrXN5NMe0+/7TUoPoyLEZCYUYJ4YUrh4uOjrJliQsIrM14b8RMBRKd9vAp36xx2A/0A6lVhyyDR/qwnVV3/RcN0rSwx5TEtEh+dLSao7Qs5wdxV9u2BMprtbUcgxqLmbbdirTIDov37lzfUXLBQFwxVtVRhfeMxIVPE0RxB/H0Md2lPWGl9ZYpjobxQ/24Dmb5DobxjvZ/B+l4lYjwtGJKkp1ELIFkmnuF2f5Dzc1JDP0OERgzIorWLO9HAt2eqItQExHOlUUsBovUhf/WfrjTsamBM010wzPToACB3+Wzi/6VM3W5FTaQABAH6nP1NK+6sNO+FWGCZFLMBvlNUfRw2RHwdMLy02vLTIUFJnIzq0ecg63+9Pizqd4npn8sQRpFZr2t+OjAFUMHdce1+AVhroVOLjVUbHfQzw90ih04+iibk+k9q+S7gZj8VneVDK7twWaeiodYTSAOICUBRyTBndP1j5ulYE24vqAIwe0cDtAKMrSwwlGSL82qT2kDUmsHSK6y2XidiU0wFG+jGjRvBcdly/rB4sqe8Hdd5YZ3xuAdrpLOVdQtl7LWFIFcsMP/BqRYBknyR1JElpAMFMRt7sWULFodipa9U+G5wA0amk8iOmIV4GJYc6Hm2tCO6d6+OS4e6WTnENHzGMP68I7RbS0/K3Iye5Tn7uO6kxxFLKq5vCiTeXG90OMOJZ8RINL4whdERs3cAO7egMd7dsT/emos/dyJRWGkCNnz6i83J4syyU8m+mh2u1wFgYJgzRAJ1KbKESd0zRz9poLElttIcvnpQAABrSSURBVLuLSirZ1jdnukuWu9sU8h8j2lJPy1ZfK3HMqJ+bnNqlF9d72RhOvLvCKN7PAI8eolNJVXttsUlL0srHg/L52BGR4RR11D38PCkHIADAr38vSCsX2cHK9HCtPYhLA9GpxBvLDBP9pVVegkDQqSR6hNnPjf1zPN3MtP/BWmH8wAAjfU60WYd1E51KagonZm40jpmJDvFKT0+nkuqPknGWz/OZM9i1teqLTPucKQcghMMp3LpZ4eF3zPpBAzx/ICsp9QjGxH/7TbdMNGBHdSBFLH1rgEpKWmCP1V8YRhsmEhhUdM6rcHpxeqiZN/6F1mVS09OppObj5lmSx+QF2cqa5lH+6GF3qcWUAxCzsuLlogWCpaB4OMd7Sl37yaliJVobanpijkHBdhPpIhS9l04lvd5uMtpKG0PHUk9rjJX2t32mkjoCxD6kPox42NNA1KNeKDE9wkz6mPyfEvOgfD54AGJ0j9k/ygGo7nlerpItaLfnvpPqBH2ixSkAOpX4cptx/GyDesldiEKCbH9KfBJkPIrcuo6dFUEr3EdfUi9A+xuxVj2pMZy421W/NrQD470l3Dzfz/kPJVLr9IIVgc3fvravK9T0TCkAgeJ/L2QqbwSDX8r5syZIB4hOReusgNG6v0M6bgdJED/6hLsrDPsTUT3k0Ven+GAHHIg+53aA0XnUj6yDKq853PzNgjE4Acr0oJTevdPmEaCm6PCzpQSA0BGMkKM4iwZ/soK54xqOCU7rEZZQUzgxxFv/wUoxk2lExSwphmf8Es/MN3Q00aH5GzAlzLuQdHvOJuNjXvolhzo2v1rCzT4HSnSOFiqWTHe3zyHHoO4wh1UJADHKyt5u2iBUBIqfFi5uN7FQSIT0SFLuZuOjXvq42u3iqj/BBzIjSRcWGuF0uObfyIxCZzTvoxigNlNHz2dEkloiSN+CBuAvluf+fvSfP9Va+fAypwSAGt69fa7UITB+KX8OHNp83FySbOiRpIwNxktG6rVEoCu/SErWafHEtHVGBzz0K46Y4myv0amkX1v74gco092t+NLFng8QAKDy8aMspXYh8kv5e9DAjmRDvLDQYMFQvR8HTFs6MkGUSBKdSny902Svmz6/1xs/vmU7HDockxckLGfmDEjt90hQWAMBgE7AkNqmECwUnOFMD9cfG/pLB4h/9f4Ko51T9fM2mcjq7So3UoW7TPZS9N/sMOnQU1HoFWU7HPGMyWNFlO1BqXj8UM1NaUUBAjD0KnA59s3KCmRNm/pra18hAYg9bQpHjaH1zoQby4yYvEXvxCZTVmTBNpMgZ8LbnSZy2F7lu/rg7EvEivHdxvVQi1p7CCkGEACM0pIcL0/sg5UVyPVxqdxjj1PqLVRi5THTxSP0omYatKBte+H2Gs7nSE9Gp6JLIG6cRChH7R55rK6KXX2yvabIVES5s2fV5OaosyWkEEAAgIpHD3OUMQdDqFjz/ZwbQv6s7SJdtPwVFJsiiMemGYT7GBQfJMqhHqS/Al2o5aDpMW/9F1vQhaTkA6hyd+8cb9kAyvR0/xYdiTClz5DsSsAUBej9zh1K9QFqHQ57M38s/vGENtkTa0OJlxYbbnXRz9hghI6YKkkVoQ2oQ6b73fXT0GXI5H9s1R773OmoG4lMx6uVgS3//deVjEh9t0IAcZqacqZ7yVQceBKnU9y+rB7ShoVs9VFzBPHNDpMNEwgn53YwvsFHAce/xPIjpmudCflbTPjePzhuQSETPX7vs8ub0bFfolARZXq6Vzx6gE7DVvhPKglyXlQIoPp375TrA8Qvu3SKW80BG/kA4ldnNSGm26YQ9rjpN4k4DbZEEJvCSTVhqAvs130mXzo6PgabrJ9ISF5t9POAafFBhY5PW2ySPMbdmTxJ1iNjRWBZSYkiR1VFRX1dHYPBgJS9yqcCAAHw6+K/Sm/AZ7i75U53ocs4pCBKW8Nx4tn5BmvGEVLWGPOX5myhEn/y/KaXjNQbYq7d2xB1H7MhdHBYE7SsCFq2Bug2HYofdvradgQdWQ9bgnYfopEDyVjuw9HMZLCtldck56P7dr/IzVHiFpzyAwQzmej6UTLW6HjSf5XsjywKivSY19tMD0/TP+qlX3rINH+b8byhuvaGYva1EPTo6KlhbPfFkU59QvbvraqslLPSan+b/AAxK8rfBa3FA4RMabKmTW0Ks1Ce/UusDTW9udzI3VF3kJkOto5CT6UE53fZGetvWbuKzWa3h0GeM/kBqn/18vmCeTLBgSfxh2UjBFf3la5g8FylU0n/HTAdZt7OcQxnQffgZGSCdnRYCKzwukRyAgQQpPT2rSxldyFmerqW7XDAgwX+NA3HicGuBGscO3z1YFzEflofolFB/gt51I7APXICBDEYX6OjlOsEjfpBe7mX7+6HH44OU9KpaKt+Sm9dsSX4l0eSCdobVwYquCOnnACxa2vfblyPp0qSKc3LpfNrIsZ3iAX+BHQq8U6gEVEb3VFVc4iWgOvYkeVlpQIKReagnAC1fP+W5zdTJjjwJC4M3tlybYnghlz4WRGbkk4lXlxkaMbbkle0+DQxYwc6KViLyQlQZVqq0n2AMj0o3+NiOel7GVES/cjEUiIlsoVKPDffEJu8rCFGqASGO9hnPH0is9oRuEEegAAARWGheDSKTGmyvKaV3LgO5ccwoi2lMCHTJQ1AQsQInQ7rY/csNVWAB5mD8gCEQFBn+LA+9/drKiqCv9xjxAgsUI/D3VgKUhqAhIgROu0CgAAATV++ZCt7Ek+GB+V1wDKYwYB/5TJj5R8IE4JJA5AQMUKnXQNQ6fVrnWEAfTq4H939pPoLK95OiAO5TzUACREjdNoVACHIh+CdSvcByvSglD9EnRaQxnIkAa8vYodgaQASIkbotAsAYtfUvFw4XybrGE/iHG8v/jw6wKhHTvXukAycCTQACREjdNoFANW9etkZPUCvVwTyGwCAQ4dPagBSUbenygECoPTq1SzvaXiUCv40WZ7u3+Pj+AuaAIjNOjEIp4LpMJlGAwmpHKFTVQMEMxhfwkKV7kSWNc2j9kVe64o4AGHf8O2QDJwJNAAJESN0qmqAmFVV77dvUzpAz+fMpv8qbq3CAOAkrVFWZ7QGICFihE5VDVBz0ef8xYvw1004U77ZvJFVU40BBGUf0gAkJOlOOlU1QNUZGUpfByjD3e2/kyfgNu84AAD07gIrSniJeJx1llAyjQaSTp5qAUKQn+fPKd0HKMfHu+rRQ2wMBgWoOAuK0QCkioaYSgECMPR+9y6ctRL+ZM/nzal78VwQIKTmCxSnAahnAYQqhqam5/Pm4CcDZ8rXa9cIbviIdkY3FP9vG3ahyki+U00Vpi5VGG8MtShX6WOo7m6fD+zH1A+Xy0VXM2HUMjQ2kEpcKFVahf26cknpBhC6U9+5M4IAoQxBTKaSPDo0GkhdNBCXyy3cshlnrYQ/WdY0j4b374UA4nK5TFrHmw3gqdQ0AKkLQFBzU7aPN34ycKYsmD8Xa8ALYsS66IqHjw7TaABSD4AAaPz0UekGUKa727tdO8Qu4cZ+ENAhHHgSaABSD4C43IqHDzrDiey3OI9utMWXuR8PHx2m0QCkHgAB8D0mSulOZHmzfDmNjYI1Fz8MAGA/j1PKoplqCBCZoI0evD3qpUtXBVdV1AqDmczCbVtwmjX4k71ZuwbhcEQB4nK5UOFlOXb4FlVIagWQhW4vK33t8UMGLfabuXj2rAnDh5hp/9O1U45UBBCjvPz1mlX4ycCTMsvT/cfpk0DC5H7k20O2MkYz1AQgC91ew/rY7t6y6cunjwgCAwRBD4BUlJWGHtg/ZoATtvaKCrSO4CtUBFBD4bsXSt/NabpXTWaG2F2x0M7oH6k9BiAL3V7ekydmpCbDMMTlgrZPBrxOUwBBnBc52TOmugjKVWVhFQH0++mTnJm+ePQK/jQvFi1o/CCmB4jfGQ3/TFeKR4c6aKApo0e8fvmCxw0QV1+jJJUU/5w0fIjKuMFepAqAEBguuXZF6V4chTt3sKpbfYBEixUpL2DSHEVtGlljuhyg3iYGCdGRCIyIfuOfGFTlIi/zcu3bdrDHBNzZAVUABDMY32OjlduGz/R0/5EQL2VrWaT6E/PUMFlxEU3f5QBNGj6kqrwcrbk6+AN1tTXL5/h1NjFCz1cFQOz6+g97gpXrxprj411x756UIkVqvjDPK2Gdl64FiEzQXrFwPs5VwBAEpkVFWhvqCcm4U09VARCrqqpgRQB+4wZPyjx/v8bPn6UABBqKmVc8RDWKrDFdC5AVQftcYqIURdu+BMDl8+f6kIw7lRihh6sCoObv35U+CvZ29UogdcFipOU35+5CxfsSuxYga32d6xcviB2raY8O7wyAm1cu9bUgCsm4U09VAVB1VqZy668Md7fPYaHSixWwm+GUDcwoRd3KuhYgMkE7MuSo9C/FSAIA/Hv2TG+iUacSI/TwTgcIAFB88V/lWtBZHpSa522zwLDyEwpwGMizrd0dIEs9rVkebhwJve3tvxjAEBQZeoys37qFtJCkO+lUFQB9OLBPiRoo04OSP3sWwma1Lz6RM4gFpe/sAQCNHzzg5/dveFphFaUl010mdBIokh7b+QDBcMHypUocRs30oLzfurljuxKBoMx9sprMoum7tgqz1NOyMdQ7uGsHg06XWpGhHUGXz521NiRIknQnxXcyQACw62qVux9PprtbybWrbd35IooHiwAIlH2kuxvRfKkP62N3+9pVgKCb7WDf1xbgD2ggaUmPhvS26SRKpDy2kwHichveF+YqdT+5HB/vFlSld/QHACc3TPHlWrtcA/GF149sfiYmEuJwAEB41RnKDTpogyBsFuvy+XNDe9tKEXPnXepcgAAApbduKteR/tXypawqHNt8AMB5GceIJovWSjLFqAlAlnpa5no6szwoz1KSqirL62pr6utqfldVPs/ODJznb22g0s5DQRw7FyAul/tFqauxZnpQisJCcG5lDb07z4hTdK079QHIUg/dJchCT3uYg73nJGcvlwmj+jlYEbR7sj8QAkEFq5XpBpTt5Vl280bHFjSvfoMKEhkxVjLpG9HEagWQ4E9fTcKdq4FY1b/zlDoVNddv5u/MjI7MH951gEA5R3tAM15NQJGUjc4FqPHjhxf+fnjGtnCmebUioOXHD1wAwWwkc48GIEmCV1Z85wL0Oy01x9cHJxx4kn3av1eSE7QQVYDZCCWv1QCkLFAkPaczAQKg9PIlJS6HiM5iPnVSCBRJp6DhJ/syRdSmkTVGYwNJQocf34kAIRz2l4jjSuyDzpnmUffqpbjONDEUIeWvmDQl7DynAajLAOI0NHzat1eJo2DPZ8+C6XQxsIiLgovusGMUHYpnRJI0AHUZQPRfv16vU+aeuoU7t+NUP1wul/N0l+IGkAYg6fRY6ml1YhXW+OH98wVKW5EeNYDOn0WYjNYVgMRpHSwOwDAzcaCs5o7Y9BoNJJ2hTgSoNjdHuY6IudM8CpYt+hZDrcvLZpaVQk1NYmcVokOODcVKmRSm0UDS6elMDYQgZbduKXcUDG3ne1AyPShZnu4FyxYVHTtcduNqXV4Os7wUgQQmOAMAfbzGn9fMjCIpeDAiiefmG5jravZMFb/iYmdpIASCvsfHKdcRUaijCCXJyzNv7uw361Z/Ox5S9fgBs+wX6uaBIJz7SxhR5h+DTRL9Dam+BoocEb6GB+YOnThscIe/xb8zQacBxGa/37FdiW14IXqETlGYPCg5Pl7v1q+uvHuNEd/3fbCJs62OhTLWCfTzcPOf5v538tHhV3cWQDCLVRCwTEjMqjnN9KBke1OuzLI30xGvdTssFKEEc7zc53pPE4rUnPJLoNMAYjA6Y1dU/AjemOTsQTa3Voa3w5xpGoAk/hQ7CyCEzX6h1HF4/OjwU6ZTXB9McYkePWyGjaUiGJnr9Eq6f9eBZKJROWJLYIidddazp1gHihwB8bs2Awh6E6jk2ahyMJROcc10d0uaOmX3kIHjzU376OtaE7TFFoSkSA1AkkqGHz/E3jrr2TM5uMFukQAQDH/YHaz8Zry7m6wYZbi78TF64jb17IRxm/r3dSeb9TPSs9CVqJYFi0wDkGBpiIaH97F7kZOD0SBHQAJACFJ86aKaACTIXDrF9eEUl7Pjx+wc2H+ShakNQUu6S2jPA0i5a5mNG+j0tUjaIgUdIiUeIC6X21BYmDNLyYtKCaKgSDid4vqM4vqUMvXKxPEr+vZ2NNY31xHfVdgdASK3dV7wfxsWur34Meg6edYkz6EODiYE6T8bUU0jKcZjwjh6S0uHlEhJIBEgdn1dZ2zvrQg3ovemU1yz3N2euk6JGz3Sz4481MSwd/upwXyAHLuJEW2h22uAufH0EU7TRziNtDUfbGm6dppzQtCcANdR/UhG3sP7llwJ4aQm/Lh4dLHLCGt92cxBUYbIBO2E6Cj8I9xiMZIIEBeA6oz0nJkzRMWmnjHpFNfbLhNDRg8Pmjra2cGKjM6C6KX+GsjZwergAs9ds11H21v0NiakhGxoehDT9CDmw5kDwf5uNXcjOSkJzGTazT2BazzGlV8PYyfT2Cm0kqsh2/2m/G/5GFEs8MdMGDqouqpKLBb4IyUDxOUiLNbXSKoaWkKSCE6nuL6Y61t9JfTHlZDkkPUBrqMdTQ3u37rZ18wUf7GqMqWtoe7ZLYsYj+OaH8TkRG3zGzuQnXaCnUzjpCRwUhIubFt8bfcKTgqNnUxreRR7e//Kt6f2spLiUYaSaXX3ImlBc+wMdeXLcH8ri5fP8xRUP1wuVxpAXC4X4bDfbduS1Qm7PEmCQMH4/PkzWY/j2Mk0VjINSk34fYd6J3TblAGOtoYydwHIJxiZ7rIiaJ/YMB9j4sfFo7V3qHyA2Mm0ypvHV7qPr7lN5aQksJNpzKT414m7357cixHGeBx3acfSvkRDmV5KJmgPtrNKun9PcXo6BogLAKe+vijkWM6M6QqKVjW3v1mxgNP2C0bLPSWBk5rAeBz/JnH3sSXeXsOdBpNNybwObgvdXpIOmeShYGK/sQNr7qD1FCclITdmxyq3MVBqIv+U/jg2auWsh4fXspLi+QxV3Dg+bajjfxeP8BOwk2mMx3G39q4YbmOGJxtW+jpD7K0XzZqRl5UFSV3gSzlVWOtTAOA0NJTdu/tiwTz1r86+H9iE/UD5pSz4b+XN8OyorbFrZm/xdVnlMW751FHCh+uoAO8pKxbMXblwnmqOzYFL65JO8DPZ9DB2XB9y1a2IViWUklCQELxt5uTmhzFtH0XLpG7Z6ju57m5ka5pkGisp/kXszrV+06RneOva1YkxUTkZ6fX1dfj56DBlB1UYdj+AYXZN9ff4uDy/mShGHhTVaBSZ3pJOca0+d6itrNHftNiDb3M03o8WezDy79GbmxgMBlMlB4NBh7/kcVq1Du3f7YsTg+a2nSY0P4zZ4D3hdUKwIC5Rq/yuBi/nqyW+ZuKkJLQ8PUsv/4/BoIvNNoPBYDGZOJf7xISOJ4AXIPRZvNVJWL9/l968Ubhl08tFC3Jm+WZN98r0dM90d8v0oCjRA18mbrDEz1ynsB7FiYUGfyT8/DpoUeZvtEMxAEYT8uwUH4WmBzELJgytbavU2Mm0V7RdM0b2Z7TVy+xkWunV0I0+k76eF/6pwC9uAaZCnTodZlU0gSwAYXej+zFxGGWlNXm5Zbdu/ncioeh4aNGhAx93B7/ZEPQqcHn+wgW5fjOzpnmgYLUdrWLuTNWV5UkRNIDwQyOYEko7iRRlg5oSLqOZi25O0Ol/AIaRl3f5eWCnJJzetCA3ehuWJcbj+LWe45KPBmEx7GTa89gdhxZ7Y9YS/xKcdwMwmzs9u+1fIBdA7R+BQBDMYHCamjgNDcyqSkZJCf3nj6aizw1vCqoz0ktv3viemPDp6OE3Wza9XhHwasG8XF+fTE/33Gke2Z7uyq0NXwcu6rD+wsQgJQA9OQWln0fyb8GvH4HiN6ChigtxUAUsZoWo9mUh7xny+weS9S/09CT09GRj8on6pEROamv9y06m/bwScnrTAkFc2E9OleU+RnIuQWmt9hP05CTyNQ+ohHjBr1QCQIKPkxbmLejPRRCY3sIoK214/77q6ZPiixd+xER/Ct75atnSHB5Y2Z7uuV6e2Z7uGZ7umZ7uGR7uWA0lPZDp7vYreodSABJiC844Az07g7xNQko/cVl0Lm+xMaXDBFh0pKYEqS0DHBby+yeUcYGfDSg1EXl2Cv6WDz48QTLOoaDkXgOV3wACAxYdFGXD6WehJyfhT5kAYksr/865pkKABD+g7deMzsFo+1kjHA67rq7l54+GD++rs7NKb938dfbMt0jq+z3B77dsKlwfVLAy8MXihXlz/XNm+mZ5T0NtL54vLN/8Sneb2nAtAko7AaUmoj/WtsawEA2KnEJpiVDaCeTFDeRTJij7DBqqQHMdYLVwYZ5+EvxAecNYaaCG0Y/XoCgb+e8lZpOhm0RBbIxdfmIAcQCnC9Dhf2IXAdRh+fIJ4yktmM2CWprZdXWMsrKmL1/q37yuycmuSkkuu3Prx5nT36IiPx898m7bljerV3K+vUaK3yJfcpEPz+BXD5DnN+Dsi1DaSZSqtNbOFUUAwu5Fn5aaCKWfhbIvIy/vIe+fIF9yQdknUPkdqfiKVHwDFd9A1Xdu1XdQXYziJd9fWyHId7dq7lJXgHB8PUAQhMOBmUyITocaGzl1dXwzBcAQgNiAzUA1PLMZNNeC6mL451v4XSqSc5EHU6vdgAGhaCA1AVV4T05Bz85wnp5mp53iPDkNPUUPOP0c8j0f0xk4PqubJenGAMla0vzqEjTVIL8KkdcPoPTzcPo5TtpJRekR7W3i27+pidDTU3D6OfjtI1mz2o3S/0UA8aWC2g08qwvVT7WlyK93yPs0+OUdOPNffmWHkyfU0mqzt9Abn52BMy7A2ZfhvJvIm0dIYSryJQ+UfgT1FapvGamSv78OIDGFC3PQmq7xN6j8hnzNQ17egdPPofZyakLbgbICP0FtKTjzAvLiBpx/G379CP6chXx/CX69B79/gLoy0FiFVpf0RrT2hNiYOSzmjT0oSgPQH2GiizgjCBeB0YZ0bSlSlAO/eQwX5SIlH8DvYqSpFlVaHDaaoPVAAAK3tur/PObvCmkA+rvkrfSv1QCk9CL9ux74/wOS24U4Wmo4wQAAAABJRU5ErkJggg==;" vertex="1" parent="1">
          <mxGeometry x="504.97" y="585" width="80.07" height="93" as="geometry" />
        </mxCell>
        <mxCell id="_nvLQFHXTz9P7ObtZMR7-6" value="" style="shape=image;verticalLabelPosition=bottom;labelBackgroundColor=light-dark(#ffd4d7, #ededed);verticalAlign=top;aspect=fixed;imageAspect=0;image=data:image/png,iVBORw0KGgoAAAANSUhEUgAAAMIAAADICAIAAAA1GKkAAAAgAElEQVR4Ae2dh1vbOtfAv3/xOhtCgAQSkkBCKHuWTdl7j7D33nu2pRMoq4VSKGXvGbL1vY7BcRxnQnu5T5MnD8iybMvSL0dH0tHR/wHHx1ECjy6B/3v0HRw3ACqVant7+82bNz3wp3twcLC3t/ft27ebm5symexvKCAHRo+qZbVavbKy0tjYmJiYKBKJWCwWm82Oi4tNTEwIDAyMj4+XSqXj4+MbGxsymUyr1T7qYc/4YgdG9lfO2dlZS0tLeHg4k8kkP3zodLpYLCosLMjMzGCz3RkMhkAgiI6OzsvLq6+vHx4e/vDhw/r6+vHxsUajsf/Zz+xKB0Z2VsjS0lJKSoqbm9sDPwb/fXx8mpoacnKynZ2dkRMUCsXZ2dnLy+vFixcRERGJiYm5ubl1dXX9/f3v37/f3Ny8urqyMyvP4DIHRvZUwvj4eFBQEIVCQdmhUChOTk5YaMLCQnt6uuPiYrHJ0PRkMplCobi4uPB4PIlEEh4enpiYWFBQ0NLSMjU1tba2dn19/R9qBB0Y2YxRV1eXUChEgXB2dk5PT6utre7u7hweHmpqavTx8SaTyQwGo6WlqaKiHNvkoVcRBuh0OpvNFgqFAQEBcXFxpaWlExMTh4eHz7/5c2BkG0ZdXV08Hg8rYGg0mpeXl6+vr7+/f1hYaHl5WWWl1N3dnUwmx8XFtrQ0+/v7E0JjPpJCoTCZTD6fHxYW1tTUdHBw8JyFkwMjGzDq7e318vLCMoRDgUKhuLm5ZWdnZmdn0Wg0JpPZ1dWRnPwKl8ymQ+SekZGRc3NzSqXShuz+waQOjKwt7NevX/v4+OAYcnZ2Dg0NychIy8zMCAkJQc6yWKzExITw8HAymdzV1ZmRkY67yiaMkMQ0Go3P58/MzCgUCmtz/AfTOTCyqrA3NjaCg4OpVCpKAIVCKSoqbGtrbWiob2ioa2lpHh0drqmpRtJwuVyhUECj0draWlJTU9CrHhnw8PCYm5tTq9VWZfoPJnJgZLmw5XJ5QkICliGEBicnJyaT6fzw4XA4gYGBAoGATCZTqVRXphPLmRHg/4LH4z6SHuzlXl5eGxsbz01PcmBkGaOSkhK0J4+tUeMwnUb1F3A6siN/dOZcjZfdTJQdDxV978j+VJeSECB0otOML7EjJjg4+OzszHK+/2AKB0YWCvv9+/e+vr7GlU2hUFgslovL/fg1lULx47u/libeTVUoZ6TG3+xICYOmbxONb2hTTG1t7bNStx0YmcNIJpOlpqZiK5hKpTKZzPLysq2tjbu7m729nZ6eLk83ZmtG+M1EmTE9aExmuBjFyMnJCXtP+8JbW1vmsv5nzzkwMlneWq22oaGBxWKh1ezk5JSc/Gp1dam5uTE0NITBYFApFAnPfbk5A8XFVCArwpdBoyJdtri4WGNNC32KlYH09PTno2s7MDKJ0dHR0atX+iEfKpWal5ebnZ2JyhIalRIu5h4PFZlCBxtfGh/AdKK7u7tRqdSpqQkrlS0zSFEolJ2dHZO5/7MnHBgRl7dWq62vr/fw4DAYDKQuXVxcaDS9jkyhkCN9eRejpVhWzITHS+N57i5JSYkslsvExJi3Nzxh8shPTU0Nce7/eKwDI+IiPzo6Sk9PT0iIl0gI9GsymfyCzz4bKTbDDe7U0WBRoNAjMjLSw8MjODhYKq14fLvGYrGeiVmcAyNijHp7e0UiH39/f2R2DCc2BBzWdk8eDhSLh8nBPnQaNTw8jMFgzM9/RkaYcHe29XB5eZn4Bf5srAMjgvJWKBSVlZU5OdnR0dHG9UqjUsZL4y1CY5xguCjW0xU2B+Dz+cnJrzo62tAW0/gpVsaUl5cTvMAfj3JgRFDk6+vrsbGx7e1teXm5xtUZ688337c3BgiJuZ0oiw8QODs5JSQkMJnMiYmx1NTkRzZtXl5ez2EAyYERAUYDAwMsFqu2tjotzWDQCEGqPTvyc13qQkPadrfN7dpraRLP3SU0NCQ+Pk4oFI6Pj718GfWYiVsGg3FwcEDwDn82yoERvry1Wm1bWxuNRquoKE9KSjSWRr48dz8vdoCQkxXhu96ejZU9iumK46GiufrU8dL4/oLovvzooaLY19LE7x3ZiABTzEhrU0JcnOhpaanJya/i4mL7+3sjIyPsJolOp8/OzuLf4Y8fOzDCF7lGo2ltbWUymTU11cYYeboxX/p5Rft5+Xi60aiU9DCxfFo/+/GrN78yKShQyGG7ONFpVBqVwmTQBWxWYqCwLz/6eKhIMS09HS7Oe+lHp1EzM9MzMzNKS0taW5sTEuLpdLoxshZjqFRqcXEx/h3++LEDI3yRy+Xyuro6JpPZ2NiQkpKMq8jS+IDl5ozV1szpisTsSF+uG/N2Uj8HstiUHiXxinnBz4mUlMYFlMYF5L30exXsE+ztESDgSBODDgYKFTPS7Z68lBDYdCklJbmoqLC9va2zsyM/P8/Dg4N7nMVDCoUiFovv7u7wr/Fnjx0Y4cv78vKyrKyMTqe3trZkZWXiKvJTbYr8YfJ1r6+gKT3salw/Anmia9G+tmbt9xecj5acj5YcDRZudubO1aeOFMdJE4OGi2OvxmHsNjpyIiU8KhXu/xcVFY6MDH3+/KGlpSkiItzW7puLi8v79+/xr/Fnjx0Y4cv78vKyvLycQqF0dXUUFMASAjtx8bkuFe2mKWakZyPF+/0FWPXITPhwoHCpOR29fLk543/zcRQKhcv1TE5+VV9ft7y8uLz8pampMSoq0tPTAztojqMZe0ilUiMjIz99+vQvGkY6MMJjpFAoGhoayGRyT09XYWFBUVFhQIDeJj/Sl5ceJurMjrzWCRXZVPl6e5YZdHCnsIqUckb6vjrZjQlPtuhsZL1iY2PKykq7ujp6erqGhgaGhgba29tqaqpLS0sKCwsKC/Pz8nJTUpIjIyNZLBcsSXQ6PSQkpKCgoK+vb35+fn9//w8j5cAIj5FWq21tbSWTyc3NTTk52cPDg/HxcWidebg6UymU3IyUzoqclZasu6nyvT4DafSzO7c1M6LqVXBrZsRQUey76ldLzekbHTk7vfm7fQXfO3K+NKbdTpYjeN1NlrdnRVCp+vVuTk5OAgE/ODgoNjY2JSU5PR228k5PT0tMjA8PDwsMDPT19RUIBLiGj0KhcDicqKgoPp/v7+8fFRWVlZXV3t6+vr7+Z0aVHBgRYNTW1kYmkxMSEhITE0pKigMC/JEOuSuTwXNnUimUz58/bn1bPPrQdzJcfI3RjZQz0vPRkpaMcA7LmcNyDhQLY8MC4sP8X0UE5CZGVaWGjxTHbXXnotqVckZ6MFAYJeGhmGIDFAqFwaAzmUwXF6aTk5P5gUpnZ+fIyIjS0hKJROLu7h4YGPjihV9wcHBbW9vJyQn+JZ/62IERQYkODg6ydJ+cnJwo3YfNZpPJ5IbkoJcSXt5Lv6uFIdV8991sw2hJnALT4UdkzEBBDE0nYMrKStfXv33//m198eP6eMtmT+HhYCHOPFI+VTFXn8p0sqe3j2POxcUlPDystra6ubkpMTEhMzMjIyPdz8+vtrb2d5PkwIgAo/X19ZiYGDKZ3N3dmZKSzGKx6HS6C4P8vd5ttz3kaLBA8aZaOSM9HCjc7s7FaT/KGakOI6r/ixefZ6c1p1vqH2/Vc63KtwSWtci1ZyPFeS8lWCboNCrP3cXbw5XJ0JumYBOYCtPpdD6fn5KS0tnZkZOTnZycnJaWJhaLhoeHf6u25MCIACNkapZMJufkZIeEhCB11p1GlfUzwKircgJGRzZVPlefglOZESz2+gvm6lN/9hbcvK5Sv83QTvpqxz20YxztuLd6Ml45ox9nQtLLpytWWjI9WLDTCAqFEiDgjJfGb/fk7fTmf6xNifUX0DALm0wBhI13dnaOi4trbW2Ji4tNT0+LioqMjo7+8eMHwas+UZQDI4KCRGzWyGQyk8kMDg7icOAWbaWGrh1hgFGGZsRHOVM+VBSLdt1xAkkxXSGfqlBMF6snQsAoC4w6gVH4Ql2ApZ4IMSbpYgzWqKgUSqjIc60963ayXDEtlU9LZZNwTzDaz0uvhGN5MR2m0+lZWZnV1VVhYaEREeFcLndoaOj3CSQHRgQYAQA6OjqQ4aKgoEBPTw8fDvlnEx2lQT5ZYtHuUT0ZDUZdHi5BMEL+OqumkpUz+ikU5YxUMSPd6c2vTwl9W5mkmK64HCs96C9AxhTk0xUViYG2tm5kMtnd3S07OysuLjY4OEgoFGZkZOzv7xO/7aNjHRgRF+H79+/9/PyQVoZCoRRGUM66UIwYx4N5aKcdJ4ruD6fzNeN+RAzBJGlH2cYCSTEjvZuqQFrJ5eYMhCfkbvWpoa664SXT0of4THLyq+TkV6Ghod7e3kwm88OHD7/JOYkDI2KMfvz4ERsbi1ZORyr1FlaM7r/KmdIfnTnKGal8uuJosEhhtDBNNZmkHWWj6Y0DyulCYv50t/rZnfuxNvlk+H6xQFVSMGFXrqiocHh48PPnD11dHVhfOWi2RSJRaGiIWCxydXUlk8lVVVUXFxfEL/y4WAdGxOV3cHCAXaE2mEWVD9wzpB1iKWfKKpOCrsZLFdPSk+GitTb8QLZ6MkE75mZMDxqjnDYYtMQiJZsq3+3LnypPWGxMV87AFgGpoSIzliQ6NShjbW01NTUFl4xKpbq7u6MOlrhc7urq6u9YuO3AiBijvb295GT99P5AFu3uASPVSBSi2RwNmlxapJrK0IwLUGiMAkzlTAkWHTSsmK5Yb89+W/XqZ3fudnfe3VRFe1YER9eJQ2WMcQCZ4l1cXAgKCjQ+izbNZDJZKpWen58Tv/MjYh0YERfe0tJSWFgYmUym0+lUKrX1ldtNHwuMMrWj7srpYp1mg8ymlStn9DP8KA3KmXL1RDgYdTYCCO6v6Tpr9/MhmEvggaXzsbLNnvzrCbindjcFDwSYGuPG4cJisaTSiqGhQZxAQpKxWCwej+ek+4yPjz/5ehIHRsQYDQwMcDiw9Y+fn4TNZmdFiA+7I9RjIcqJHOV0sXoyRj2ZcNSfqp5MUE+Gq6bzlTN4LHQCyceIJGftGI9YMXpdpfzYqloZUX2dVM13K97W7vTmZ0f60q0eNAoIeDE7+wbJNg4yGo2WmJjg7S1EZt8mJiYuLy+fsHVzYESAkUajqa2tRfzLiMVid3c3Py82olMrZ6TqibCHoSBXnbBx0o7x1JOvlNNFuG68aipTM+6nHfOA9aQxN+0YRzMuUU7n4ZLBAul1pWquS3O+A7QqANTau4vTL+PS5FCb+vkCAb+trRVxz4XDiEwm5+fnpaen+fqKPT093N3da2trt7e3VSoVwfvbHuXAiKDMDg4OMjNhgzVvb28PDw8KhfI/i9jVlkykAZIPcS+76Rfd9PMu2kUX7aKbftFFv+hmXg4EXI1kG02xlaqm0tWTserJWNVUunE//75Rm61X//oCgBr9fvu6/DIqwpgGMzHOzs6vXr2qra0mdLPMZruXlZXW19empaVKJL5ubm5hYWFv3rx5kr6bAyM8RiqVqqenB+khFxcXRUTc1+VS072/h9PemG9VtJVKylIFZaWSslpFXa2kfq2irTewtzte4mZecaqPqUPVx1btzTHKEADqs7OTwsICM9AQnuLz+ZWVFfHxcVgPFriUNBotNDTk5csoFxcXJpNZXV29t7eHLwUbjx0YGRSYVqvd2NiIj48nk8lcLjcjI10sFiPV8L46+QGRiqMOT+3DGBI8nDjipBjykI3G3U3hNSRT3ODj3zdqjr5jMdra2khMTMARYM2hm5tbaGgIn+9FJpNdXV05HDahFWVAgD+ybJdCoWRkZOzu7hoUhI0HDowMCuzg4CAvL49CoVCp1Pz8vPj4ONTKpzwhEF20/6MlcaeVfdJJP+9mXPa4yQZ9bkfi8GQYjUmaS/C66m6+7/xoR61WaLWq8/PTlpYmQmXZGpLQNHw+PyYmOjr6pbe30HjlCSJxkd5oXl7eY7YJcGCkx+jo6KisrAwZrAsICKipqQ4NvXcuCwsnd5efGLOQ1Ya4zZaAX+2BB93RVyPwiPYjv/tDpQ3l+X19PcPDQ1JpOeKjHQXCOIDybXwKjaHRaH5+kpyc7KKiwoSEeDabTTgcgMitsbExfVnYGHJgdF9gx8fH5eXlLi6wjTOX69nQUF9QkM9kMrHlvtqSqZjW4yJ/mAJ7JEDI5Wvt2Vx3Jp0OmztiH4oygQ3QaDSRSISNMRNmMBhRUZG1tdUlJcVeXga+4dGraDRadHS03eNJDoxgjM7OzqqqqhC1lMViFRYWNDc3JiTEc7kGTmTrUkIuxwgHG/VsWY+U7MEiG7nka2sm4cQZWtPYwMuXLyMjbevHiUSiurra6uoqT09P9FbYPh2fz7fbJsmBEbi6umpqakIc0LBYrMzMjLa2lpSU5MDAQGwpw1LKjYkz4LceGlzKnd68zS695aR8GjalpWL2skFrmjAwNjZih6MtoVDQ3d2FSFnktgUFeej9PTw83rx5Y2Nrdp/8b8dIqVS+f/8ekTocDicrK1MqrUhIiA8KCiLUcKcrTPqaxYFi6vBmomyqPKE9K+IAs8DtZqJspFhvUIBWranA+vo3HOKmUuLig4ODZmffBAQEIKrV+/dvUdWbzWYPDw87MLKnBI6OjoKDg5Gy5vF4CQnxkZERYWEhXC7XWIelUqkBQs7ZCPGsqilu0HjZZPlCQ1phzIuEQOF8fSrWvORitKQ5A94cwpoPjUbb3t5CfSlbcwmahkqljowMFxTkIx4s5+Y+8fl85CybzbZby/6rpZFSqRwZGUGLWLcBSGhSUqKXF894rKWgIN/T05NCIXfnRmFXCKGUmAmcDBW9kSblRUkCBBwfT9cZWKQZjDCdjZRUvbqnGc2PqcD/1kYeHu7bJ43IZHJeXm5PTxfS20ckE/IgT0/Pjx8/2vNbBOCvxuj8/BwdXWSxWAkJ8ZmZGYRyKCUlOTMzHdHBee4uWxi1xhQ9d1MVe/0Fs1WvapOD4/wFPp5uTnQa1405VZ5gbMR9NlJSbTVG/5te/fVry5RTSlPwofHh4WETE6OILvj69TRq7yYQCH79+uXAyOYS2N/fR7rWbm5u6elpubnZHh4eaHGjAT6f39raLJFI0H64v4A9URa/31+A+HWQT1ecj5b86sn/0pg+WZ7QlhlRHOsf7y8IEHCEHJYrk4Gsi/Xluc9IE6+JvLBfjpW2Zlroebm6urJYLORW09OT1dVVaH7QrFoTCA0N6e/vRYRZdnYWohtRqdSIiAi7l9j+vdJIrVa/efMGWT8fERHR0dFuqpno6+tJTn6FW+/MdWPC/rL4bH8Bx1/A8fNii7luAg6L68Z0d3FiMujIike0XuP8BfMNabdEDClnpLeT5ZNl8AyMmY+/v7+fnwTJRkCA/69fW15exMttzdyETCanpCSXl5cio6zIOBmZTHZxcens7LT5h/hwwd+LkUKhKCoqIpPJQqGwt7fbywuehEI+yBggoh7FxsZUVUlRPfQhiQ3/3V0YdSkhP3WmjKZaQMWMdLEpHbuY3/gBEokkMTEBaVipVGp1ddXnzx/QCQ3j9KZi6upqw8LCcMofj8d7jPO/vxej/7mWioqKIpPJgYEB8/Of0AaCRqPl5eXk5uYg1TAyMpSSYqejTxqVkhjkPd+QdjlWamRAgh+x/Nqa5ep878qdkABnZ+eeni50uMjZ2bmoqHB1dTk3Nxe1tia8kEwmOzs7CwQCJFlWViaylhxNzGAwqqqqHrNo5K/GCNmPMTg4aH7+M1qmmZkZjY0NyK/c2dm5sbE+NDQUPWtlgMmgJQYKP9QkX4yWEK6sNRZLGx3ZPp7w+g0zn9HR4fT0NHS3CTqdzuNxi4uL3r17U1xchPXDhLuJh4dHUlIisrMbnU5HfzNIMi6X+8hF/n8vRnK5PCkpiUKhBAYGvH0LK0lkMlkk8pFKy1F32NHR0WlpKciqWSSBlX8LY17oJBBe5BjTg8acDBdXJgWZv79YLF5ZWYyICMeOaVGpVBcXl9TUlMHB/piYaBwiyA1FIp+iokJUkmGfQqVSR0dHH5QcO///vRgplcqmpiYKheLv7zcxMYqUbG5udm9vN1rKZWWlMTHR2DpDT5kPpIb67Pbmo4hYGZhvSGMyLLgWiY6O/v59raSkyMXFBUeMm5trTk52Tk42Lp5MJkdEhFdWVnh76/d9R/OfmJj4mOYM4e7vxUir1X779g0x2h8fhzGiUqkZGelNTbCrNeRTU1MdFxdnXCsP503+F3q4TpYnWEkPmuxnd15ioNDicn0u17OqSjoyMlReXoo2cEhWWCxWeHg4OhiG5q+gIL+8vMx4OEMsFl9eXtopgjCX/b0YAQAODg4oFIqfn2RmZopMJru5uWVkZKSk6HcYLioqjIuLRWed0FqxGKBQyA1poRbVahQgJKCYkX6qS+W5GTjks/gsXAJ3d3fcdpQMBqOzsz0rKxM3ZuHl5bW9vY2Bwf7gX43R+fm5l5cXh8NJS0tDrGazs7NevoS7b8gnPDwsOzsLZy7ycNLC/+pXwThTEBw0hIdX42W9eXEsFw8yhUkmWxRMFvKAnH75MqqqqhJrn0ShULy8vJaXl59qjdFfjZFCoRgYGEAWlepccLinpqZgPT06OTk1NTUi6x6tqjFMooqEQKyvY0JoCCNX2tvCwqZI7lUkp0AylU2mWNCWMM8kDkZFRb544Yc2zVQqVSQSzc3NPV4lQsXXX40RAGBnZwcdvKbRaAkJCUVFhdjaGB4eTEpKROsAe8p8OO+l3+GgOX8PhAwpZ6Tvmoc9Q64hCYBEJ5DnIImZQKZ7kymwE63Hf5ycnIKDgxcXF592g9G/HaPr6+vy8nKkeigUSmZmeltbC7a20tJSs7Iy3N3dsJHWhOP8BcYuIkyhg42faRxzCbiDMUK+4huI/5nkmk+m8clk23z44fLJZrNTU1M3NzefUA4hAulvxwgAsL297ePjg5R4XFxseXkZtvRpNFp7e2twcJCNAokS4iOcbzDYmAbLiqmwYlo6WjNO9VPpMUJg8lVAbvUk5yQSI4hM9SSTbWvpnJyc/Pz8mpqaTk5OnkofQls08JcbiiAFcXd3Nzg4iExScjhsoVCAxYhMJqempmRmptswe0VlkZzC/P1KPzbUmsLFVPz5aHVDwSyeIYQk9gAk2Ia8VknsHpJLAck5nsQIJFG9yBRzPTsajSYQCLKysubm5uRyObbunzDskEZwYR4dHeXm5iKzlcZSh0KhVFSU+/n5WR6HpDiRGP4k9ypI8C0g6tfnll5TuJiK/9HTGpewQYyRezck3IYk2vuz3icQbxHiDJHc6kguWTBVThEkegCZLiFTBWQqj0zlObMkgaHp9c2jaxunVzdatfoJyTG4lQMjuDi0Wu329nZCQoIxQ4hkEgoF0dEvzc2AUmgkujfJrQjy+gSJZZAERMX9XO3oMIWLqfiF9j5+2DkxRvx5SLgF+Rq1dxIAie8g4S7E/wbxPpN4sySPMRJniMQZchHPhmceZddqi5pBVTfoGTt/92Hr58+9p/IAgaLkwOi+KDQazdraWnx8PM6CAm3g/P1fmJz7pLJIrEyINwWJzlACctKXDwbqTOFiKv59yxAzQI7exCAguoBBEWO0b1QNtyYg3KcLF4Thy0m5S1/Xdh09NfQ38MQBtVq9vr6elZVlxo8CStVDgEqm+5A8OiGfXWyVe4Rc9UmnZZOVpnAhjL+ZqBqQTpL9NNhbGYQ545DIhKwyT5LPCeT5EeL/gHyVkOgqrWDx8kr5hMXnkEYGhanVand2dhobG7Fjvg/EGP0nUUlO4SSvWbhuMLVI8VNnpH3dGWgkZMVM5M5AU3ryCvZW+LB7O+S9q1ePMA/Fp8SeEisg7heIvw75KpBkTi9OZhc0ao3Buz/mwIERQeldXl6+f/8+Px9eCmLEDhxBoniSnFJITgmQYMW4UoNi9udae7HLtM2ggz210tnND9U3iwRk8Bch/hqOWoJkWIYkAPL6BnEXIfEtNuXLAnAjI3h3+6IcGBGXm0ajOTw8nJ2dlUqlwcHBqFZEoolJrlKI+w5yqYGEP7AVg4Q5wdftpa9vJ6uwfFgTVkxLPzT1018YCDb8/X3lEHsIEunGuHGsmDr0PoE8P0PeB7hb0QLAlzWg1RK/vq2xDozMlZhGozk/P19fX5+e+RCb2kP3GoD4S5DPGcQehISbuIqBJIDip05OWd8fbLCGG1yas9HauvxZY9mGewrJvUnHxEO33xQ9aDxvGfJaJezf5dQBzRO1aw6MzGEEDymdaoffglflWs+Xd2SJHK5mdp+OIYKKDIg+XG7vxC6HxbFi5nCzr83/5T4OGoJDwRrEWyLEgiCxcB/izkPeJwSnJMA1DJxfWXh9K087MCIuqJOTk6mZxbyyL4EpFx4vAdX/YYaL3Q/xv0MSgs4UJ/i6o2Tmbsq23hkK1tfuboOpNFSc4AK+Ksi1HqfoEFICR3p9hXjLkK/aVIJ3X4hf39ZYB0YGJXZzff3p41JR+ZR/7IJH2BHD/4YkwQz3eb6H+F9NSAJtePzuyYjNA0UIRreTlRPVQyQ/AglHQAC7zWA4G8cZeijchbhzcBOMxhgFcusNXt/uAwdG+qJbXv4aEtXEDt6D6fG9g3wNRY7XBuT1xdToH9PvsDylyr7mDN7hb7ghJWnVTH0bnBKdQewBEzQ/SE1YFH2HuEuEghO9m1s4UD6FS2MHRvcYbW7tRUYWkl0a8PQgv2C4vzMNiS4IVWDyC61P+EZvQSLaQtkUuJkoGyorcfE/RWvXUkBLci03L2Yg4R7kOQf5XJi/FckPrD+FGa0DIxgjhVwxMrVP5kz9w6ghKHeRDOL0Q977hAxBEsCP1bx9vT5TlWITPUhi2WT5Ylve1MxXeoCh8DNqgAwy5nMEcSZN5QdOyd+EuAvmEjzcv3NcL4/tDjkwgovu+/dfXHEzJNiEPF4b1JYEwMLJYxDy/oWPf6gGkh8ISkXetlAAACAASURBVFdf7G99bb33v249TPLpitW23G+rK1OzBmODpp5lEM/MMqlo+5zA440+Vk2bhOXaDY/+QgdG8PT+4lcZJDyGRLeQz6VBVUm0EGcIEhAMM6LJOJGaLysy+emvfYz3NCtJ+tGVu/xl7vJalVhk+4SrcBvyNGGZxN+EPEyceqAfzT8tAFzf6oGwL+TACKg14MMSgMQKyOcKLVy4ORBdQ5xx8wyRJECcpFWrVarzXcRJjZUAKaYrfvUWfHg7DYD6+Ezt+dL6Fk0LK9diGcTuIZCdiNEIfxPWjYyIIYyhvABL3+2DR3+VAyNwcQ1KWgEk2P3HfVpf0N5nkOdb2L4HNRMjqhVmiHbm3bVWq5IdbV2PW+ukVjEt3Rsomh4bQtzy7x6qaAHmu/paeOzHVwHTIzqDPCcgtybYwIgoS5DgF8SeNDNWhLuK/AL0z+iBsC/kwAhs7wNeDIC8j/7xmDcoYv4a5LUC985MDN+RJEAYr1GpVHL57c/l97eT+J3RCSWTYrricLh0crBHq9usSKlSjc6YVYx81ZDPMST4TuK+gdg9JPcuGBTcYISeJy0kPIB4Zs0E9Inh0QGSH8h79OiRAyOw/hPAoBCagwl3IM938FgfbNCIb3eo/trO4VsA1BcXZ5O9zTh3joQM6YaISib72pTKO0QU3chUMbkm7NSQ+hadQqwayL1TRw9mLNSQhvsfgOjmH96qqdkPgx/Jw+UkCfBLAZrHzdH+7RhptGB5A0Ci23/4Jvpivmp4Dov7EZ4QNRRLnlEahQLe/uzoaL+hOMuapdZHw6WT3Y13sit0l5nLG/X/lHTCCtZHeu9CnlOQ4DtqMKQ/9UDDfYz3ga5Fs3RDw6tYoeDy2r7W7P6qvx0jhRIMvwWw0ioialnEd5DPCeR9CHd8uLOIkTVSYSQJqO28lyj7e9tlr8JNiR80/nCoeKa7/vryDGUIAPXhsZLmb14x0g1Mi47h8U/+CrHURLHwOYfgkWvMWLYVYedg8HXTgdEjSuD8CrwqNyx0XyU8QOy9D38F6xD3PdyvFv7EGYsxAjUymQIB4uTgV0dOFIoLYeBoqHi2q+r85ABRiZALNRr19Lsba2tdfAXLJN4X3fg1EXm+KlgxsrqPhj6XEQRGZh9RiI51avvHwD0CwUjXwxf+ggchkVaM9wk2CPElVlzSy++02vvNGK9OdmerkwnpQSKPh4rm+2pODn5pNEqsKFKq1MklxPdH69gwoIax5n4kbuB8LiDOO6zINLzW8NeCkVJUf1Dc4sDoESWwffBQuKIbuIPDm4cE3yDRpfl+PiQBu/v3LRoA6rvz/Y32LFMYnQwVLfZVH+38wDEEgFqhVPOibdNjYDKEm5Dna7iBE6xDYgyF3qf/uI9biQ42GckPBGc+yoTtr9aNNFpYJ7gvUME25D6ELVwzYb9XSo0GVq6Rr/Ly8HiI2OvD2XDx6kD13o+vKpUcTY8Gbm4UTkFEzRNGVBBnw1cJeS1BrhWQ97E+gegKNt23eC1RAo+X4OwR7rL+aozkCtA89IAR/xvkWmdlHcx8kKEowELlYp9wg6yL0ZK1oZqd9SWlwiA9eu2XFSK9nqiaCTImOiW51UIizMi7+BbyMjdvQ3CTh2e5hYOldful+l+N0fkVEMY/YCTcgqdgH4rVTIAVor6V6UWRRqO82P9h7MrocrTk+1D19td5uRweWyL85tXYPpV2n0MNPBnC/2aQT/EdJNgxiLHidZD0zBDQM+nAyK4SODh5YAieQTuFhCYWzxtWRlX7nW7J6T0ZKpX817eFm3GDIeyrsdL1gcqNpQ93smtCgJBI73hLw4mGj9Yjwn0DeUwajmVrIdGNQRtn6lqieFoAyKyxqxB1F/290kitAbNfUIw08HgM4UC2UaFv7yrRPhoAarn8dvHdJHY3mevx0u8D0rX52dtb/TCjMUxajco52C7FyPsXxO41WmakhdVtbBtnlHM9hUanSH7APw3IFXaS9PdiJFeAmMIHjEQyiG9VcyCMVV7dGLRQt7dX04OdqJvH24myH0OVa/Nvb24ujdHBxmxu3ZL8HjJgVK8mq9xXCTdnwl9EfUndDK71tzJM6RULfh04MLKxBK5uAT3woRa9TyGPdyZrDlPcfWMypUqvGAGgvr6+6GupudNtHHs3Vb49XPn10+tbSwwBoJa22KVfewxDvDncWKg1ObeYhhMF7F4o8vdKo9PLB4bgkZgdyK3dYkFDErC1o8K2aACoLy/PmqSFyEZ9e8MVc9ODFuUQIpMkSbYrRsLvkMe43S2X+Rd0CQUtdu4R+rduy6cFYHEdgxF/HXLKM1/K/2PILVR1dGrQogGgPjs7Ls1OUUxX7A+WvO1ruro8xbZcZsKsUBsHHn1VELsfJt7I1sBizq1JQAsA6VU2ivSH5M9RGml0n4cc/pb/Wi0o78BgJNiAXEoslnVl6w22q48gcnJymB0ffjpc/Kmz/Pz00Aw32FMXpzfkF5gMYNpNk9nwHIObM+ywtTVXWZ0GNirPBAq7/NU8I4xub28XFhbKSktDggJfRkUuLCz8DmeXCJUaDfCMwdSicJvEbjVZfw81sfpdqdHgpdHp8X5WpN/eWPWPtWXstCsWGuPw6IzVM7LI08VXcA/f+4hIs8a8yENWLb4LYQJREtg9sud3++9jpFQq19bWamqqk6MDapPcFiqdD9sZb4sZZZmR6+uPGFg1WxoKJWz191CUWsh7l+RpeexxcxfPEADq85OD7JcBI52NhNMdxgAhMYlF966GHvKAZsZEgN0Nz34Qeux7HDrYDHjFgk8rZgvOxMl/DSONRrO3t9fa0hIXGVQYyfxU5nTZw1AMMjTDDDDKUA8zejPorXUlj9zny8Rbw2shMMWnhW1CuBYmNd3DFLuHBn00BIiTo/2MhOjbWwvdexxPokRbFCOfY9gVjg+xRwfMi2Bfyp6wazhos2tPrH8Bo4uLi97e3ujIsEQ/6lQB7bKbrhlhaEdherDfuwF6UZTzzOS4QmHvoJgpiAB4v4QtZS3ksw9xJ8zXR2GtTOfoDi+Qrq7Oe3t7cJRYPLRs8YiVMbAo+mI4Zo3N/5OFqf4gtdJ0qZk+8ycw0mq1arX6+vpqcnI8IS4mXEjpz6ScdtCw0BCGj9tpGRGeX1dXn1xJii/BFr0W8t6DuCPmMfq4IFOrDayFAFCr1cqDg12FiZlXUzBdXdwyrJ/YF51C3M92z3KYfynjs8GZ4MJ2bzW/ESONRqNQKC4vLj68e5Ofkx4pZrYlU/ZaLNODRepTKbUoLXJ3d/cJSdJoMY5mkB+99w7k0W1cptiY1R8a3IgRAOrb26vq6irrNWsErLE3sv85O8Pe3HRYC6/75n3EmYEbpH9ShcknEfbCZuvn6TFSq9Uymezs9PTL3MeaioL4II+6OMpGHVWtU3qwiFgT1owwmpKonc0119e2/0ZMFIZSZVSF3lskdwtWIl83NcbSRaGQvXs3axxvPiZDKrO2tw9rRbrVBNg2ziCsoXu9fcLum3sEaB8zUXCmo58MI7VafXt7e3x8tLI419EozYgWVcbQvkhp8gEDjccadHBp7gboWWHOH969fSqn4OdXRhgJ1iGmueFHygvt2k+8VgRbGilk5udfCXkKTFNj+olGmdFTooE8RuGlBIYrUgxEkURN546QMP64Dc+auTnxKYo/SKsEKhv9+T8WI41Gc3t7e3h4+HX5y0BnfWFyUFm007ti6lUvHUfDYw73WmnJ4bzNHxtP0rSNvjMqQf4G5FRkpgJEcbKfu3jFSKNRrqwsoSvOCIkhilR5x2tIelaMMoOe8jmCLa8tmehTxJc0r/dmMm/rqZAssHtoWvIQnbETI61We3t7u7+//3VlcXygVZoTVRrjMplHPe6gG/e5HgMQeu1sETU/Pfb05IToLWyLC84yqjnvfdjDK1p/RoHUEtnRKR4jpfKuoaHeVsVIdivnRFljH6KBuK8h7huLY0Uk3zsGpx6SmPTMZ+a9CE8J4sHMnG1FajNGd3d3+/t7K8uL0yNdDcXxZXHuw9nUnRaaZuSxjRdKDGFAM8yoi6e2NtUrlXYN1z8Ui1oNaOjEPoqLz/k/noYrr9FTukBt593VNR4jhUJWUJBHJG8Imj802ZelG5dQKzCCRdEHkwv1sdnzldM8u8miJxtVcg4BlZ22Wfhbi5FCodjf319aXHw91ttRmVqR6NmXTv3RQLNPcSYExWLk3QA9PcR5dvbtAxL2/L++AVTjXhK8Ns3kWn1IAiZe3yjh4SsDPpTKu6qqSlykxcPqDhk90CJGGoj3CfKcsSiKdOJEQ/XZoXpZ64mGUALhIuNLbHNSawEjlUp1cHCw+OXLzFh/T11WdaqgM4XytYamGHxK1cciQGiC3RZaQojXxsaGPQTprllcBxTUraz+N62FxFeQD94HOVq4nxYV2KUgCCsqlbyvz+aBx+gCFcXipKzPCcT7oPMTatT+6vOsP0USXzE4dSRzmrg+MfpSZgL+qWDhmw1lTIyRWq0+Pj5eXFycHu3vb8xrzpF0ptKXKmmyvn+HHhQjMMp4U0jNTI4/Pz+34S0xSfMbAVk/m4YWrhby3oG4GMc0hrU1/5Vg0EitVrx589qi+MElCEzXWOqmaSGvRZ2ptVmP/ZgcksQ3T9uu2drtN8BIo9GcnZ0tLS1NjAz0NxV2FgV1ZzLnymkX3XTtb1Z9sKCYD6uHGY1JjIb6Ojv6/xot4Meh6BgGBN8gt3pTP9D5rwSDRmq1YmFhDkeJ+UONWilOtNRNE53Boohv1fqChwyrKd4/KXxz6t1DSsO3xrCITUB+AbJqbdhU5B4jrVa7t7c3OTbc21TcXRbWl+P2sZR23EH/k6qPeXqwZ2/6GAXR7lNTUxgpY1VQoQSsMBPlKNiC3PuxRYkNz38jwEijUS4uLpjnBnf26EjGi7akGPG/QZxhy85DDAkgiS/o3AFsnh8ZDs22wT/EPUay6/OlqabhIu77UvpeK1059Hu7XVgm7AhrRxmbjYysOL9v32xpwAE4PgcuoSYwEt3oFnkRT7wvEGGkVis+f/6AA8X84et3t25hxI+4r3WxDJ6F5S3aCgFJdObk2WqbO1tDEHFP5ESB3mlr96a5x0h+tHI+GS4f+PdVHyupUg0x3pQ4F2Sn2aQkTX4ETkEmMIKXqp3pdisjSGAKo6mpCfPc4M6WNssZ5rtpwi2IMwiJbTRqkwCK5EYQ8tE/xVp1CgeN8SHlBchvAFc3Von5B93o+DN4+8LKKnwmyW766d1ZbnV1ddbvKp9UBsz1kvhfIQ5xu7CwRtCoqVTynp4uHCjmDxOK1UT9xAdwfdXwdmmeM3bMkbFCNdWdt+2jamtn68yKIoSq8Byw+sMmjGT7YLkAjDGfCSLWZEM7wjjqoFelCMbHrfIQrlYDAbrUmrAQ+d9gm3miU1+IMFIq72pra8xzgzsbmacxV80+h5DnqH02IdxoeGZ+5Qf4X4DwFeyI5ESBwTc2YaRVg7Ml8CnGmvp7PmnUw4zVWqeitLC1NcvGDTI58DRfxKJL2L8i0boLQowUClleXi4OFPOHoZlme/vCn5B7l9mJWJOICOLB/jE4OgPZtSbT2EoS5QWQdoI7uWWSHho1AE9Xg/0ZMBvwfCixJid3A4zpYpeyotyrKwuWJDuHgB1ltoh9NbBuZLSSn+avXlo3GL9GWFEoZGlpaea5wZ0NSDOtX8P+QOYhgU39fP3r+CTC9a1SgcmPgG48TE8kYq2h6lW5VUtpMRgBAFQysNUFpgXW1N/zSXPRQ+/O8WhubjY//983DZgh+nInLkTeJ4iNt19zDlQufyewwlYoZIWFBdZPzarkd5Jk0xh578IDVyacuxHn9gEO8gsQnnvfq1r9AURJll7z4ULzt4Vg5/FWLaU1xAjeheUCfKsAE+7PhxKLOdGOMLab6XUZ4unpaTPyN76EcBrEsMQFP3U7thhEMk1gpFTetbY2G/tQw0kg9PDi9EqUaGoeXgMb8nq+tVivhAnogSCv4f7Vj85AfqNB/gkvsTKSFgBahixvlmWEEdCC232wkPrfUrfVw4zP5YzynPjNTWKXqmoN8H1lReH6qiCfU92GV/rEzoEqQmmkVivevn1t/bqinz+vhXEmMBKdQ5xuC3tbmRYhzBDQ/rCiQ60B4x+A1Ua6+tc0BVZGNax1mf8YYwRg4XixBj6EWxQDzyqBfJAxlMusqaqQyQg2Blcqwf+sjE2VlEE87yO8mwKmzuj+qqV1gkZNq1Xt7m5bb88/vyI3OYTtcwSxqu3o5yP5dA0Hb+b1Fb3wDQgTrHtZzGtiXxkbfpEK5r7qb04YIsIIAKDVgIM34I34WYFiMTPn3fTmNPeenh7jV5XJrcdoEfIwaFzIftovawQqNgBqlUp+d3eDNlvmAzOflB6EBmu+Sp0/UIKttLHVaSbMjgQrGKOH/WPY55WZ9DadogfCw9nm98g2gRFcD1qw2QamuBYr71kl+F5Hq0zz+/DhA46kq1vgbeUPVKyAPVAZLrcg7PADoNZolJeG7tLNkDTx5pZ4eZrolARvjmbjOlqMIOFEga1d/RurNWDgtRWKIOYO5sEqbAInZi0qzGAEgEYBVgrAhOuzAsV8ZrQjjIl8Wk1J5t7enr5cAbwVJry/jJUFx1+A+HPYxKYwUirvVlaWzKCDPTU8ec0OJ9KNYH/Wo9jH2Rr2eAkODK2LPy5bGmu1sih0yYIy4S0xzHzMYgR33M7B57j/lrqtGmK0JDM625qwStLoO9SNuhUweb7FbVVmCqO7uxvrLdcGxq/djTHylUMe/bBeb0u94hJ7RsPbeWE/e0cgo9qKN7XuobQAMPja3HIRSxgBAK63dGOSTubFwLM6e9pJr0riTE+OozZJ2bUY32oWy050A3eafPXTnF+IZvgBUN/cXJaXl2JFjplw/xgRRuIryDkL8rVkPWI2z7wYIDe0UNdoQN80YBhbnZu9D45O7GFeAzg8xYJqELYCIwDA0QcwI3xWoFjMzGIlrTIrbHVlRaPRqNUgIN3GnyZ/HhLodzQnnOHXYXRVWSm1cgSyZ/jaLQzXqGkh75//eBo0oNjKszIsiCew6Pi8CiQpNr61acjEr2DHYqa2y7IOIwDAz24w6WGx8p5PAs0Ioz+T1lpbfHx0dHEFbxlmZZXcJ/OcgZerPhSrKYwUCpn1Q0ft/deuoYYY+aogtwrYEfHDg+wIwFs1ZBnIBuTg7BIUNQNzM8G2PBTZBNKUEy2rMdKqwdcyMO7yfECxmBPFIKMmnjEy0DX27tYG/RopXJ8reP8r33v356Yw0mpVl5dnMrPOr9Fmrq7jxiXYcDJEfAO5SO1AB3sJ5QVIKCXACAAw+g5wzE8j2kJSbr3Jds1qjAAAymuw8AqM/peUpMM2emkC1y9ynC7ehZefis4JJ/CxtYKGSbz38DY0uoImNKJF+FAq77a3t1BWzARKmuROQYYYeX200eaaQKZS/eFZfcLP5g6IL8E6BAO6DWuv4GF60bnuewH7lRedQj5HkOhYt/uRSS3NLwV82yJ8jq0uRGX74H2YRTHwrBJ8LqP5efHJrAaIPQG3U/zv8FZXYr36jHKDD3jOQl736hGhST9CzPX1xcBAnxl60FPFjXiMSM7pj/flSAsApW3EtXt1A+9wZdCuiS7gveGE3+FfiOArSbhOEixB/CXI6wOJNwPxv8A2DvDKSUPcdb8lRhDskJ5wHNIWaYRk9XQRvJE8K1DMZ0YzwuhOo7p75sKdauE+5DEDsYfhze2E+3hucBJedAt7MRfDe7uYxehyZGTImgna2o5bJrZRE19DrGYLecBlieiQHghqewkwUirhWg9IIxBgRA/VwL7CeO9IniOQYMXUgoKOMXBLMNVkqzRC5kl2R8G0l/nKe1Zn7wYYxZF0J27b/U9ffAd5vv2H91VXmlpzkslzAhKsIRhpDZfMojJGrVYcHx9Y41ekd/TGwJ7fc8Cimwei+sZjQQ/Uz8uiNGk0sP1rTJGhKCKiEPMILSS+hM2txDfYwQ5MAth24JhoONt2aQQbuN2BjSYw4fasWDGfmb0W2kuxO4X3Fm9bKJZDXob7AGHLmvcFEvyEJBrC5Y4oSbe3Vysri+ihqcCHeZnnS31jQXJKMlVb2JqzGGYEgf4ZlJ/7wPY+PK1mzzy/rxo3EYTNQFQ+vN+88ccujIAWyE/BSiEYczZfec/q7KcyKo8TRBLuYssF9njvZtqXiK8Ktkj0OfqwQLD4GsXl6up8dva1xdGjg/1b7/gHjEQXkHuPQU6w+NoSdgoCE4ZTiMdnoLzdChs9W56CZFX8CnzfNqbIjkYNuYlWA65/gvmkZwWK+cxoRhg96VSGW5bBr010BbmbdWXsMQEJt8oaZSNvlAPTqp5xRdfo/XdgWjn+TvV+QfFxUTbz/mBjS7azr9g9VO4fq47PVOcXypsbuVIu1z7sA6lSKl6k3mNE8uiGd2S3vSKNL3EOBu8W9VV7eQO3cexIfNtnfKEdMaKkp8UIAKBRgdMF8D7UfOU9q7N3/fSCMBoZ60nd5xxiNZkrUO9jSPCNE3bpFaPhRGrcwtSskPsvJ1LNj9FIXqmC0jVh2eqYfGViiSqxVP2qTJMq1WRUqXNqVAUNqpIWTX2vqnNMNfFOIYx/MOl3SnmSFg2SAOcQMP9gD3QnhyWTfq/Bp8AUWzgxhcSm2fY1ag/sq+/A3gR47fOsWDGfmf1Wuj/PDeJ+ui8d70OImootKYIwZ9jUMkiCxEQ1xwjUuIVrBLHqe5c04jvI7WlaNEgCN17L3+EaUalgNyAB6cAqV25E+bT4Og0DxAsgH4cRPCZ5CZslTbLNVx727O92qIV9FmF4sZJGdw6AfM7hUvM+hpwrLBSf4CdsKG1ogWThEvOVxJuCBNuPugPm/swQeLG9Rgs2d0FUnk1dM9saPu8EMP/tqcaNHiTRw38tkB3C8yTWLZVcr6NPNSUtNvgSVvCfidSOMIayaCTnVNhoVXT1j+XdonVehX2OnqriIacUO5ZXm3o6MxTWV84uYc/oVALXTbaxYuopFH9Q1wcuDc1RHhiwW8VGb4CMJF1twKsADN3sGx9uNDBm+msOdjaWW/7ldZV3/fTcUCeIVQNxl63aG9S14ZHtmkH1uDQ8lWIESWDnFt+2wMAMYJh0T/AEJEXlg7UtWOYRfh7dqCF31ajAyZz5VQDHHfT+PP+LnW/KtemP5XizE/UwY6+F/rmMvtPMUP8RfyZ7LXQftivESDOoYExjYRDvPmnfmmiDmyA3996C+OuEsw0EiU3lBxPvEgqW1pR+cVZtcmrfI7gx8GoTU9P7ADyJNEJIUsvB7ripVQCqIXpnKvtwoED5oflstPhXk97xjWaEsddKHy7w+jxYffZzYXu6/LDtT7gS0IwwlqvpVLrYms0S/+F8vtelMPVnX5VAnFbYdkBicgbU1tvSAxS5JeNUyZmtF1qZnhEET7aYas6Qyn8iaYTcTHUDfrSASY5xc7YoZfzsTFVMVyhnpCv1Eaj3LfkAfb7CaaQw4OBjn1x2pVHcnM83XHb/oVFNxSBjMMuJxEy3WKD/sN9C3o+yc9U/QrBiYsNh+5oeLdVni+nz9gnFmz6rEtg6ILMG7B0RmMUhdf4bMAIAyM/AajFO3Zb108cLX1yNlShnpDfjpe+L701NLnsYA1mu76SxN9NVqq1PAKgufy2djUX9SQeBZ130zGB3yK0NW3YEYY9xyOeYIN4O4eSrhlxqn0o3IonO6R7tJF/7V5WYf6nIPNhLiSmVCCXpSaURfFctuPkF5l9hBdJKlcvFcK5yRqqckX5tTFQPM2CfMu2MxiTPX93Zus1+K1WfWi8+9Wz3vFyuoo/lUDYbaX8GJu0I40cDncf2g3h6k1mCknWp0okQ+wQG/iqSSxYkuiR4io1QkiRqhnsZSSx7/K0I7yCMhx1LWGToSXUjlEwAwNki+HBvlqQcpC9UB1/rRJFiuqI33U07wvjZRG9OFt2MlyJsKWekZ8NFb8tCe7P8vr/uUVwdLwwVbzfr9ScslE8e1oww5ipoZOcYSGS6Phg5sJWSjdVsMr33jk7LxuNlMr2J5zJc88m+jzLANfNEVhhoHoKHNK35PLk00j1UqwU7Y+C1CIwy9ttcbsZyEFw22jKO22nfahl9OaEoQMoZ6dVYyUZ75q+eXNVcp+Zk6/b67PBt7m3/H8IIjDJu++idKU5kVr7Jre84HbA5jonqtCeekf0oLdtXTXcte8IdZ3CvQAuAfUtc3VqDEJzm92CEzLhtNIApz60m8fVYoXJGqpiuGM4Vz5U7z5TFYhm6HC353pbxq1uH2uvq209dP4azj7r/tEuTnRZakj+PxB4g1lX5C7DhKWJE4avSWZtoHsMBiZUH+djXrmkhsYzmXkN6wuFQw58H+QWILgQ/iQxCTGH12zCC50lutEv516Pp8qly5Yz0eLCwKsb1c80rlCHFjPRitGSlKW2tNQOJvBkv/doQ+auZ9eQtlzU3/CKlCXgRRM2NFtavhduw1anXHIm/ANsHCrfhfahF1/B4gfgaHpWGv9dwDBy4hZcDwCvdHixDDKsK3hHAw47tGbRk8QWd00YWnzwGYpzswR6S/IBvMryJqk2f34kRANrzbdXHVgSRn13ZW53ZOIaWG9NWm9ORyKux0qWGhM/V4vM+9r8y76Yeoo/nUlmcTJ3lP0Zx8T6FBN9h5578dYi/Cf8VrEMeUyR2H4ndDrnWQW5NELuLxOmD3Noh1xbIvRPyGCBxdabNwl/3nm5gK/oLmDPYERbMFokeb7INxTF3f6gl+xzRPPtJotPfxBAkgS1MWoaJJ87MgPV7MbrdWpTPNqDooAFEDi03pn5ruWfoerz0S33KbHPB3srs7lTWzZNux2aNKELSnHfRq2NdGJxa3RqJB5LchyChjWPEIhnsRtJrBfJ8DbF7YQs19y4YNXYPbAfn/QsSnZPcSqzaoOgBKbLPIZ071hdqtAAACu1JREFUrNup6MmGLrFyCJLA0yk5deDGapUIBes3YqRWqX5MtF6O6btjKEYXoyXLTamoHLqZKFtrzVhpzpSvzZxsf/s1+uqu/1/z0L1eR4vxE5M9p/VT+k4F6BIRXLnbduirhVzaIN48yWOSxHtN4k5DrAYr5QpJdEHjTpJhfeh3MUTxBxG5xOZEKC6mAr8RozuZ7Otoy/FQMTJ4jTIkmyxfaU773paJxNxOlG20Z31tTpdPV9y9a1rtzPnRSDAObr1EeXzK2WKajyABEvy4p8S1Q2eR/SCcHsSDbQwhV3nMYWeCSfQkK+dYaNxJimCJJL79TRiR/GBjt9kvpjixEP8bMQIAfJ3/+GOq/XK6RqEbe0S4uRor3WjPQsKyyfLtrpxvLel3k+WK6Yqd7qzPUu+j9n9NFCEIKgfpPWlUtlcR5KPb6473zd5eFZ68f0Q3BvoQ94tuV0nLAobm0U1xryJ79FIFnymiffzChMeQrbvWOQTU9wO1xgIupk7/XowAAFcX5z9fd8umK1FphAbkUxV7fXmrTWnXunHIk6GCz5UBW43PYlXuUTutINyV4dkBCY8g0a1B3T+6zvRizFcJOeVYM6JN8eil0DzpVEp8YGhqbIMg4ANZ/GRzsZQXIKkcXFhwCG0KITj+t2MEANhYeLc/VCbXzcuiDCmmK06GCpcbU0+GipC5tu8t0ZuNrn9mDsSahm+lmhYufkFyqYOET2N7r6dHD6IG8vxgjUAi+xzT3PKTQ/y/t2cfDxWOlmTEv+yi+6yZHFDQPwIvEXHZIEngHv7aT3OUWDz3JzC6PDvdnZ8+/dCjmNHLJNlk+ffWjJ0eeK5NPlVx2Je63cJ7bjsnTRdSfTz4EN/m/YRwVWXuUCyDXKogb8tD5DSfH7P1jXdTsJWEcka60Z5VnlrhLn4PSVTm7m+JJ5dQ2GPEIz9/AiN4gaRKdfhr82gInuRHvneT5Qd9+Uj4Yjhvu9X3+l/q5JuRTPIBenMSxZ1XZrerYcsV7KuGu4FuLdbM+Q9WTd1MVKNleDFa0pmX7+U3RbLLKTuSt4oOc/ZoVuL1hzCC3f/J5ctjHTuDpbI3dWhBKGekssmS456Xl91/wlTNDDGmTh200VMC2DTuCLaHZRkOSzLA4A7iW4g9YI2Rf1zS1t5gk0HpTZQPl+QJX4yRJFY4tzDKVUwROL2wEhVzyf4cRgCAk8ODkx/Lip0VzNx+xd14+k2/p6lafA7xqzW0FwJ/En/tdynaupUFkDduB3Stcd/eyV852zgom9LrBsoZ6e1kxWhpAU8yCUkMfXAZQWPArgT2MfrVhKMZc8gQnfujGCEZ0KgU33ruxyRVU3maUdG/MvVhPaDaUcZUPpXHTdB5bLGgseKqyv5DZIbOCIW4pM3D4UasQFLOSK/Hy3sKS9zEH6x/HCMIjMzaPOlBhBAc9y9gpNVqtpY/f+0u3u/LVU0kgNE/ZDJrPTfGKe8G6FUxdKZHFTznalS1vyVGuAkJ143vTH+hGqkev52swpF0OlxWl1VFFz0MmVrKZEWHDTsSm6IHjf8XMEL0pPO9n7d765ofg/8Vl5LHHfRIH3cKd/bJh/6MWYFjBMsQ/xNhO+UTcbbV14od0UXscLa6i5KjG0g6h0zE93xgK7oQ7Foyr0YRsSbw72D0kDMtkF+AH204221jYfBMYn400Lhsn0f6sDZfwfqzolOdqyHYSRfuS5KAtNS1q/EanEC6Hi8dLMpicIk3qERvwo2BF7+q1Q+V8BT//12MdLbbskOwWvpMQDGfDe0IY6aA6syu/CMCSQMJvhrvEYjQwPBXdpdNYwWSbLL8Y01yAN+D6hJPFplcfUD1h50hyazYsNEmuv51jHTb3Fz9wK0CMF+d/+JZxSCD691N2NagP/cnC3h9grw+mkLWNUi20NqNCKTbibKJklhvDotKoVDoXlSuSY9Nxa3g5MLCaiGbAEISPwOMYJGkBsefwbugf5EP6x/tEbT3ZKAYNVgGd4Zd6H2Ht3U3kcwj5Hqrt/l2oqw5NYTtwqCQkQ+VwsogXC4SlQ9+7Dw9Q/9OT40Ydo0CwC4ledZX5x9OqRlizFXHJMa9pfo9avLBFBNE8VqI98b8VIwg9CQlNMSJTrtHCPnnHEH23sLdUBAPPq8+sUqEVuXzkEZIdlQyeNHt2LPz4L7bLm7JrfYO2aG/UJD9TNhWmxAYuLq0+dD7F+x52PQoA0miYXgvUqiuWIwodD6VO4J9llMwvBW6XIHW+xMHnhNG6KJbS55J/owcuuplT5ZnRAfVOol+YavkD4dhd9UPXt5NPFpDFSxSqO4oSRQyheJajCYm+8GL8K9unhgd7O2eGUawgdKmTt3+F6yOtKNO6mGmrN91uS4iL3mIHahbtM+ZhQSGXkefRPDA7pQtW6vBKMACaRVeC2DuuRqycJPqHE6mPLRurHSybgCJ7AebV1vcLBbLhB3h54cRvGHSR/A+5I/tKqEddVINu9wOsLda/Rtz6sThhlqFx+snXHatR8H7BPLa0B+aQwRA3Cl4LYqptUoP15LElzROPYXKJpOpZJdEks8++QV4mQ++Ee/ibActJi95lhhp1WBnELz2/t2Nl3qYed3vsdvpO1RSEBPzieZ3v9GMQe26dxOtXMMPCRpc8lCvFiKdyqzd6UF8DcHrLa1waeKrovDnqM6hZGYixfvHi1TwfvG3dM1wQD1LjGADJTn4Xv+75knGnGWDHvtd4g+VCTnJo5wAs974GAV6f6NW8mFlMu8zyPOztU2b10fdHgxyC2hK4C1m3YP3uf5TfvHbo7PWLsLHYWHr4XPFCNmf9Ml3up3kwBuefI7rkbb5hlnn2oFZA/F+m/Ujq9HKlSGQREviTsF6kqWmjR0J+1Yf/wB3739f1wzH2TPGCN6f9Cesbj9+E7cJN9gN3McoWMKdrwCtxobt1bjzT+UHnUCQ+FxD7iOmxqnx6X2O4EFt0YV5AUYLgHfj05pw0oir/qc6fN4YAQCPbr8PtXNXiXEXeG/Tj5Hgayk4eAuUV7D7Jd2HYr3HVtEN7GcNs+8svnatbMIIk/mq4T0C+Fbr2l5zsJJkyWT2VTmQ3T0VIVbd59ljpNWAnRGdum39EIATmOLCDpaW88DOELjZgTcUwHw0WhsVZPb0b1wcIr6DXLut8T+pw1dL4r2G52t9zRk6xhSBozPMC//+4LPHCPZxo4A3TCJyKYnvyk24g9lA8CUDbHaA81WgItr6C8AbgdsmUVzqbBAYhFLHTCRs0v8V4mDWeptJLAGwcwGvj5DwhxkBGZoNNn79fnYwT/gvYITsT7paDMZNOKwZcwGvxWA+GXxvgDfplp+hjRfmTfVBhdJGjLgLT+s7Fg+xWKbbKXDBovp8f6H4Ct6PUWzSz5okGXxc1r/vHwj9RzACAMgOYHXbYOstXeP1ORZ8qwR7U3DjpTVovEwVn1xhI0a+Koi7BDsuMi8nHnPW50KnJK2ZV58NMmBaXfN8SbDDmqnSeJL4/w5GAMDt1McoMO4KT9++DwWrJWBnGFysAZVtnlSUKpBeZds3LWcmvfzM1qtsSF+pSS/dT8v7kF6ptOEqE2+R3wBmF54ED2tv8p/CCGjB6SL4NQC2++E9uODGy56PVgs7erbtu3e2d6i07RJbH3Go2t272jtUP/4p+8e/dyLWuND/WxgZ598R8yxKwIHRs6iG/3omHBj912vwWeTfgdGzqIb/eiYcGP3Xa/BZ5N+B0bOohv96Jv4fgMv9asZPHoQAAAAASUVORK5CYII=;" vertex="1" parent="1">
          <mxGeometry x="330" y="150" width="90.21" height="93" as="geometry" />
        </mxCell>
        <mxCell id="_nvLQFHXTz9P7ObtZMR7-7" value="" style="shape=image;verticalLabelPosition=bottom;labelBackgroundColor=default;verticalAlign=top;aspect=fixed;imageAspect=0;image=data:image/png,iVBORw0KGgoAAAANSUhEUgAAAM4AAAEMCAIAAAADKh6YAAAgAElEQVR4Ae2dh3sTx/Pwf3/J+01otmRbxVaXLEvucgFM7xAgkAQSAgFCIJRA6CWhhV5MryGYEjrY2Kb3XkJw75Ily5Z0d7t6czpzllVOJ0tnS7L86IHV6XS3N/vRzO7s7Oz/WcN/YQl0igT+r1PuEr5JWALWMGphCDpJAmHUOknQ4duEUQsz0EkSCKPWSYIO3yaMWpiBTpJAGLVOEnT4NmHUwgx0kgTCqHWSoMO3CaNmhRAiCKKtr//44Z8Ht29dOH3q0K4df6xZtWrhz7/MmvHztG/nfjtl3ndTFs74ftncOb8vW7J708aThw5cv3jh2aOHpR//1TU0IAgCbX9hnigk0B1RI7BAEKSqvPzm1Strflk4Lqdv/wRFlkycKuAn8qLV3ChldKQ8spe0Tw9J78+Jl7RPD1lEz3h2HxWHnciLTuJz0kSxWXJxf5ViTL/MxbN/OH30yOvnzxq1DRiGhclzZq57oQYhBACUl5Qc2bNrwqCcNCFfzY1WRkXIInqSSHWgIO3TA0cwhp0cy9FIBN+MGr5/x9bXz5+FtZ09cN0FNULNPLh9+4eJ4xNiWHJWbx/xoiBSFtFTHtlLGR2ZpZCuW/LL04cPUBSFENrLvRuWQx81CCGGYU8fPpg8bIgsoqe9TaTAxU8f9ZD26SGP7DU4JTF36x+11VWEbe2GnFmtoT7djmGYtr5+5fx5am5U50LW2sNrRbYPzlyKgLdo5vR3r1+ZTC3dUMmFslazmM1vX70cmZnOnK30VvlJ+/RI5EXPmfL1+9evm43GbqXeQhY1k8l0q+DGgESlxG4U6S0ZDJ0v7dMjKZazYv7ckg8fEATpJsCFJmoIgtwtLByQmNCVRvOTl8Qdr9I+PXJU8aePHtY1NHQHexqCqEEISz78M7pvZiBzRvKnYPf5edrUd69ehTxtIYiasalp0Q/TA6d/RlLlrqBg9R7dN/NW/g2LxRLCxjTUUAMAPHv0UM2NcteugXlcFtEzSy45f+pPk8kUqrSFGmomU8u0L8YEhel0gF7ap0eaKDbv2FFziNIWaqgZ9Ho1N9qhFYPlrbRPj1QB/+rf51EUDT3dFlKoAQBuFxYEo0ojfwzSPj2y5JLnjx+FUQtoCQAAls37KYgGBCRh9gVpnx4TB+dUV1YEtKy9r1xIaTUI4Zj+WUGt1QjmZJE9D+3eaTGbvW/QwP1GqKE2MjM9BFCT9P48RcAv/fffUHK2hRpq34wcFhqoSSN6/rFmdSgptpBCDWDYml8WBHtfjey3pYlimwyGwLWIXtYspFDDMCzv+FFpH59CasmW7vKCPLLXk/v3QsaGhhRqEMKXT58GYChHx6iVRfRc9MP0MGpeas/OOr2hvk4W0atjTRuA38pWSMKodRY73twHQlicfyNkDKik92cJMSyAYd7IIHDPDSkDiqJov3hZACqnDldJ2qdHZVlZaCi20EENQrh13Rp5ZOhYT0nvz6URPc+eOA4ACFxlRbtmIYIahLBJr1fzgnWi3Z3ak0X0XDbvJ9qtGdAnhg5qi2f/EBrOWwfsvhjQL6AJol25EEENw7BsucShkQL5rbjXZ3SqJ+79+YBEJe3WDOgTQwE13J327Kkqhk2n8brkHGmfHqqoPkmcyLTYqAwhRyOITuay4ul1KzNlovCwIFB+QxDCg7u2x0dFeMRIHRORHhuVwmMp2b09nuz7CeJen8Wze2cKYiZolHvmffn80Iqai1sMN3Zpr+54d2Lt8kmDk7ksj3dJFfACRdC+1SNEtNrCmdNllEpC1qfHuFT5kcVTbu9YdGXDnM0zxn7TL7GfhJdgY46mOfOIhaT35+Jen4l7fSaL6JHGjxqbqtg0fcyLQyuabuxCinLRolyEeBXuRYtyLYV7L/w2WxXdh+Ky0j491Nwo35o4UL4dIqhNHTOSwnMr7vXZtznJZWc3Ei2NFudainJ1V7c/P7ji0KJvfh7d94s0RX8JL5nDUrBwX4m4F0FM+2QIvT+X2l64D8JujaeNLfxMRWTPFB57cLzguwEpG6aNyt/yc82FLYiNKuJf1Eab/b+WotydcyaKKPttyqiIsAENlJ+L1Wod2z+bYvjZV8x9c3yN5SauS8gXgZ2lcK/+2s7KsxtfHll1c/uCvFXTd/80cfnkIbOGZUzKTBihFg+Qx2YJOWn8qBQuK9n2SuGy02OjskXcQQrBmGTZtznJC8flbJ057vTK74t3LvrnxNr6S1stN/cQaoy8nbuC7sr2/lK+PbsOSk7B6h0aSw1CRKsNSU10h5q412dbZo4z3tjprrHJ4wR8poI9+ms76y9trT6/uTxvw4dTv705sfbFsdXPjqx6enjl08Mrnx1Z9eLY6rcn1v576veKMxtrL/yhu7K9JX83UtQOZfKy1AVzwZ79CyaLev7PgTDyrTyyV2isoQoF1EwmU39VPNk2DoUULuv10VXuTBg1B/afkloKLxS3aUf7czpQRgr3vji6Ku7z/+euvxhGLYCsp0Gvz1ZIHQgj337TN7Hh8tYOQNBpX6k6t0kd7Xb4LGf1RkMihUzQazUIoU6rzZSLSbbsC8Ke//v9u5Et+bs7jZsO3Kj+0tZBijh3HYB4dkR4DjQgFBuEsFGrzXKP2uElU822YWAHIOicr2ivbPsyw3XSJNz3y2EHhKB9rkTQazWr1dqk1/d1Y0DFvT47v26W7x01RpnTXd0+bWCKtI+jbwX3qtgysfncygFxgVBAzWwy5bgfFlzfNBcp9FsvngnmGq/umDVU4xI1Se/PNWJBQJDicyVCATUI4eAU184OWUSP4u0LmODDj9fUX9s5b5Rbv2DfeFnYhesz5/67wOjsDJfdaiW794M9S/yIBROXarq+a+nEge68uEPTkvwnp668UohotcnDBjujJu39eRo/6tWRVaRLjAlQfL9mS/6ubTPHuZuemjJ6ZFcC4r97hwhqM74cL3W1o8qwBFH52U2+08DoFcwFu/NWzxD0cDFhIIvo+duvi8MG1H/A+3ylJT/Oco7sEPX8bNYwjeHaDkZB8f3iSOHeJweWySLa9rMiXYP/rdS/cPqvsF/NZ0D8d4Hdmzcq2I7RONI+PQ4s+Mp8c4/vNDB6BaRwb+3FLePTFCRhZOG/BFjlJSVhreY/Uny7EgDgxqULCTGOYYbZIs6LI6sYpcRfF2/J333s12/FvR2jwJVREVh4HahvePjz2xDCso//qjjtAr7FvT77cXhm041d/qKB0esgRbnlZzYOVghIfUYUUuJ4oaHSQmePKQBAhkQgtotYTOayrmyYE+DzBPb4mgr27J77pX18h7RPjxEZaf78UXbptUJhBGq14jsVD89II/0d4l6ffZmZoL+2I4hQQ4ty3x5fkymIIRWbLKLnplXLQ2NMEDpa7b+Z0B8mTSAbSRHZc8sPY4OLM7Qo13Btx5wRmaRik0X0fPnsaRi1LtXFTjcHABzfl0sm8csQRD/at7RjYbH2Rq2Ty+bCvfvmf0X+YFQctrGpyelZg/VA0BtQfPtigAKAVZSVEumuxL0++28tifbKtk4GxffbIYV78zfPVUW1em0GJia0NDdDDLVaWiAS9CmYgxs1iJpBQwkofQyq34JmXWocj1geNypJ1tx+0YrvHHTCFZCivY/2L9PE4ZlHpH16bFj+q7mxDit9hD09j729CU3BreGCGTWAgfLn6O3DaNE+pGgf+uj0NzmpBGrj0+NNgR045BJcpCj35bHVfcU8aZ/P5ZG9nt+8YHlwqvXMWwewD3et1iDeAD6IUYPNOvTBn2SbIYV7H+9fJu3Tgxh+mu3W4ZHnBHgBKcp9emhFpjBG2ufzvmJezZWdaNG+tjo/PmMFQZzWL3hRg6DmHXrrINkSSOFeS2HulH5Jkt6fT8xQBiVqhXuLts1PjImU9elxdMlUxyUR909CS0uwDgqs1mBGrfQxUryfRA1PU1CYW3Zmo7jXZ2NT5S2BvZ7AvtpkGSnM/Wv597KIHhPS46vObXZ01tw/Ac1BvN178KJmxT4+QIvt7AuO2t6m67vSY6OGKIX6gA/oIAkjC6abe7fMHCfq+b/dP010VGlFuWhYq3WRSoeg9AlafIBsJ6JguLZjSr/E/hLex1O/B/iSAoeao0W5xhu7Fo3rL+r12aX1c5zDObHHZ6wwiDOVBrFWg/Uf0duHHBrMeH3n9llfpPGjbvwxz7m1HE4OtLfay1u/zlYr2b3v5/7qWLfifdjbwqCeeg9e1CBs0aMP/3JoEsvNPfd2L1aye+2d96VjXyewx6RIUW5J3oaBirjB8YJ///zN4bnQ2wdB7T9hZ0fXmFAIAPb6umOTFOWWnt0oj+y5dOKg4NJqSFHu80MrkjmshWP7NV51ihy+dwIipjBqXYQahKDmPXq7zd9BYNdwaev4NMWsYZrg8uIiRbnF2xYkcyLzVs9w0sf7sFfXg9p6Bn1kBzTp0fttXlwCNVPBnru7fsn9eVKA509w1sdvj62eP6ZvxdmNjh/dOgDq/g1qlRb0qFkhwF7nt3Op2zpkiC39p2ODBXZfDU9ZenOvxWUl752AGNI1tsN/dw3eYUGrDEDdR9s0aECnSvAReuxdYbCrtODXalYrREzO41Afmzawvl68Hxq1/lMuXXaloNdqVisEH+6i7WeoAosVlzaR/sEHp6wwiAM6SLRDATVobEDvHAkpvGwg4s6awlxQ9SbYx54EbSGAGq7X0OcXnAcHoQDf7UPWkNg2LxT6asRyKdBQhjjNh4YAatj7WyEwIAghrWZ7FOxxXgiw1e4Rbh204jMEIfIXEgbUtg4UGmra99jaxRe1a0L6XfIuOHMf0UVDiveDd8VWgIYIaMEcGuncBBDoa9BHeej9k9jjs0HpASnejz05hz46jT/Cq+vW4F8lZd9IIaLViEfCR2oQQNQMMRSUPwseTfbJ/3zvOGyqxxcQYAgM5tA0e8LIckihRj6V1WoF9SUO4eBBQN7jMxBpCZlxgH1zhMgI1OGRiLfQUIvg6/Y+KYwgKOzD3hQEdZyty4YgD4asVsODPh6dDibUig+Ayldkw4ReIXRRQy22oI/g0WpERy30EPv0RCGLmhVCUPEiiOZGsSfnrVjouDY+Adb2f+iiZrXCplr07rHgsKHFB7CPD0J1QEDgFtKoYQj2ysXig0CE7+4xaKhr0wChWApl1PDp0Zp3zmtFAw+1fdjzi6Gt0kLZ2UHoBWg2BsE49NZBUPUqjFqwq3IIyp6itxwXwQeUYsMe/hXaAwKCoRA3oLgNbdFjdrmxAgoyvDLFB7DSx8H+g6ZT/9BHDY+cLH0UuD22+ydDYDVUGLVWCUCTASPTLwbWDNU+UPkqNOK5PdLWHbQabkVB5Uv7vH+BYEbxREmP84I6EaRHvOxP6CaoWSFqQZ+eD6z1B7cPhcaqO3ueKMrdBTVcszXVOyf46DL1VrwfBn9uBAqwnD/qRqhZIcTKnuC5wLu+u7YPn4YKoWBuZ7Ccj3Qn1PAuG4Y+/bvrUXt51ZbByrk5QvlI90INb0mAofeOOSTR7VT4Hp6CzbpQZsrNs3U/1KwQmprQO10ToIvcOgh1FW7aIsQPd0PU8B0d8XDwonaJ6DtBsSE391ieXYJo0O8W1bHfRHdEDbeipibDxT8s+Tvx/IzM73CAFO5Fbu42nlvb8vA8DOYdVToGGfGt7oua/vyGxhO/mK5uQW7uYValFe615O9sOr1Cd2R+8728MGq+8Bp838W12oVNuiPzG48tbD7/G1Kwiwndhiuzwj2mK3/oTy7RHZmvPTzfeOsERC3BJy9/1LibajVoNhqvbNMdWaA7Ml93dIH+1FLT5c3IzT3+2lXDBtle8/XtxrNrGo8txO+C32hh8+3jtpWe/mi6YLtG90XNcutgU94q3VEbbTb1Zji93HTlDxsl+B5CHbaq+MZqN3YYz61tPLG4FbIj8xuPLjSeW4c8OQctQbxPlC94d1fUTHq0+AByc3fz37+1aR0cuEWGP5e2XNhgyd/lNW2FucjNPaarW5ryVjWe+IWEzGamF5kub8I7hQ//gia9Lw0WvN/trqg164h1e8jNPeZrW+3VD07G0YWNxxfp/1za/Pd6y/XttnGDCyVHbMGB67D8XabLmwnCbOC2akqCNsOpZbah7h5cX945Ao0NwYuLLzXvrqgZaokoD6JThdzc03z+N93RT50qomtl68bpji5oPLZQf2Kx4dSypryVxrNrms+tNZ5d23RmteGv5fqTSxqPLcKtMG6I2xGmO/IzPsK1dQFtG0jisOKprHSVvjRY8H63O6IGIQB1/7ZtC0R0ywr3IgW466vx6ELd4Z/tzZ9T2QEpW5efpNNW0J9c3HJpE+G0a2eIi/fbNrsIXmA6XvNuiRpAsfIXzrFrn5jYa7q0yXBqqc094cic1kah9rALvHA1dmxR05lV5uvbiCEFoTIdhhdY6RMYKultveKuu6L28aEzag584H38K1uM59bqTy21WcmF5HC1Vc+12tYlTadXNF9Yb7mxnXDOuVBmbWFL+9DnF6GlpZsEeduz2O1QMzQ1YRgGjTr0yTnqRXuflJwtwQw+s7THUrDLcmOn+cZ2840dlvydloLd5DmtfT7cZ+tiANGq2Ir3o4/y8LAOCLVancXSvXy53Qg1s8VSUlo25fsfm5tbIIAQMYPSx+3T53pIW2TPk0vj6GAr2729dRB7eQ3ffB3ii4uXrfrt4uVrxuZm+999aJe7C2p6gyHv7IXMASNipYkmkwkCiG9xgmFQW44+OMV4wqI7h0HJYzy3rY0zCODSletUaf1/37Stuqa2mxjTboFaZVX12vV/JGUMkCVmxEqTLBaLDTVb6gIAYXMj9uIKtTFtp5/aOl4etKDtW/vQ+ydh3Qd8/bqNM6stX++a3zcnpPZVJGVNnTHnxasQ2W+FWiuHPmolpeUzflygTusvU2fI1BmShHQUbWt1XLdBKzQbwYd7TKzew56cg/pa213wGxEvAODGP3YkpPaTqTPkiZnDx07Kv1mMIEG/DWP3RQ1C+LGk7MspM4hGJVBLSO0HACBbva2AWkD1W/T2IR8UmKOSw97chC2GtluQqGFgx659KhtqBG3ZA0eeOX8xtAcKoanVIIQmk+nFy9fjJ3+nTOlLQEY0av8ho20551sVTDsOMAwaatG7R/1AW/E+UP7cilgIc9nuLtAKMJB74Kg6vVXREhXT9B+2Z/+hispKXOmG4l/ooEZ0rjEMK6+oPHjk2OARY5M0OfHJ2SRnRItO+Pr7to7aJzVjhwK0mpvxfTYKHVWUF/zdOYwvIMAwu8u2IxvDwJHjpxI1OfZ1k6kzVGn91KnZs+cufPj4CT52sf2FDHWhgBrRJE1NTZeuXJv0zTShPJErkPNESqlKI7X1z8gWVSRlzZ77C4a5MqA27AgKIWLB3hRSecjcjQwK9+KeM6POio9w2+Fl/xZg4K+884maAWTFiIJUpYmVqKJjpbGShH6DRhw8fKy2ti5kgAti1Ig2QBD0/oNH8xYuEUhVbJ6YzRVHcoQsnlisTJWqNA5tqUjKWrF6PYa61Tdt9q5D+7lgr65DczO+TsYTan9fvOqMGjFqiYqVRsQIWFwRmyfmxMm+++HHwuJbKIoGO3PBhxqEEMMwiwX592PJhs1b0/sOjOJLWFxRJEdIvjhChTNnMnWGIilr+659mHvT1qp7CFAAsG0MT2+gULwffHxgRREr8MCZ1dZXu3bjprMBlakzpCoNX6IiHwT/2diYU6dlr1634e27f8wWC4piweiKCybUUAwzNjdXVVUfOXZyxJiJfFE8iytygIzQB2JlmkvU5ImZR4//5Rm1NtsH8UwfD/6k9PHuQ+8cwRNwuBzYtl2qzZ4CDBTfuusONYkyLYovtaeNAI7FFXGFiiEjx+UeOFxeXmE0GoNrABEEqEEIjUZjdXVNQWHxV1OnyxJS2Lx2OsyhVWLi5A52k3wrT8w89/cVir6afY/qUxni6dmeXXTt4y3ehz44BfU1Dp6zT99tw8v+CMDgg4dPXKJGKDaeOMHhoezfsngicXzS+ElTzl+4XF5R2WSb1Q380UNAo9ZiMlVWVt2+c3/JslXJmn5sHt4P8/gSxbvopZG0Xc8vBBhVn92eibaum8UEPtx19LoV78deXLZ5zry4IHHN5y9eUaAmVqbReVgWV5SQnPHDj/OuXS/4+LGkqakpkA1rIKKGoGhtXf2du/c3/bF94NDRfLHyk5UUeOSMzZPgA0+nAQGJWtGtO9R9dgfU2t6iKKh5h94/iXs9Cveitw6CD3fwLC+uTCT1QQjgu/cf3KFmq6qGK4z3+LDECSyuKJovSc8euOjXFZeuXCspLWtuCcQgpQBCDQCgNxiePHu+Y3fu+ElT5eq0KL6EprjJ0+JkiRScydQZd+48AO6dHRSI2ADFMzBgL6+id4/B6rd4wkfbvBbFt1x+BAEsK6ugQE2q0ojiUz79wDwr8lbmeOI4aUK/wSN+XbH68tXrlVVVATXZ1fWoQQhRFC0pLTtw+NjX385I0vTjChUsLl35kpBFcoQRMQJqzmTqjFt37ncMtU/QQGgyWq6dp/acfTrZdV8NAlhTU0eNmlSliYp1HBzYPyxFOYovkSiTh4wct3Tl2qJbd7Q6HQCgy21rV6IGAKitrbtw6cqUaTPTswcKZCpvf8cO4o4RuB0QkAa0sOhOx1Br1WpabfOi+brEBNPuXThPlP4zd8BBABsadOp0x9kCspLE4EAgT3J4QG/fxsTJ5Oq0QcPHrv1908tXr01mcxcC19moffLsG588ez5v4ZLkjP4iRSKdLrBHKUfECKgHBMTE1OWr+V6OQFs1EwQQ+/DBMHqEVsjX8qK1UlHzr4uhqTUEzR1VLo9DABsb9WSwiT1h7csaj09N8wSeKF6hTh84bMzhYycrKqtwd0+n/3USagRhFgR5++6fzVt3aPoOEsrUnDiZj2rMQdDUAwICtVOnz3njV7NxBqAVQOTGjcb0ZG0sF+eMeAn5Td9OAfUN3uo2CGCTwaj6FNfUHi880ol8cYQKh2f05S2bK+bbmJs6fVZBYbHBgI9YO03PMY4aPkkDQEOD9vjJv4aPnsATxUfHSv1LGNFL44qUhN0h28m5IE/MXL9pG/0RKHEmHiWyZ7dOKtTyY9o4I2iL5ehHDsdKS+lMEpAaDgJYX69NpDSgROXFyrSIGEFEjOeht1cIRvElHIEsSdN3w+atHz+W4IstIGRazTGIGjGDlF9Q+O302TE2Bdaxzr5HIRKN4XLS04E2RVLWz78s1+kayVanKOCcAQgaGow/znQkjFRsvGgtN6oxW4M+f2bFgEeI8TUNAAIMvnnz3uUcqH2FiSGOx8f38YRovmTi199dz7+JICgeycfYH1OomS2W23fu9Rs0gs0Vs7iiCBquV19ExuaJJQnp9u3ksqxIypz87cyy8nLqGXecPwCtKIa+eqUfPkTLjaJCzUabLkmFXL0KLQg1bcRwu7au7uq1Ao+oEY/AEyt9kQyd7xLze6mZOVt37G7Q4sNVJnhjBLWmJuP6TVvjpAl+N5QuBRcRI+CJEzy6OYi+2pBRE6uqq2vr6twxQRwHGEBfv9ap4z1AZqfedAqp+UweQFFcdbnytxEqTavVlldU5O4/Yh8a6fKHQfQHxAm4DXX54P49SMzrp2cPfP/hAxO0+R81vd6waMnyOCnjv0V7QXsce5JtmaQZgCJoZVUVvkTPDRAIgtTU1ppKShqTVZ5V2ifadHKx/uSJuupqs9kMXBlTCKDFglRWVWm1uiXL1zqEbZI1dChI1RoWvRk5e4F0uMzmiVOzcsor/J9YxM+oGY3Nm7fuEMrVHX7UDnwxii+VJKTT0WqEnkBRtNnYXF1T086MAqutFwWamozlFRX4pyaT5fIlXYKCjmLTSYXNK5cjWm19fX1FZaVeb0ARXL2RfUH84gDodLrKqiqLxfL1d7PkiZkOVLl8K1VlOIQVdUBEXn2FI5B9+/0svcHgXzPqT9QwDLuefzM+yW/eIDoCiogR8CUqmpzJ1K2L8zAUq6mt1ev19jRYLJb6+vryior6+noUwVdVwSZjy+5dOoXUA22i2KYZ00BtLe57wzCDwVBZWVVdU9PS0kKoN8J0IhakqqpKr9cjCDJ09Jc06yxVacTKNDqi8OM54vikvLN/+9f95k/UKiqrRn8xiTrCx4/iIC7F4orElKEcDqoiTpbc3IwTYDQaCQVDxCoSb6uqq43GZvslVUCna161Avd0fDKUjoVYjn7sKFBRQSgwgiqz2VxbW1dRUanVahEEHysADDQ2NtbU1KIoajZb+g0eRR81XyapOiZwNk80aNiYqqpqPyo2v6FmNlsOHj7GF9ONR+iYCFx+K9am1Tz6bwnmJAma6mpc/aAoWl1dXV9fb7EgDQ3ayqoqna4Rx8KpAwcaGpp++F4bZ+e8JbHjRjVqUrB37+zn3QnaMBRXbxW4fsPxtZgtVdXVzc3NEEC93pA1YITDb8D5LflEAnkSm+d15IFLWdE/KJCqDh457sfxgd9QK6+o7DtwOP0n8eOZeBRNrFSoSCb0BLW2UCRlEdOgEECD3lBeUVFRWVldU2Myue7LE+FloLKyMaev8xBBJ5dY/j5vRTHnCYNW9Wax1NTWEneprasj7Omr1+80/Yc5s0UeIR9BqEiJ9vecCk3Js7iicRO/rqmt85di8w9qKIpeunKNI5DTfAwmTsPH6nwJHkRE6WCLT87esmMv0eQoglbZFBvuLne/JgD/CANNX09yRI0b1dg/G5pMzpzZG1MMw/R6fUVlJZGWBmAg7+yF5MyBJFguC6L41Jg4eed4i9w1hzQh5Xr+TX9NJPgHNZ2uccLkqQxNBrgThMNx0vnE5onxgYINOFI9kM0pT8z8+rtZxGiA8D7Y98zIAaNDAaKYYdIEZ9T0QwfZm06Hb9kDhyAIOURYt36Lsv0CVbJ6MnWGWJlmC6OiCmp3eHaG3rK5oiXLVjU3t/hFsfkHtbLyCqm4zK8AABzaSURBVLHC14gX/8qLxRW5C5PMzBlOzLhTaLJ20AB8dYN+1HDHAQE3qnFQf4+oESaYvBeGYd/NmOv8GyBW5vFEZMhxRyL2/CvDSI4wK2fovx9LAgU1C4IcPXGqa1Was4jZfIkoPtVeWxBlqUqjSu1nNpvt3RztwHIO4AYQVFbq+2c7o6bP6UsHNfvrW8yWMROnuERNqtJwRZ3q+naWm8OROGnCtRsFfrGhftBqRmPzyHGTHKrYtW/ZvFbOXLZoYnpOXV2DV6ihz5/pklWOqPGiG7M1eGJbZzrdHLEFRWoHj5zgsmKEh5kXSLSxuKKVa3/3S8pBP6DW0KCVqVK7li37u7N5Ypf6jNRwiZoB+QXF9GNx8S5dQb5L15ouLRm4n051RhACeO/B48wcKk+HVKXBaWu/iNr+ATu5nDNkVKU/HGy+ogYAePTkaRSf1rI5pmUUwRGybSkUSKpcFhJS+q5etwnYzRo5M9HuCIDm48e0sRxnraZTx6MPH9JfbAwBPHjkpMegSJw2cScFK3hsFHF88vMXL323ob6ihqLY+k1bunZMTggrIkbA5knEShf9M0fgEjPGfzWNftg3BLBlw++Ow0+bF1cnFZqPH6NvizEUW7J8rWN97MJuyY/wjAriBBan68ehUXzJX3nnLD5nGvQVNQRBRn3R9R01nDN+K2fuukH2rdh/yBgT7WUBEADj/HkuUdPGcppXLqc/MjCbLVO+/9FjDYmqOufv8KiBmDiBxRXN/mm+wdDk4zjUV9RMJpMyKYPFcOQjtQQjYgRRfInYNt6k04pSlSYzZ3hpWTlNbQRbTIbJX7pGjRvVNG2qOxduOytsS4FbWVk9fOwkh1Rc5G/AuSBVaeKknRom41LUmr6D6urquxI1CGFJaVl0R5crunwqbw+2ckbHbtrZqeSMgXlnL9DqrgEIqqr0g3KcO2r4EW6UfvQI6DG1kW1ACgEsvnU3re8QZ6TcHcF/OSpNnCzRW7H493yhXF1WXtHFqOWd/btrO2pk/4yOPiNbVJGUtXjpGjrzBFYA0ZcvdIlK16jxohv7Z4EGWoumAAb2HTyqSMoiq0GzgKf461LdxuaJ828W+pj4yFcDumDxUv/+gLy9Gh5E5CbFFUVDSlWaCV9NQyyIg41zfgshRAoKWtd+kgEddgVdYgL68AEdG4pYkEW/rqKzBsKh5lKVJiaui+eXV6753WQ2+6LYfEINQjhk5LgunyeIkyZKVW1rJx3ayd3bISMn1NbWe+yuQQDNR4+47qgRwInjzH+epHMdnbbxy2+mu6sPxXEJvkSvi+ephowcZzT6tD+zT6ghKCoKgKlPNl/SAVWRlj3k6vUCj9013NOxaaOWw3ZnQLW86Oa1q+mg9vzFq8yc4RRIufuIflYib20C/fMTkjMbG33an7njqEEI3757T7+uzJ0ZESMQyJPctZO74/LEzHUbtnqcM4AIYlw4n0qrcaOaZs7waEABAHnnLsqTaK0nIOssVWkkCenMiY7+lTkCWWVllS/rkn1C7fiff3XtmICUVBRf6tWwgAij+HbGTx7m3fElx1rDxPEUKk3LjTJ8MQaa8S0KKF6IBVm5dmMHtG+ATImyuKKr1/N9WW3gE2rzFi4mG7vLC0JFMqkMaBaGjppYVlZBZfsAxEpKGvtluUihYDcyaMzJBpWVFIoNQmtDg27C19/TrBh5mlSlIePwulbCLK5o1dr1XYMaAGDA0NGBMyscxcfzRZKNRKeQlDHwyrV8KtSgFX31Spcgp9JqvGh8JvTJY4rrQABfvnqblu2dR6113r1L3eP2fI+d+DWCdHynmI5rtSajUSBrl/bcvlqdX46IEQgVKXQIsztHs37z9narQZ2MIHrvrlYUS42aVhRnuXqFwnoCDJw5d9GrX0Lg9NKIpmRxhUmafmYftsvtIGoQwhevXnftPIEzzVF8qR1Gnt0fUpVmyvc/4rmf3ER54OFD169SjQkIM8qPMR066O4iVmg1tZiWr14vSfBO6fJEVHm+nR+f6SNcoaKuvqHDrrUOoma1Wk+fOd+BXLVMi0PkpWLLHjjyzdv37ijBUcs7rY1hedBq3KiWTRsoYiSrqmpGjvuK/s+AUGksnjhAOmq2VsM3iCksvt3haKIOogYAWLpijV+yPfoXvii+hH6LEvuznD1/ye0MFYDmI4dooMZuXraEgtfHT57bb+DnsYa2XlpgqTS8mbjCLdt2dbZWgxCOGT85AFGL5Ai9GopKEtJ/XbHO4maGCmKgZecOav8trvC4bOOc1lVYzj02DMVO/JknVqZ5JIw4AVdp+L4Fnb3GmM5vfsq0mZ2t1ZpbWuITOzU3Bx1BEOd422MbPnZyZWW1S50EzebmNas899W4UYZvJrtbEKrXG378eQlNzlqXF1DuxkJfFP49k8UVafoN6mzUPvz7sZPTDdGXGosrEsq98LHFJ2XfvvvAJWrA0GScO8dDR802MtCPGg60WpeutZLSco8LjEkQbb00fMOGQOqltU2/cgTylpYOLgvtYF+toLA4lvlshvTxcjgzOlZGNp7HgliZtiv3IJF6yMH8gbo6w+SJ1P5bAsTG/llYebkzasAWo0bfC2OLvA28Xton3x6LK3r67EXHFFtHUIMQ7tiVy+3StAkObDm89VaxTZk+R6vVOXBmhVasvKJxUA4d1HTJavTNG2fUTCbzpi276AeeiPFt8wKxl0ZI+L9sFcdOnuo81AAAM2bPDTSnmgNtMXFy+i7TpIwBb968c7ah2MePutQkWqjJxeijRw6oQQB1usacoWM9albiBGKXY4cHCbS3CxYv6zzUEATpN2hEgEy0u2sJrxSbWJmGZ65z2v0Ye/NaKxPR6atphXykIN9BL+KZvN+9p2k9iZR97ABWacS2pCPGTuwk1CCEdfX1yuQMd20cOMdtis1z2m9Co8z/ZXlTk9GBFfTJYzoqDWeRH2M5d8ZBq6EIevTEXzSVa1CoNBZXKFelWjo0PdWRvtrrN++kCSmBg5S7muCKjXa4R3rfoWXljlEeyJ3bDZRBkW0KjxtlPnzI3gRDAE0m88gvvqKT87ZVpQWkL81BvByBvKS0tAOKzWvUIISXr14XSANoot1BFvZv6Ss2sTKt6Fb7nc4ARAryG6Ii2niyCxxyPMhhm3Zsd0Ctvl5LndKB7MMFyJJPe9G5K0fHSgsKizoJtQ2bt/FEXZCI1N3DUxz3SrGtWruxpaVtK1l8AvTKJfqotfy+zh41gIHLV/NpWk9JAq1tjSmetNM+iuJLdu7Z10moTf1+ViAPyB2EHh0ro5lqPr3vkAatjsQFAmA+k9fgca6dUHXcKHwjPRTPC068AABjJk4h9RZFoVWldfVCFQe5uXsbxRfPnrugM1Brbm7pqpy37h7e43EBvckDoSLl1eu35NQ7RFDToQMNHnf9+WRVm2bPhC0tJGooisbJkuhoNUlCeoAP5+0lzOKKcoaMxKXk5Z93fTUIYWVVdWpmjv29A78cHUtrDw25OuOPbXvIxaHQZGrZuN6xT/YJLOfjhskTybkpgIG79x5SaDLyI1yliRMCcxrKXctKlSl6vderp7xDzWq1vnr9Rtm5m2C4e2CvjtNUbCmZA00trQklgcFgXPAzXWcHL1o/bDCxwoDYeGXMxCm0xp6BsSDKK2EKZeq37957a0O9Qw1CePHyVZGii1NIeCUX4uQonpQ68zehZuJkSVXVNUR3DWi1hm8m00etMSMN+/CB2BjUYrHE0bPa3CAZYNnLPFasLLhZ5KX9tHqN2rade2IlgZWv1V4K7soRMQIiCzN150memLk79xCxOBTU1emHDqKPmk6lQF+/JvZ2uXP3AZ3cHAGyxtOd0Nwd5whkHRiEeocaAOCn+YsDfPbTnYBYXHzPUGrUZOqM1OzBAOCbyILqal1KonOfzO0RcRz68CFhPadOn6OgsVtZ12bicCcoj8ejY6Wz5vzs7cjAO9SMzc1fTJoSyW0LYPJYrcA5gdz4jJq2OFlyYyO+zRkoK9VKBG7BcjU+QApv4pMELSY6AWoiZQAlEPaqmf4LJRowdLS3iYm8Q626pnbQsDFeVSvQTqazvnz/oWMAA9g//9C3njiRHLbl4gWAgcLiO3T2ZY/iSwNNOPTro07N0ukavRoZeIfau3/+CTpPh4P4uMJ4aq0mU2dk5AwHAGCvX9GdKrBpuIYYlvnUnwCA2fN+oeioEZuUxckCa0cRByl5fKtQp3/496NXIwPvUCu6dUehDohsJR5lQXGCx3xskoT0JoMRffa0gd2HvgFtiGGZDh80tZgGDBtHus1cFqQqDTtQQ7op5Gb/kUiRePvuPaZQgxCe+PN0wC4psBcEddljOHh8cvbRE39ZHj5siI6kj5qWG9W8fWtBQVFq1mCXhBEHperO3rWYWhod+zRWojxw6KhXIwMvtBqEcOMf27t2e7yOycXxW3hwkYeUC8PHfGkpLqI7AUoMEbhRzWtWLVq4lMJz27rwLrDjHx3F9Wlhgf1xjkC+cMlypvpqZrN57oLFQTRbZy8ah3JUrIdcMsmJGfVTv2lwNcyk0HMN06eNHjaWui8YIEmsHATi7Vs2TzT6i8leDUK90GpanW7y1One1ikwz8f31ZMmUpi5RJXmhEjkFWoNvOgrMlm62m1iDlv8Y2pgriX2tpkiYgTZOUO9GoR6gVpFReXgEeO8rVPAnm9LkuXeo6vSfKVIbKQd1qHlRet40Stk8TL3ibfwjfGEwRHnR6fVUjL6l5aV0R8ZeIHaq9dvkjP606lEsJzDFye4M3ZSlaafMrWaF0NTsTXwomt40ZMUiRL3qIkUKSxuQGzG5ZcGik9Mf/T4qf9RgxAWFt2Sq9L8UssAuYht7zM3qTRUmpSEtIsCAU3UtLzoB3H87AQ3V1Nn2BLCywLkwf1SDZE88cy5C/RHBnS1GoTw9JnzcdLAXXjdMfFReHTlKs0CmVLHjaYYB9h/lCuWKNyoNKlKIwhyn62zePni+E1btvsfNQwDu/bsD6I4b2fROB+JiMFzhoniXTs+pCrN6Phkmja0lhc9W+7aHBPJ0oJ6GspZdJEcYRRfOufnRfSz49LVai0tLUtXrHF5y2A/GBMndzcxqklIKxTEebShDbzo13zuQGWKyzFBUCzw7Fgjjp881Whsptldo4uaVqeb9sOc0HCqOYiVxRW52/ZAodKsl8h1NMah54VCpRvrKcaTpYXOaMBeeoNHjK2pqfUzatXVNSPGTLC/TSiVo/D9XFz06KUqzTeKxFpeNLViq+dFr5AqXA5mQ8zB4dDo6dkD3//zwc+ovf/nQ1pWkK1ecZAL9Vu+REXEXDj4dfsmpD6M5VOg1sCL/ofPGRWf7NJ6iuODNSiNWlzEp4rE9Dt379McGdAyoBDCR4+fBmyaSDpC8XgOiyuSuMohqlBp9oklOsoZqgJBXIIq3Rk1qUoTYgMpBzGKFIl/5Z3zJ2pWq7Ww6FawJE9wEAf9t4Tjw8EOSlSaOfKEevc2tIEXvUcsFbvaui9OlhRcq+7oy4o4kytUbN+1158GFEJ45tyF6OCPR/AoSrHzbskqzSBlyqtYrksb2sCLLuXFTJOrnVWaTB0EyZo8CoT6BBZXtHjpSpqT7rQMqNls3r5zL4sjor5xCHzK5rnY71Gh0uQJ3WZZexjLT3JlPTkhNN1J0bLfzfjRYDDQUWy0UDMYmn75dWVIejqchRgrVTuMDyQqza/S+DpXNrSBF31GKBI5WU8xvlmswPnioXdk9PjJNP0dtFDTanWTvvm+m6AWESNw6K7JVJrhyuT3fK79NBRRruTF/CJTOlhPPJ47GDKl+YX7rJyh/34s8ZtWq6quGTBklF9qFhQXiY5rnyBcpVGqNNcFcc6oveVzshJS5e2dt7GS4Eg+55e2SEjJfPDoMZ1BKC2t9rGkNEnTzy81C5aLOMwfSFSaLRJZXXuXRwMvujguVqRut29aCM8NuGw7iTL56vV8v6H25m1wZCR1KYuOHWTz8KXwbe5clebL+MR/+Rx7xVbDi94skdlbW6lKwxEoOnbHIP0WTxR/8lSefwwohPDx02fBkibSjw3GFcYT2/DgwKk0Car0e3F8ErUGXnQZP8Zhil0gS+omPVpSzmyeeMv2XXT8HZ4NKIZhV67d6G4SJBKn22dtlqgzjorE9Z9saAMv+h2fK1RnkmMCSUJ66EUKkUi5K+CutWUr6cR3eEbNZDbvO3ikG6IWyRFGx7azj98p1KWfbGgdL/qESIRbz09jAn53Gg2Q5LG4om+nz8b3svH05xk1o9H46/LV3RO1SI6QL1a19thUmniV5mUsj7ChtbzokfHJ5NhTiK8bCH0XN0mYfWHY6PFV1TWeSKORX83Q1DRl2g/2l+5WZTZPTCaEF6kzrn2KlNTxouMSMwlnr1SliY6TB6xY8IA8GYP+l7SsAXRCiTxrtQatbsDQ0czJUaRIUqVkMnd9368cIyC2q9LI1Rlz5QmVtmVUt+JiJcQkgUoTK1X7fhfmrhATJ5v49XfMhWcqkzKePHvuB61WW1uXmsnUmjwWV/TFpCmDho0JcOtDzFbJbDa0xNZdm6JQy20eNbEylblW9At/fFH8bxs2++VSLi8ilKuLb9/1A2qVVdXMrcljcUW/b/xjxJiJkYHd0SGW8UlVGqE6434c38iNEto8IDZHWqCvIhbIVOcvXHZJiV8OxsTJLl66CgCkps2DAYUQlpSWMbjLLFd07sKlMeMn++WZGb0IR2gL6VZpfpHFP4nliW2oBcWSO7Ei6f7Dx8wJh8UV7j94xGJBfEINAPDk6XPmDASLJ3724uXX3wZFKhBRnCzR5svF14fKVRpJQjpzkvEjGbKE1Ddv3zHXRWFxRat/22hs9rB0yoNWQ1D07wuXmYtUi5Oq6urrZ82Z70fJMncpYrWLRKVJVOFzVhxhcMxBKZM0lVVVzImFxRX9MOfnxsZGn7Sa2WLZsTuXoR8EiyvqP3hEc3MzHgwXJHGXHEHryiihPGgyjCamZev1hjgJg5kJxkz4qr6+wTfUzOZFv65gCLVIjvCHH+eZTKZ16zczdwu//5oFtp2jgqjCKRn9TSZTZv/BzNU5s/+Qysoqn1BraWmZ+PV3fm8t4oIsrmjrjt0IgmzbuScoOj1ktaNjgynRi6bvILPFMmXaTDaPqfkMdWqWxwBJD321JqNx4DCm/Lcsrujvi5dRFD1w6GgQocbQD4+5yw4cOtpisTBqOiTK5Lfv3vuk1fR6fVrWAIYU73/b/T15+hxF0T//OsPcD465JgyWK48eP9liQU78eZqhdozkCHlCxdPnLyGlZ82DVmts1DPnvxXI1FVV1RiGnfv7Uhg1hsBlcUWTp3xvsVhu37nH0C2IgKv8m0XUWYk8oFbf0MBjZkjP4ooy+w2ub2jAMOx6fkEYNYY4YHFF38+cY7EguGuNyWH+0eN/WiwWChtKhRoA4M3bd8z1or74copebwAAFN26zdxdGGrCYLksiyv6cd5CBEFqamqZEzKLK1q/aUtzc0vHUSssvs2UgecKf164pKXFBAC4d/8hU3dxlXM/WCjxSz3ZPPH8X5ZaLEhLSwtzE4wsruin+b9Qx+JSaTUMw06eymPop8Dmibbt2GOxWAAAj588Y3V7JvwClvNF2Dzx4mWrLBYEw7DUzBzmftJfTJqip1zm7gG1TVt2MFQ5FleUd+5vBEUBAM9fvHKWUfiIXyTA5omXr15ntlgwDJvw1bcMtWYkR5gzeCR12LcH1OYvWuqXB3a+SBRPfO/BQ3yTVwhfvXnrfEL4iF8kwOaJVq/bYDabMQxbsHgZc3u5pmbm1NXVd7CvhqIoc9uvxEkSiChhCOHbd+/9ItbwRZwlwOaJ167fbDZbIIS79u5jSqtxRcokTXUN1QoDKq2GIMiw0eOda++HI1yhKiWrrLzCarVCCN+9/8cP1wz39lxJgM0T/77xDxtq1vMXLjGFGkcolKkrq6o7qNUsCKLpO4ihyvUbNLymFs/YCyF8/8+HMGoMScAONXjn7n2GWjOSI4yJk3348JEiowKVVrMgiFyVxlDlRo+frNPhEU6tqHWPFFEM8URxWTZP/NsGQqsxaz3+88nfu493vt0pNirU9AYDXxTPCGpc4ayf5hNxm+G+GgUovn/E5onXrd9kNuN+/IYGLZeZuR9iburipasUc1NUqJWVVzDCGUeIhwivW9/SgjuX8RHo6/AIVOg7VS6vwOaJV69bbzabrVZrk9GYrOnHXJvuP3QUQdyuMKBC7emz58xVa9/Bw8SUGQDgxcuwX4051ETLV60jRG00GkeMmchcm67Dh7o40y7/qFC7ej2fuWqdv4BHqlmtVny24Okzl7/I8EHfJcDmiZfgswW4ATWZTNNn/uT7NV1egcUVzV2wuKXF5JIzq5UykcLRE38yhBonTkZurRCeA3XZcv46iM+BLvqVsGsWBFm9boO/rux8nW+++6HJaOwIalu27WIINZE88cXL10SdAACFxbcYmml1Fkd3O8LmiWfPXYAguAHBA54PH2OoTSM5whFjJzbq9R1BbfHSlQw1jCol69371r2JAABXrt0ICtRYXDFXGB8rVfPECcGSWJnFFX03Yzah1TAMu3j5KnOo5QwZRTENStVXmz5rLkOoZfQbXFrauu03AODs+QuBjxqxwZ5UhW/3LlVpxMpU5trMj2JncUUTv/rWYhsY2oJonjJVba5I028QxTQoFWoTJk+NZCZuc+CwMdWfMnJBCI8e/zPwUcNXgCbgnBFZS/FdPqXqoNicYNio8cSwAEL4saSUL2YmyQhXpE7LppgGpUJt8IixDP0Cxk+eqtW15hmEEO7O3R/gqEXECGIl+NYZZCJmQrEFBWpZOUPMn0Kxa2prlckZTDQriyuSJaRWuF8NSoUacxOgM2bPa2pqG6ps3LyNiYf3oxnCFwWJ8f2ySdqkKo0oPiUoUEvN7G/65O5q0GpzhoxiRtoikTyxvAIPoXD5R4WaKjWLiTrZ9sBaZZ9NJCgSoLJ5ErEyjUwTKVVpYgI4U2TbzyxGkJiabTK1ursMhiZbv4gRj3GcJKGsvNwlZx78ahJlcluNXQWodOxT25KHreTDW63WmcGQHiYiRhAdJxcrUwna+JKEoFBpkRyhMklDSrulxTRv4RKGlk7xRIrSsg6hFitRMhTyv2ffQfvJMuYCMDv2Y3D3LYItQtNHxAiCBTVpQgrpxLdYLBv/YKq7whHISj45Fpx1G5UBjYmTRXL8v/1bFF/yV945MtrkvyCiUeMmuWvd8HHfJSCUq0nUEAQ5cYqpZe7RsdKSklYflneoMdFRw9Ozi+KvXs8nqwIhDPxcuL63dxdegStUNNuCaKxWK4ZhNwuZmpuJjpV8LCklW9ahQKXVGJKORJl8yy5LL4Qwo99gFpeRjipDjxBcl43iS8jkZxDCl6/fMBS1xhHIO2hAmRAoiytSpWQ+evKURB5CqErJZEiDMvEIQXdNFlf0+s1bMhS7pLSMoeBqnii+g8MCFk/sd7GyuKLUrAGv37y1R00kT/T7jcIXJCXA5orzCwrJznFlVTVDHlPc2dGxEag4PlmkSPT7a+jIL4i1UgRtTU1NfFF8FF8SfjElgVjJ4aMnSdQatNox4ycL5YlCuVooUwtaX6o4KfFKiJPgr1jiJVbGSpR8sZIvjueL8BdPpOCJ4nlCBU+o4BIvgZwjkP2XUl6qTC6vqCSViEOBqq/25Omzx0/8/3rz9h0xJUdUBUGQ23fu3Qq/mJRARWUbASiKvv/nw6MnT/HXY/z18PET/PUIfz149Bh/PWx73X/46P6Dtte9Bw/x1338dbf19eDOvQd37t6/e/8BRZpSKtQcqAy/DUvAFwmEUfNFeuHveiGBMGpeCCt8qi8SCKPmi/TC3/VCAv8ffL/B4ocQ0zUAAAAASUVORK5CYII=;" vertex="1" parent="1">
          <mxGeometry x="747.48" y="577" width="73.02" height="95" as="geometry" />
        </mxCell>
        <mxCell id="_nvLQFHXTz9P7ObtZMR7-9" value="" style="shape=image;verticalLabelPosition=bottom;labelBackgroundColor=default;verticalAlign=top;aspect=fixed;imageAspect=0;image=data:image/png,iVBORw0KGgoAAAANSUhEUgAAAK0AAADiCAIAAACzw9CtAAAgAElEQVR4Aex9hVcby/v3+48Vdyj1NgHiQnAtTnB3DZCsRQgES4JbqFDqWN1bqkCp4pDk7bL37g0xYvTS7+/2cE4nk8nszPN8duTR/6f9799/FNBq/99/RPiPAtr/cPAfCDAK/Lce/IcElAL/4eA/HPyHg/8w8DcF/lsP/qbE/+3//8PBPv5vbe8uf1l79f7rk9fL958t3n+++Ojl0vOFlfdLP7793NBoNPta/w99+A8H/zDz1fuvZ+OlxyPF/uEivzCh799/fuGigAhxYJTkbLw0vmywXnpTdfPFh+Uf/0uw+L+FA41Gu7ax/fnr2qt3X0euP/+0+G17dX3989flBy9eX7p9XTwUkSBKThUXZ0tr8tuaitqbitrrC9sr86TZma1xSaLgKPhkKBTAAr0ZgBsdOBXbmsNTjd948XH558+1LbX6D14t/q/gYH1z++GLpZ7xR9mNqqBkmRsdPB8Bdzb3PewYmUeUlv/dAhRjvJ72qs6a/LaUVDE1GvFngQERoosVQ22D9+4/X1zf3PlnhflzSv/7ONja3h29/jyxfOhsfJsHEyJFwcXZUll150hj9x1QYTkCDFtOQ4qrLfL++u6monZ2nNCLCZ6JkyaWD6luvtza2v1zMICO9H8ZBzu76pGpZ4GRYieqwIcJFnClV1t65qx5+w15b6pmDlHeEMiLslt9maATVXAmXjp+8+UftFP8b+Lg59rW9bm37ByFDwsMiURaittvCOSmWOjY+hsCeUuxLCQK8WGB7BzF1OzCz7Wto782/K/hQK3WPHyxlFk/7sdB6DEIWCr7bQjQxdOUQA6WypixQv8wYUbd2NyTj7u76qOMhv8pHOyq1cpLj87ESb0YQENh+xRfPgdbcQbUZaT95TlEeV0gby6W+TDBkzGtrQPzW9tH99DwP4IDjVa7ur5VDk+60gB6DHKpucd+RjqqhxsCeWSiyJUGpFSPrHxbP5pSh/8FHKg1mmcLK1FF/Z4MIJ/bOsX/TUcBy4FyC1TU5LcdZ4Ok1M47D97v7By5PeJ/AQePXy0zuD0nOJCovMPOq6DlrLW25QyskNd2BUfC5+Lbxm++OGoS6j8eBwsfvx2PEp/mQP313Yd0J7SW5WbaT7bIWXFCDxY8fuP5kTo2/sE4UKs1T14tB0aJz4ZBitouM9Q/Ul9dbu4JjRM6U4GRqWfbO0fl5Pin4kCj0T55/Zma0X2aA8lrOo8Upw8czOUWeXiCMDBKorr18ojcJ/9UHHz/uRlR0HuSAw02dB9I9yPYYEogZ8YKzyW0PVtYOQobxB+Jg121JrN+zJsBtFZ2HEEeWzik8aae8+FQUHLH+ub2vw6FPw8H2zu7rQNzrjSgLFc6DdmlKLKQYYfUbA5RSio6fJlgdqNqbeNfhsIfhgONRntt5k1AhCjmougG8AeDAMPWNKQozZG6MyHFxCP1v3qV/MNwsLiyGp7fe5oD/Stag8NYGKYhBTUGIad1vX7/9V/cHf4kHGg0WrBn2osBdlX/YRcE8wAa5XX7MMHmjtu76n9Nzvgn4eD5wkpgpIibITmyQkPz/Db17TSkyMlsPRUtefPh27+1JPwxONja3g3NUZwJg0YaD/GieBOQq5p6fr+WcrCh+wwHyuGp/sPBARRQTjw6RhFU5bWZequsqp/kyxmxQkmF/rUzP0tKjkKutvxuTdUcrExLkzhRBC/ffTmAEIfz9Z+xHix9WaVldp8Jg27ZfUeYhZWK2i5/FnA2DOqp0ZdGM2OFkYn/zk1koKHbkwEU8i/v/ht2z38ADnbVmp7xhz6hcFuVA46HvXVd58Ohc+GoSsJw/fdjgjmZrTP/hvXKLKyMSBCdS2j7V04JfwAOvv7YCM1RsOOEs3az5wYgZ8UKT4RC401GDFWuC+RuNKCuwDFbj1X7FNZYWdflzoQ6Rx/8fkeIPwAH12beeDAAmSMWg6o8qScdEJfrHwswNvTXd3kyAKhUZgkL52DlRFPPdUebvxIi4LSa0d9v2nrUcbCzq+bkKRmxyKTdVkaqph5fJngxRXzTxCEDk/JaCLgbgDwoEq7Kb3Os0UNlbtup2NZXv12mdNRxcPv+Ow8GWFvQZriXW/LW4m3mEGVyqtiHCSrr9M+GeBu4TObHArsMDo94A93CdYH8XDhcmiO1c2C6fc4jyqGGbj8W2Hf5yeFcC0z2etRxkFA2dJwNTthtd6pq6vFngREJQjOvr6gc1fp0WCasvAEoQqLgrIxW+08tulC4xpfTY5DEiiGTHDucL440Dl68XfELEyaliHUpZVu5qbjdnXbAIUNe2+XFAIQmTg96z70NKiITRZx4oWMvFzOwMjez1ZeDbGz9Vj/Jo4sDjUYDK6bdGGBfvcmVXI83pj5OQ4rkVLEfC7xrVk89JZC704CafIvuCzOwsjhbepwNOlzIDZd1eDKAqdmFw3nzjfd6dHHw7cdGXOngL1dz+xfePekhEpEgNAUUrH4OUZ7iQGlpEvNwwTsRl3d4MYBuR1vFDTd2nwiFSoArxjl2OLVHFwePXi6fjpPWFbTjdLekcI0vr85ruwXsEwyP8nrOhaFnugN7SEoRh0TCV1qMSBcMfzve1HMhHI5JFBl+ZU/NXUgRFAmfiJb8TvXjEcWBRqMdmnzqzQQvGRP4mKLyDKTIypD4scAx3j5G9td3H2eDSNnBgoGO6k4fJthumaxidk8p4EoTGJVKzSPKqy09wvKOWdhqe5mMdIk7E3rz8fepH48oDnZ21YX8y+RoxNRd3ygUpJXogb8wq3VmP+kVdV2+TLDTgovAJF9OiUaYscjc/h6MPm4eUfbVd7nRgNQ0id4Tsfbi8g4/JmiDJS1cJnOlg5duvzycTcBIr0cUB5tbuyGpnVkZEsstEG+DikA2SI5GDFd1RW2XDxPotkAwMAcr6wvaPeiWShVnYeXFFPFxNmjUgaK3riuQDVZaryMd4/U4U4HG9ptGOHY4VUcUByvf1j0YoKDk4JUce/Pm9k7vbjQANiYV7q3rCmCBhlpmo2/5lEBOioK9GYDe5mK08TyinBLI/VlgVKLIUMZ8jS+/EAEzYw84nxr2PAsrPOlActXIzu/ylj+iOFDdfOHPAi15gzEijvF6TnEgWgxi9BY33Ii6u9RafOTsqenyZgCxF0W3LAuc01Lc7scCi7OlerKEOVgZmSjyoAM3959bDRlvWEOPQUJzFZ+/rR3O+6/f6xHFQbX4+vlw2MI3chZWVuS2udEApQnvtsvNPaQoxHJ51BysBEtledzW25bh4Dao4GZIfJhATmbr7f3Ki4bCdmeqwNDQwZDxejW53FZikuzF299klnJEcRCao6DHIDcse40m+XJaDEKLQfRIiX+8DSqiE0WUaJMN8JY2F+5CivgkkRNFEJ4g1H37Bxu6nSiCkuyDr6x6j0bKZIFRkrsPP+i/uYfz+SjiYHtH7cGC45JEZnQBulST16LLuPlr4RivR+92d0/Ud0+s8yfquyfs1e3W2vIMpGgsbC/JluquIrOw8jgLZMUJ75gVZRo+a5TX7cGCVLd+05XhKOJg4eM3Z6qgzAKxD0a+rAzJ2TAIj4FyT9T7UDb8RDHxvP/qi6HJN5duv78x/3H64eL806X7z5cfvlh++OLzo1crT998ebag8/dm5cnr5Ycv0b8HL5buP1+cf/px+tGHW/ffXpt9PXH7xdC154OTz/quPJFPPJSNWA6azHSJDea1t0H0qNgxcv/3+LccRRzcnH/rQhUIyy26LMzBypMciFuseDk5++XZwtrSl83vq9ur6zvrmzsbW7ubW+rtHfXurkat1lrlMKTRajQajVqt2VWrd3Z3t3d2N7d3N7d2NjZ31je3V9e3fqxufP2++unzl+cLH+88fDs5s3D57qvxm88Hrj6Rqx7Khu+J+zCY9td3udMBuMy48YvhSoDV/JJtn+ZAjW03f0/wlKOIg67RB+ihz7ShgC7tBhvQ9bP30uPD2Tcd0OvOrpqY1JGZboUsZB5RTkMKSjSS2zSx+VsUj0cRB1Wia+504LJlQv7ibOnpWOmjl8sO4NjhdKHWaGok18+FQdesMamagZVRiaKY4v7f4wJ7FHEQVzrgxQBmLDtYESJgSnrXj9VNU0z8sbp59+H73kuPO0fuD00+ffxq2SHx6zQazafPPyen33SNPugee3D5zquFj99MxUK78+C9f5iwzRov/VlYyU2X0DK7f/yWMJxHDgeb27u0zG5iJKy7+JsqYxbGmXXjRkGw9GWtSjTlxYbdGKALHXShAa500J0J0TN7nryya/3Y2NwpAa56hSKuDLRbvOewPOW9p58MzyFLK6ucPCUn3grB4hysLMuRnk9s//bTJMSNztq2yiOHg5Vv68EpHVEJFilzFbVdLlRB29A9vcnv7qqv3n19IbH9ZLQkoWyw7/KT+88XX737MvvkIyyfDknt9GBBr2z1HNpVa6KL+wMixdmNqit3X79YWHm2sHJt5k2VaIpwURYQKRb1zupFXVerNU2yW250cJRnqVPeHKJsKmr3jxB9+b6uN7vD+HjkcLDw8dv5xPbsjFZTa4BufUuxzJkquHX/nS5pNBqN8tLjgEjxxYqhuScfDYNdv/30XTZ87+v3Dd1fWV7WaDSqWy9vzL3dNgiD+H7xR4Xw2vFI8Z7z8j4vhGdvPgdEipNTxZab1YjKO9wY4Oevv0O0fORw8PDl0qnYVkNnkqstPWU50tA4ISNWWJIjxYJl5nFbnSiCD0s/dLn46t3XwChJVFHf8tc1wyVat+VhlFfXtyqQa15seHL6tW7/v+JhZTWM+7HAgb8DOk3y5TX5bbFJopRUsbSyw9AIqq2y05UGvP30XbefQyofORzcnH8bECHW0w321nWd5kDuTMg3TOgXLnJjQMfZYH99d8xFkTMN0As59unzanLVyPvF30E+o1z5+n3jfEJ7OTyp9+27T9/dGGDG3gWyr67LnwW6MSGvUMSTDbvSweRUsR4UOqs7PRnAo5dLev0cxscjh4Pxmy98OEJd29QpgZwajYSkdt66925rGxXnTM0uBCV3ECPgM2HQ2XjpYdDFzj6Xv66trRsJt18tmjoRCjUXt3szATq35/rcwvefmx+Xf/Jkt3w4SEPhPiO8nhrUbOLWvX27np0DM/XzI4cD5cQjDxZ0VUd48CtabkC48NrMG905zD35dCIKdRSPKOjVrT/i5Q/LP0JSOvbSO4G6L/r31c2kyuEANqgb9Em5Zzbxe6ySjhwOpAPzrjRA18wr9qIoLL93+cuqLo+3tnerRFPHKIL02jHd+iNeVqs1fZcfe7LhpKphPWHD2I0XbgwI0fGe6KvvOs4GR6Z+RwTeo4UDjUbD77rjzQB0LwVnw6CClkuG4tWp2QXfMGGR4GD77u0d9dtP3/uvPB2afPp+8YdDjHw0Gs2X7+tTswvdYw8fvFhaW7c08N3DF0tn46TKS4/0ILv8ddU7dJ+RRH9994lQsO/y7xCZHy0cbO+oa8TXT3EgXRx4M4BayXW9t0er1X76/DOtZrR77KEeQfU+ajSaoWvPTsdJj1EEThTB+YS2S7df2X+PeL/4I6qwz4UOHqMIPFlwBTJpoZPynQfv9wwL3uuNU63RBCXLgiJh3CRzsKH7FAfqOWiCev3Y9vFo4WBja6dYcCUoYp8w0Z0O8NpvGU5PrdF8/rq2cVCevI2tnTN7IDhGEWB/xCSZ/UtCkeCyE/WvDo9RBB4seHL/CcZwwFjNh6UfZfDk91Uj0oukyuGzYdDU3770Qw2oOV3X6AFAN/Ugq+qPFg5W17ezGsfp+w07vRhgXet1m9/g5wsrOALwwqfPP60ik2Hjs3FteG9YoV56w7CZVTWF/MunOdDlv516sfWg+/8gDrBjs54D2ikOVAxc2bY1udHX7xtebFiXZ75hQvtDGscU9+v26UwDesbtfXGzGsZPcyDc7v4vHPwf3Be+fF+PKuxLTN7n4MyIRVKrR8xoFM2/c2q1plJ4zY2BbuTHKAJ3JsRrv2V42jDfieG3t++/OxEtwfp0ogrYOQr715iY4v5zYRBulYnhQG43vAwHb1hztPaF5a9rrGx5VoZE95yYni5hZsntofKPtc3usQeRhX3Rxf29lx7/2n0MCWFtza5aM/fkI7dhnJWtqBJOvVv8bqcB2a5acyJaQo5GcKvMgfruk6HQwJXfERPjaOHg0+ef5LQuPctEqEx2PFL82JilCWY5Zi0Lj2b7hY/fPNmw7jvQV98VGAqO33jxGwZ8tHDwfunH+cR2PfGqqqnHjwW2Dc4bkuPes8X2oXv2L/KGPf/+mv4rT1zpYHvlP7EBUXkiG9TTVx3SwI4WDhY+fjsRLUH2m3TeBBSRCaKQ1E7Dy15j201XOrhqTJJ/SPQ6pG7XN3fSa8d8WaBuoFB5bZcfC7zzQF/ScBhjOFo4ePX+qw8HMQynLiiReTBQI249Eoh6Z51pgJ7eWa/Nkfq4vbP7fGHF8O7z8OXS2fi2XO4+q4uu6k4vBmCn6ZSF0z9aOHi+sOLOAPsNAuFMCeT0WMSTBT9fWNEVJAxceeJCA+4/W7Rwtv96s+tzC2fjpc/efNYdyc6umtd+y48F6sV1bq/qdKcD7/dbV+j+0IHlo4WD+88XPeiA0YAByj3fdU6e8vWHf/JV3L7/3pUOjt/8HScphxC9SXaLltmtx9rnb1dOxUgM4/m2VnS4M8Df4+p6tHCAqo6YoNHI+nOwUlbV6csCQ3MVeATiNx++ujGgls7bDmHSb+gkoqA3pWpEVxOxtb3LyVWeC4d+OWXr3pbnESVc2uEbJvy/aJ84NPk0MBQy4+YsrewIYINebLhj5P7Ptc31jW3vUCSubNCBVwaNRvN+6UeR4HLX6AMHdqvVaje3dtxZkK7ObHtHXYFcc6MBvKJ9FijziHIOUfKK2k/FtH79YUQT4XDIHq31oH3o3tkwaMJ0TKQ5RNlX1xWZIPJngWfjpdmNqsAoSXByx+LKPusEe8j08u0XYpLsGEWQWD7kEE8HfDDXZt78knDj8oBvPzdaOm77hMJGI7TNwcrKvLYLF9u//x+0W+d33iFGwLiiRW+dxD/eAhQd1Z0FWa3MWOGpUCggQnRj/i1ObjsLc08+noiWONMAQfddx64HuU0TJ6Il75d+bG7t3n3wPrlq2J+DcDMkundFfI5YhBdyWqfNAnWr6HAo68Hnb2vFgst5zRPvrDQWLYcnydHIVcv8v2Zg5W1QMSWQezAAoPuuo9JXbG3vKiYedYzcX3doTsXPX9dOx0p9OEhS5ci5hDYvNuLDBBsL2035w8/CylxuK53bo3uYsIq1VjV2PA6+/tgISpb5hgkDIkQMbo9VSyu3YZwdJ8QV8PjLYb4QGi+MKuyz2R/BKnrZ1lij1Q5OPvVkw4Gh0EkORIyEi7KkuKO+0dnNwsrMdAk7R/Gn4kA+/tCNAY7deDF07ZlvmHBk6pnltIsrGYhKFFkVK28eUfJL2v3DhA9f/A77bsvnotvy59pWet3YSQ400dwzJZDrWl8aBcE8opyFlelpkrA85e+Rljp4PVCrNXlNE75hwu2d3eUvayGpnXGlA7oUMV9mcOVJKWKjsa5M0WseUWJBskqhq+Y7/xe/ffhi6US0pDLPiug4s7AyNU0Snt/7R+JgY3MnuWqYmtGNEf1ixZAHC97Z2bWQB+cT2rnpEgs9nXFk3N0Lo+3BhL79tOWKpSugtHCcVjVTa1ADiONsfXEhPn6jBRQHqX8sDtY3ty9WDjOz5BilmmS3XOmg5a5FPhykMEuKK+CNEshoJSpiYoJl0FU936YDGfZsYaVQcHnw6tMHL5beLX7/8n19fWN7Z0etVqOxULZ3dtc2tj9/W3vz4du9Z4sPntuy9bx+/9U/TFiYZV1W8llYmZEuCc39M/eFre3d1OoRUmonxoDha89c6ODMY4uCfm1s7rjSgGrro4/OI+jFISJB6MNB5p9+OpD3ug0UE4+cqAIPFhQQKaakd8WWDHAbxosEV8rhyTJosoB/OaNuLKqoLzil04cjPBffZu1Ncn1zJ7Kw72yYEXGhUUDjlbOwMisDNcD5I8+JO7vqjLqxc/FtGK2nH35wpgFjlllSvP303Z0OtBRbFBYJpxdeGGnsdqUJkiqHrRK83H34wY0Bintnr828ae64nVozwsjqORffdiJaciJaQrgo4+QquA3j2TyVFxsuh6/pYsiSctvgvDMVBbflbs7YjGZhZUFWKzWj+4+UH/x6XbIaVccjxRiNXr3/6kwFpANGTEgMiTjz+IMXAxDpOPTgPLawUJ4r9WLDvZceG/q6Gz4Oq9nc2vEPF2XWj5uxf9/Y3CmHJ/3DRVaJeDUa7f1ni2fi0ASxuEuChRNB5cqwsjxXSkiSWQVrU9M8sN7B9wWtVlvIv+zBgjDf/28/N5yoghrJ9QPHodWigfb9rImla0jTO6AiLEF4Pr7tsTXhTkS9s78sTsdvvjBqYLi9sysbvh8YJbEQzfhMl76sxpYMnA6DVKbF5IZTwGvmEGVjYfvJP1e/UCO+7kwDMPGRWq3xYEEZdRa5III9dwNDwV/OGzgtbCgMNnRfCIcoaV0fly31UPj+czOhbPBsfJty4tHm1j9XG41G+/bT91Lwqn+4qJB/+bvpEEw47/HC1vZuZv34cQ7Uak1MJL35Css6vNjIyrc/Mx6KoOuOCw3AtaUhKZ0xxf2G3ok4yfBCbtOErvW+HlEs/DiHKDuqUfON0FwFPgb8EaYKH5Z/RBT0utDB84nttZLrXaMPxH1zFyuGvTmIExWoFk2Z2TUM+9ze2c1qHHenA5XWHwt0p9le1en2u6ytHL8vSAfnXeng279ziaRWj7CzFZaAmp2juBAO6wal1SWKVWWoTObPhtJrx5b2e0kb8gyvWV3fkg3fY2bJL1xsPx0nPRvfhiaAaFDdf26dsdOX7xtFgiueDDA3s9WGY4HuNDH7xNv7o/7gA3ZswfE4GLj6xI0J3fvbVqyh7SYptfPA4C47O+rjkWJG7D/W+7oUsaEMlcpOhcFJlcNWWS+ub24vfPz2+NXyszcrn7+uWZsh6ePyD279eAAHzQWlF9zEhin87c/0wLEsN9qb43EwNbuAOn1O/xW2Qj7x6Gx826ODDm6LK6tebDg9bZ8Hiw20w38yAytbKzsDQ6Gg5I7Zxx+NTt6xlTOPPgQndwSw0XAndq4E2CwuNfeERMFlBvF1HDtsrDfH42D+6ScvNoxnpr1z/93xSPGd+wcYXz94vuTBgqzNzoZz3VRhsAHN0HU8Ujx07ZlVmk+raP1zbUuonPEORfyZoKzKujjKpkY+jyhvAHJOvDD8twR8cTwOXr774h2KIIoZjJQfl394seEDg7uM33zhxgAtzLFthnaGX13l98RcFPlz4BLw6qt3Xy0XLVgChW8/N6/Nvoks7PNjQ/FJ4gMtaAyHZ6ZmFkZzUvuFCQ0dNywZm1VtHI+DpS+rvmHCSuQv0dvm1g4m2zE/LH7XHWcaYF4lb4Zk5r+6IZDXFbT5s0BSamfHyP1vjrD429jcUd16mVQ57B2KkKMQYXmHQ064ehOpym9zpQG4Xa55GtrzreNxsLax7RcuSvs7bNHOjvpMnFSonDFjL/QrtH167ag3A7BBw6RHOFMfZ2HlRHMPIwZxY6CGjaLeWctvlXr0Xf66JumfO5/Y7sGCT3GglmLZbVBxSCPvqO70pAODk0/1xuDwj47HgUajPRXTyslVYGPd2VUzs+RVwikz2/OX7+vh+b2suEPMm4Pho6Oq05UBnomT+keIfDhIRt3Y1OzCp88/f65tmdkv1GrNz7Wtj8s/L91+lVI14hcuCogQe7JhchTi2I3AEMRXWlDfzrzmSw5nvF6HjseBVqtlcHtCUjt/iVO0Wu2uWnOxcji9bsyMud/ztyvEJFlJ9j6vLkOi2F/TWd15Ak169P7W/Xd1rTc4uUpfjvBcQltazSiimJm49fLRy6UPSz++fF9f/rr29tP3By+WJm69RJQzabWjZ+KkvmHC8PzeJtnt6Ycf4ssGmbFCq0Lp2zD+OVhJjUaISbLD1joeCg6SKoeJewqS7Z3dBy8Wk6uGw/N7zcSPn5pd8OEgv4Km2kApq34irew8GS3BtA87u+qlL6uPXi5L+ufQg164yIcjPBMnDUnppGZ0U9K7gpI79ixLhT4cYVRRf9vgvSevPi9/XcNObanVo78BB/OIsiqvLSBSbK04S+91P/CjA3Cg0WjVas33nxtX7r7qHLn/5PVyIf/K+YT2F29XEiuGnKgCJ6ogOKXD1H6sVmvahu75MsHDOGfpoQQu6zgTJ332ZsWQLru76ocvltoG7xUJLidVDWfWj1eJprrHHz5+tWzUtiWtZpRx+OvBPKIc5fW4MyCZQUx5wynYU2M7DjQazdKX1dv33wHddzi5Si82HBglPh0n9Q8XsbLlZ+KksGLaN0zY3HG7HJ70Cxdl1I0ZFe1tbO2k140xYoX2C+D0uG74samonZjU8fr9Px6SNtMuvRYd82HvC3sKaDRRU27ThFU6DmvnZSMOdtWaW/feRRX1ebAg/3ARFiDozoP39559ii0ZcKICJ6IlObwJDxa0s6te39iWqx75R4hCcxV7aSr2BaT//nPzTJy0NEdqraWGIZsPrCnJkVIzuq31qjBK06wGFS0GmbTM1eLAgZlvkMttJaUdLJs3Ok4LK23BwdrGdl3rdYz9/VeevFv8Xsi/7MNBsIgND14seoUiARHitJpRdyaKA61Wu7OrRv2EosTnE9vv7g/sMPv4ozcTbK/6Jw6IeaLY821yqjgcDdHrgIwGxcAV9L7QIrdnPBb+tr++y5MJ3Zw/xIDb1uFgd1c99/gj4WK7dyjCzJKfimk9Hdv6c23r0+efpNTOM/FSzJmE33nbOxRJrBjy5iBzT/4xGHzz4Rs1o9s3THj17mvsNqHVaiuF1y5YnMLXQsKZasaIRVKq97kbW/i6GDara70RFAmbccU0NeRGh7UAACAASURBVAYb6q/x5UGRcAlwcARhw3FaWGMdDian35xLaGNlKy7feb25vXvp9isXOtg2iKbFmZx548GCmzpubW3vbmzuhOX3eocibgyoeH/84zcfviZXDrsx0HhHaxvbW9u7p+OkMRdF1vos2EDNOVgZwAbLoEmj5z4L6YU3ax2YOxsGGXXRt2Fs5n8yDSmyMlrPxbcZBlLBx2NnwQoc/Fjd/JU2KrZkYOFv24KNrZ2Q1E5mlvzrj42dXXUh//LZ+DbMr+jhCzStyjGKwIcjfKMTuUKr1S5/XStoueTLESomHt198N6VBtQXtpknhEO+vdTc484AWy0zljyQrKPXnweywb56u6ynLJ+XuKLDhwlevbsvx8uBg7S8gRU4ECpnTsW0zjzaZ4SuvPTYP1yEaZm//dg4HSstAa5u76D5T2sl152owDGKILVmVC8JISpcqhgKzVWgdsAM4Pe8VUAp6nXpqLQW958tejGA7prfcayZR5RXWuSECPjwkk1YgQNGVk9orkLPjHpraycwSlwlura1vbur1kgH5v3DRa/ef9FotULljF+4qHP0gX+4qK71hp5ErGv0/oXE9t6R+Yq8w70p3IVQn+jLLT0RCaLTsVLLLZTMv0yfv675cBCgRDYHKy1/rW1uOYeg7o7HKIIDLXrMD9vUt5biQK3WuDOh1OoRQ0eOUvAqNaMbo++bD19JqZ3FwBW1WiPounMypnV3Vw3JpwOjJJL+Od1BDE0+OxXbOn9pxmbSmP/hlRa5tLKjPFeakioJjRcGR8JuNCC1ZtRw/Lqjsrz8Y22LlS1HU+9mthZlS6vz2/glMllV50hj9yEJxOS1XccoAlHvrOWDtLylpTj4sbp5jCIoM+ZLevfhey82jGWZ2dreTasZJSTJdnbUDW03CRfbtVrtx+WfrGx5Qcs+Zcn4jRcnosRXoH7z7LT227uQQlbVGXNRdIoD+TABVxrgF4YQEqSBkaJjFMH1uQXLSWO+5fbObr30xl7AZtCVBrjSBB50wJcJBoaC58OhlFSJtKLDaIALa2eEt5+BFKc4UFie0irLafOzwL+1FAeLK6vHKIImGZoH4c7991fuvsJfrLefvhMutrfuve7ffm7EFPdHFfZvbO4UCa6E7mkdPy7/ZGTJa/d7MYzdeHE8FLrU7Jj79yysvAkomoraz4VBzlTAjQGej5eklClrwLEm8USlYPR0DOq2ho8Zn789hak5NCFMcqmySTxRB48XNQ2nVvSyuR2BEUI3BuhMAwLYYH4WmmJwxkF7R00+6mh19+G+I5o9U8B/aykO3i/+OEYRYFZGObyJwCg0vgvWy8q39eiifm49mlz30cvls/FtHSP3P33+ScvsrhSi1igfln7QMrv1cmkMX3t2nA3ab3gyAysGGrpLc6SnOJAHEzoXL4krlFfwRzDelPNHGkWqsOyugAjRgbZxOFEsLHz5vh5d3O/LgasxtAGjFYLRJvEETzRRzh9JKlUGXZR6h8K+TDCf2zrS2G2/wPQGIPdhgbB82iFXX91pWoyDJRQHQPddrVY7NbvgyYbxqIWr61vc+vGIgj61WtM+dC8gQjTz6GOh4PKJKAkmRHr0comYJMtrntB9sPLS4xOhduFgFlb21nUlpYhPcyAvFkRNk2XXDNRA6AKA/aWW956MFkXmdvtwkF++i2YMIHQHZnlZo9Veufv6l0M3i9vZKFSRUtqIiVL86RgQ8xsGWdxObzZ0PhxqLGy3f2GISBBGFPQ63NnNUhwsf107RhFg7/SX7+uudBCST2Mk+xWoIatRxclTrnxbOx0ndaYCPhw0NyW/887m1s7AlSeBUWIPFtw1us/+WjZ8D809opOfD98ILSlcbu5JTBZ7MQBnqoCWJittGWkQqnR50CSeiC2UO1EFzjQgq1Gld1uxnNnmW+7uqvNbLnkwodSK3oBw4ekYsd4YmsQTjUJVEW/odLTYjQaExQuv2CeKFpbLvOxITm1qOpbiYH1j24kiKORf1mq1Go02IEKU33IJ0x18+b4eVzpASu0MSenwDxf9cnr/lcD21v13iyuruU0TrgwwoqD3wfMlPe9BWDF9IRzSiyR7IALuQoqRxu70NIkbHfBiQ9TU9vK9LcCQ+igOCnqcqIJCweVD1dRtbu1Q0rt8OWhOVlJym9GRYGtDWHaXJws6w4GE5R23QMWBkzXa4Fem8NMcSNB9xxRHbau3FAcajdYvXBhbMoDtTFkN4+S0rrknH99++t4xcj8wSuwVikQU9E7NLmCKg/eLPxIrhk5GS2D5tFE34TrJ9ZAo2HK97TSk6KnpzEiXHGeDfhyEmdlR0DjUaLAG6LIhvkiOe1raRh0Lf/Xo5VJQcscxiiAsu0t3AIblnNqBCwmtXkwwPkmsrO2yYZu4BSiiL6Ivm957ZeFQTTWzFAdarTa6qJ+VrcBizzx/s3ImTnomXkpMQoV0FyuG5558Wv6yhh3IV9e2wvN6z8ZLJ6ffmDrR5DVfoscg1//OTWYU+1gldg6IShQGsEAvFhSW3VXSNGy4CxgSPalU6Ur/x9PSFAnsr9/dVfdfeYJmX9y7OxiORLemGhxLKFa4M8BANliYJb1hAQV0iTOHKGvy2zwY4NP9wbrtnIUVOBB03SEkyV68/YJuDVrty7dfaiXXq0VTdx681zXy/BVOJq1m1IcjHJl6bib0ECtbHp8kNi9ymYOVqqae6ESRM1XgQgOYGR3YPVCXrGbK6ZV97gzw98RRG7r2zCsUKeQNmRmP7le10BjxotSJKjjORnXuVl0l+uq7/Vhgc4cjo0pbgYMHz5d8w4SX77wyAz2NRjN87Zk7E2ruuG3G+wJ1bmFBtfltpoSy1wXyzurOuCSxOx3wD0OYGR1lLehV0Kq/vPpBLzbUe+nQ86FqNBqwZ9qNAVqySuFTaBCq0it6T0WL3ehAVKKou6bLQousOyDqEEz62xLYDDss/8oKHGCeCE2yW9s7qGmJ0X+fv61FFfYdGM2lHJ48EQoZVdZN8eUtxTJOvNCXBQZGimIKeoqbhhtF+ncBnJpmCmUtI35hSMXfHjVGB+yQyrWN7Wye6kSUyMxgTH1VBYzGF8mPRwgD2GBSiri3rsuStSGP2+oXLnrx1oihpW0zsgIHGq22gH+Zwe0xeu7DHn/z3lsfjvDybXNrxoelHx4sODxeaOgMendP0e5OB3w58MVSRTU4xhNZtwbokrsOHg+MFNEze2wjjeW/WlxZpXN7mBkduk+3vMwToRLPsOwuFzrgxwLT0yQHmrvJa7vcmZBywmFLnRU40Gq1t+6/82IjN00Etd5Va6Ce6XMJbWZCP6rVmuaO285UwDD5zjyivAsp8ritzlRBafOw5XQ005KU3OZKB/V0pJYz2MKWT19/9uEgWTX9ZkZiyVcVglFScps7A/RhAlV5bdf4clNrwwys8GQAhfzLpo7hFo4cb2YdDj5/XYsu6ufkKo3GN9ndVbcP3eN33TGzcbx69zUouSM0Xmg4Q1VTTwG39TgbdKIKCAmtVu21pqh8sUThQgPmnljn96577MUpZabQNfrAOxQ2I8kwNTzD+kahKqduIGQPDYQImFfUbupCEbYXVXrlmwNsLbVarXU4UGs0fZcfe4ciXWP7hIM4jdY3d/RMTvCvtFrt9o4a7Jn2ZUO/hCG6d6EZWCkq7yBGwh4MkM3tZGR0uNCAzGp7X68m8URx07ATFRCb0NXu7Kg/LP248+C9YuJRS+ftUvBqeu3YxYqhhLLBxIqhtNrRIsGVlo7byolHN+bfvnj7xZRLVmL50IWEVl2RtiGDraqpg8dxSUNCskiXVni5oaD9fGL78wXHHBGswwGWVCQ0R3E8UmzUG0SX64blxZXVU7GtaWliXa/QaUhRlC11pwPebDi/fpAnQnV37kzwTKzEqluiUULzRCp3JphYPrTz99l2fXN7/ulHSf9sUuXw8UixKx10oaG6QScq4EQVuNABDyboyYY8WZArHa1xogK/HLFdaIArHXRjQKTUzoKWS12j9+8/W/y5tqVBHffU3hwkLKfLnqOM0cFj952gSNjwIPWXfwsTclTiCatxoNVqX777cjKmNbZkwKpcu2q1phS8eiIUwtNwzSHKiaaeqESRGwMkp7TVQuM4OdIqet2ZYEKxwn7iUlPbz8a3NUhvptWMBid3eLAgdwboHQoHRAjPxkrY3M6U8t78hsFKwWg9on8raRCqKgWjBQ2D6ZV9UXndwUnSE1Ei/3DEmw27M0BXOugXJjobj+7o6ZV9+OAdUqhHxgmJrR5MdLRnOJCovEMvU8OvuO0nQtEIoA4RLNqCA61We/nO69Ox0vTaMcuzic0//eTNhnMzW7Fb8iys7KrpDI6EPZhQXJG8Fv4HBJhuJiSpzS8MsUFsoMcGbjWamN07FD4f38rIkMUU9KRX9hU2DlUBYzZcRxsQVYVgNB9FRm9CkTwyt9uLDflyHDBOvWFH5fV4sKCEYnlGZd/5eIkfC/ylW9cVt9wCFMxYYWbdmBk5jeGSbKrGRhzs7qqHJp8FRqEBgM1cI/GnopbsecpfZ0A8qGRHVefJUMg3FM6rHzSqJihsHPILQy4ktPJsEh7gZK1Hxj2Y6LGjGhxzyNkT7xnTHrkxwHNxEhsgpduPXplb3Y9prer2Xo9qYIyeJvNkALnc1jn4LwXVNKTgZrRS0rsdok+3EQeY1nFw8qk7E8puVB0Iybknn3zDhOU5qH36HKzsqu7ypAPHI4SlpqWEPNFEVF63Mw24WKrgWSlJ1CUrTzRBSGg9FyfBaKr7lf3l7NoBZyoQXyS3vyu8h5LmYV8OuvVUAf/YUtQj46SUtmMUQdXfMRnnEGVDYbsPB3GINtV2HGBQqBJNnY6VHhiQfuLWSy82IqvqnIEV4vIODzpwOkZc3HSAkKAGGj8TK/Zmw4WNlsrtcWrqFhKLFZ4syP4tRrdPzO6Ixe1wpgEO7LkKGL2Q0OoTamTKtRB6YvBngaLyDuzWjVHSIW67duFAq9U+2ROhHBhRfeL2Ky820l7V2V7VeSIUPBklslBSVNI07MWGgy5K7bk7FPKGvEPh6IIePUba+bEKGD0VLTodI7b/MIuNpAEZD0lq82bDpk6dNeDY2Vjx+XB4fC9mc08tmhBedfMlvv/aXLAXBw9fHqx80mq1t++/9+EIq/PazoVBAeGIVVft1PJeF5pda28tvPcmhSE8sf6NwB4oZNcOeLIgS3TNljylQagKTpK60cHYgh4zp41C3pAvB2bFCudg5Uhj99kwCOxBjQXt/GcvDm7MvQ2IFN+8d4Ar7oPni37hIg864B2KCgksoQveph4Zp6a2uzOhIou1uvhv8UJsQY8LDcipHcBr7Cw0ilQROV0eTMghx446eJyR0eFKB8Kyu4yemvHR8kQTcYVyFxpQnd92qbknOBLOd0T0JHtxMHzt+cno1nkdp2ajwHz57ksAKrQB4grlZsCOz1avUNI8HBgp9A9DzJwr9X6i97G0ZcSTBRETpXbePvBua6CxwEghJaXd/g7rEVVoVqcnC+Jkd1pyo0EPCgmtvmjMzk5aDBJd1G+U5lZV2ouDjuH7Z+KkT17vS2RvOIKPyz8DoySnokW2vT080URuPXoyPx/fihmJ4/ywsMATTZCS2zxZ0IGHUws7zK4dcGeAGVX2io8aRSpGRocHEwrL6TIUZJkaTGnLyK9U8JGJInIUEpTcYUhwa2vsxQHQfedCYvuBR9Yfq5unYlqJia2mJmZJfWp5rxMV4GR1WfLSGHZY2DjkTAMic7sNv7KhhpiAyhbL+ajDgs1/DUIVLa3dmQqwMjusnVRsQY8XA/BiAAERImu5btjeXhyUw5NByR0flv/yaTF8AFazu6tGkx7ZZKmhS+VT0ejmcrHEFokCTzRxNk5yOkZcCdjFvCbxRGnLiAsNYHM77dkUaqExZiaqUaOny+qRfeJU3SmbKu9tTKizngsN2BdoyBQPzNbbi4PM+jFSWqcl6RWYWXJfDmz+EGRqzng9LQ3NxO7OtFGen1XT7850wGLOyJC5M8CCBtulGg1CFSND5oqqtSA9mTo+WfMFnmgisVjhSkcjC+zu2osEe3EQVdhHy+w2Y3iCozClesQ7FLbqxmhICNTSl8L3JTd7saGcOqsP/zXQ2OkY8Z6s2vbFvJyPTuR8nMTmxaBBqApJbnOmoSwkp5p0eTCcvl5NBX8kMFJ4jCLY2NrB6WxbwV4ckNLQeCi4VtfMIMrhSS82VGHfhppbN+BKA5Cg4kBy0/EIobU3SfTSVSR3pQMltto78UQT0fk9rnTABhRiXKyFxiipbS4U/jkyz4UmyLPyFq0HhbDsLieqAHM2N0P8A7+yFweBUeLIwr4DH6PVamHF9N5x3fa1tEk8gcrew5Cq4LK+oPyzZN7JKJG1UChtHgkIRwi2qq+qgNEzsWKbZYjV4Bg1td2Hxs8LriCRGs7FSexcIIubhl1oQBk0aa0NlR7L7MLBzq7agwWn1YzqdWr0Y++lx+5M0E74V4Nj5+MloaS6OQK3K6jgNLnJLwyxSjrEE6nY3E5nKpDfYJ04C3sRM6v63Bgg1yZbqXL+yLk4iS+VXxtcigQVe2IHXjsMcfd0HKpz8ZKQlA6rbEEMGWQXDn6ubbozoWLL4rlNTr9xQy/cdlmb8fZu2+7kllkC9x6BO0DM8yY3e7Kg9Mpey4X85fwRNNTvRanlP8FX43N7Nw4bXuLcugFvNuRB4TcHldwiZPmTm09EiWzoBx8JXsio6vPhCFW37NIy2IWDxZWfbgxIL7CBIdawmocvllzpgP3S+JTyXlc6KA0qurcHhUvEXBKpwZuBKiAsv33R02XeoXCBlUtCfsOgKx1MKLLOSqoaHEPv+kzwHIknCyqcIWQVBFc4UwWmlEk4gy0sNIpU3myoUoiGqDJF/APr7cLBq/df3BggFgnlwCd9XP7pTANi7Fb6lfNHvNhQXEjN/B4O7hG4Vwg5SSHVnjQBLV1WuReJ4kAKVgpGLZfjYr01CFWnokXHI4SW2yXXI6rM6v7z8a1eVH5SSLWKmDtP4HYGFRwnN1NS2+28QuvOkZ4uo6R3La6sHsgFUw3swsHDF4uuDBBPyWXqGVj91vauM1XAOcgjWHd6Rss80QQxURpAbr5MzMGWhHsE7i1CdklwuTNVcDZWYqFGm54u8wtDLMRNk3gis7rfiSqIzOu2cDcpaxlBnRGYYAC5WRhUdJuQfY/AvU7IJpEaAiOEusaYRqdpVWVe/cCvlPV3Hhyg7TPDILtwcOfBe1c6aN7jUffZAREiWprMQjqaIURGVZ/b3kaL4wAriIKKvMktxyOElhiGFDYOeTCh2EKLTInqkfFzsago80AziEaRqgoYZXM7XWkCL3ILN7hqmpCFDW+GkBUbUuvBhKw62JqhA/5VpWD0ZJQot2lfxBldyh9YtgsHV+++dqGDliccpWZ0hyS1Wb6L4/PUKzQIVf5hSBip7sbeS4ajYZ7AlQUVnifzfEJhbnW/+YW3Dh4nJbf5cmBLVF/c6n4PFhSdb86SBYt7EpbT5R0KHSc3J4TU9BLz5/7evG4SsrNCKl3pQGyh3FpVgt70DT82CNFLkF+40OZ4OXbhYHDyqQsNsDxVSGL50Pl4x/h7JJYofCgtHcRCHARYYY7A7SPmB5EbvdhQYrHCPMXTKtBLYGKxwpCyujX1yDglpd0vDDGFGJ5IVdg4REuT+XEQP0pzZkiVgph/9+9l4B6Be5OQnR1c6Ubhh6NKRatVCbqDMVXm1vR7MCHZ8P0DX32jDezCQefIfWca8PIdGhHBkn8lwNVT0SLLt2RTc24ST9RAYyciReEhdbM65MYxcYuQxSLVu9CAiFxzAUrq4PGAcKEvBzHPm5ImNDB4bKHxxaAGGqOlydwYoAtFkBxSPUHI1RvSPIGbEVLlsgcCG2wvzBBB96s6ePx4hPB8QhseyN4SjuBt7MLBr9xWzlTg4/JPvDvzBVgxHRBu0eatO0OjZZ5oIqlU4UYD4KBi/OKA4wB7BVNCqtwp/OCktgr+qCldAOoASQfSKsyZEZBT2gyHzRNNVAhGw3O6XOmA/94uMErM1R3APQJ3nsC9QswJI9W5McDIvG7zi5PRaVpVGVPQ486ELN+mdZllFw4a2m46UQHL96ShyafeoXAR7wAzZQsnXwOOERNb/cnNA8Q8PQZgH28SsiuDy/zIzccjhCnlvUatPOrgce9QODhJamrNL+KhiwEnG42Mhw+sBhpLKJajJlKUluSQ6p6gghmDZWmGkNUaVBREavTcc0cxv+TgPdtTqBCMujHAEhCNc67LY0vKduGgBLzqRBVY/tTZxx/cGaBtAl2jBCptHvZgQSRSw4TBu4hBYZaQ1U/Mo5IafgUUCrooNXr1j8zt9mbDRpXI6B31otSLDZX8bWLPE03kNwyejkEDtbBI9fKgAt1zAA7Hm4TszJAqX3LzyShRYePg4W0HemQJSW4jpXbqJTo4dBxwG8bdmZAlj8HavFv87lhj0SbxREHDkCsdCCfVXt9/d8BZco/AvUPIKgyucKfwf8VCiC+WN+z3Y6wCRt0ZYFR+j+GFNr9h0I0BMtJlGLl5IlVsYY8bA/Qkt/CDS/C7gO6zZglcUVCRL7kZMzCxzbZAj7uWfyziDbnSwcGrT81EpjLKL9vXA41Gm1Q5fCJaYrRfo5WLK6sBEaLU8l7LJ2ZJy4yqPu9QmEmqHyLmGeUNtlXLg/LZpHpvKv9cnCS3bgBfqBuEKlJyW2CkEK/BHtogVFHT2t0ZIBact4iHOrd7kluiSbXjBCNHgSlitiyokE2q86IDp2JEmVV9v20ZwKnUIFSdiRXHlQ5a6+RkOw62d9TxZYNWGUmufFsPSu6IynOMhSA++UahilvdHxAuPEVuqg0u0xMq6L6stwjZ/KASAqnRgwkyMmS4uAlzr9YzKShsHPLhwIzMjnpElVis8AtDjpObWoJKbhosPLcIWS3BJWxSnSeFfypanFSqtM2YFp+RzQXUSKlE4cNBnlkZVc92HKxvbEcX9bNz/srjbHQB0Kv8/nOTk6ek/73M2jxbwx/yRBNVwBjqB0LhB5EaxUFFphaGOQJ3ipCdH1LhRuX7hf0VzKZ8z7AnOOkf0yCeaCI8Bw1/Wto8TElpd6UDbFL9ZWKOXrd7+oLCIHKjO4UfiJ5GlbXQuOH+Yjjgw6spaR4OCBda69RgOw5+rG6G5/fGlQ7oMdvMx7X17bQa1H/vkCjFE02kV/YFRghd6cAZMq8yuGycmHuDmD1NyDK8W3YHFRDIjS4UQURuVy08Rkltd6YBuCK4Fh734aCu8gHhiCelJTe4ElMQ4KvLDCFrhJgXG1LjQhX4hSFJpQfIrA6P8Xo9N4rQ7cyVDlqldrIdByvf1tk5isz6MTOM1/tqa3u3ArkWGCk8JBxgFKkBx5LL0Jj3qNcwlU8iNaSHVDUFl3YFFVwi7hPyTBBzk0Oq3akCcko7FoQ3uQxNptAknogp6DlGEThTgZN7ewGuI7hH4M4QsvqI+TnBlYGUZv9wJDy7Cwu3r8ePf/FjTt2AKx1sbLtpeb4J23GwuLLK4PZYlVRwV62BFTNeLOhQcYAxoA4eL24aTq/oo2fIAiOF7jSBP7mZQOZFhdQ2BZVgKuB7BO5tQnZdUJk3lX8mVuxMA7BwC3XwuBcLOkYRXCDzFMR83bVERcxND6k6SW7yQIUKaITf3zAXayG1d1qUEC7KDvQnwF9U23HwfvEHJb2rXnoD78uSgnLisQsN0JXJGJ0kdk3XO8AbbXlgJW8vMUYNNJZW0ReSJHVjgE4UgTNFEERq5AeV3CVkzRG4jUGl7hT+MYrAl4OU80culiiOUQSnyE19xHx8I7hJyM4NqXIntzhTBZTUthpwzJ6oDGaGXdYyYpvdm26f2aiFPtQ99tASplgdL02304WP30JSOwErA8Bfuv3KOxQpbT4gSG5x07AHE8qqsdoyXZcWRst18Hhu3QCL2xEYKfRgQv7klsyQqh5iQWpItTOF784Ek0qVJ6JEnpSW1j2TpxlC1igxryi4wn/PWD74orSgcehQ14DIvG53Bmh08JZX8kQTJyJFsSUDX76v63LNVNn29eDluy/EJJm1aTHvPvwQGCXJOCiqVE4taljhcD29Lh1roDFuTT+b2+kfhviTm8NIdV7kFieqIDASjdtVGFxxh5AlJxZkhlSdJjd5syF6uiy3buCwdQRN4onIvG5XOqA7VNvKKeVK3zChheoG23Hw7M3nC4ntPeOWrjwYEp+9WbmQ2H6gCCG9ss+LDdlp3GwJ+RoQVSFvCPVPogPOFMGxvT8/SrMoqIhDqvMjN6Py48yOkuZho+oJSx5hbZuo/G4XmgNwUAWMnogSJVcNm1oDdOttx8HDF0tn49uGrj3T7e7A8sfln5T0rgOdeJJKlT6oHaldzg6mGMATTdQj4/kNg7S0di825EwRuFD4OAgwKGCXBXJKe1nLSB0y3iBUHepeoDvU6PweZ6pAt8a28p7LTbcrHcTzMJvhju04uPf006nY1st3rMs4/Cs5PCdXefIgh9e4QrkvB7HWR8USelWDYyllyrOxEncq/zyZF0GqzQ6pLAsuLwyuiAupIZIbcRy4UfhuFL4HCzwRJcIuljl1A1XA6GEDImYvnZAlczmwTUnzsB8HSa4cPjCQme04mHn04US0xMLtB0eiWq1JKEOVN+bnEJnb7R+O2Ox9ZrRznmgiq6b/XJzEnQ7QSA1gUPEYMU9XWzhH4LYGFaJ+tBS+E4VPI9VDQcWNQaWZIVVUUoM3pcWDBZ2KFodmdRY3HcpChQ07tlDuTD34SmV0jnqVjSIVM7PDjQHOP/2Es8BowXYc3L7/LiBCbLlRGv74MuiqE0VQoxM9VW/0TeIJNrfTQnNTw98aramFx2lpMhcaEEhuAoOK7xqTMN7bM288RkHtS5NDqj0oLXXBpbOErFlC1l1C1g1CNhRUzCDVu1IErnQwcZlrzQAAFPpJREFUJMm4Ftvo062qjNtLK+WQO3OTGDWWcaIIMuvHzfug2o6D63MLfuGi59angpD0zTlRBebjktDSZCciRQ6R0zWKVHn1gyeiRN6UlsSQal1rd1w2gBegoGJsX+gl5seE1HqSW7ghVdeIObgoaZ7AHSLmXQypDiA3e7Og2IIeXBRtFbPNNI4vQsMfOVBhzcrsOB0nNb8k2I6Dyek3PhyhDenHJ269dKIC5rMVkJLbTkaLquwOWFEDjUXld/uwoSByIxxUjHnD4Vw3LFQEl2M4KA0unyJkFwRXeJFb6KT67qACXavDeQK3l5h/MaTGm9JyIaHVsRKFhGI0V4AD4VUFjvmEwlXCa5tbJu2UbMfBlbuvvUIRG9wr7z1bdKYC5q2ELyS0no4RH+gsYOatahJPlLWMnE9odaEBcSE1uCDZkPe6Nckh1U5U9PZIIDXOE7h3CVkyYuEpMg/bTXRbYjJpUVCxL7nZLwzhVvc76vyYuJczwoGaa54Y1Z0GRonfLn7Hd2e9gu04uHT7lScbtiQSit4jPyz9cKYB7KxOM1w8HSs+GyuxZ20s5A35hyGuFNS5GF/V9Rhp+JFKqvcPR9wYoBuFj9u6TRGyWaR6Zwq/IchIV5OEnDMknifLYdKOiyVolBOHWHXjFEYvDmFIIf+yqbgptuNAdfOlBwuyIeXN5taO2561ID5KwwJqgh0vsVl004CoPJjQGTKvK0jfwcGQ93jNPIHrT27ec25BXFB/qVL8q0liThSp1onMbzPWoYqYSyY1+DrIBBdLO2nUlNKQUBbWNApVodxOdwb0zETeDttxMHb9uRsTWt/c1nvdLfl4PqHtVLTYjIzWlwNfSGg9UB1ligo8kSogAokk1RraDuGsNSxcIua47nniYsFmokm1uurmq8ScU+SmOFKN4Q/nCdx+Yv5pMi8wUmj/2Ta5TOlKB22OFGmKJpgfXzk8aZRBtuNgeArN02jm6GH0eVhlYvnw8QihmS3w75iXtkcxiinoCSA3j5gwaTfk5T0CVxBU7MGCsmsHzsdLjlEE58i80f0/nyTmTBkYpWFdYS51TlQBI0NmM3wxFqaU9brRQcfKTprEE0kovAC56pFRvtiOg8HJp54s2Daf+zrJDT+zwVFdGWBwktQUtC2pL2sZ8WJB1cFlRllutDIxpMaXA5e1jDAy0GTNbhQ+ZMJJxujPZwhZdFL9iSh7r7up5b1uDLDIoaKq0ubhE5EiSnqXKScD23EwcPWpF9tGHHSNoQnOCkxH03eiAuSUf6wFLWG8Xps6eJyc0n6OzNNd243yD6u8S8g6vhdlp1Iwikp2KQIPcktcSI2uwNHMz28QUZ8ZV4rAhoiYeiNPq0BxYGeqAd0+9xx+pGfj28wI/ezCgaetOLg+t7BnXmA8Rk6jUHWMIqCltetOxoZyemWvBwNsDioxwz/8q35ivjsFtVytFIyiEd4p/PAQVN94RSfKAt5Yr3CDkI3at1H4tLR2M5udhVNIr+zdC85oS/gmw0dUAqPn4iXHI8XD156ZSfZoOw4Gr9q+L7z58NWVDppyZKhHxp0oApvTo+K0qIPHT0aLvMjNlpwWa4PLXPZwUAWM5tQNuFD4OSGVgeSmkuByPa4bfkwOqXahAvGFcodYKGXspSd3iM69tBk9hzlTAYXqkXlbRftwYOt6sLm960IHTaWzqYHGnKiCULMCBpzZ5gvcmn4XqiAvuNLQ/1CXndOErMiQ2mMUgX8YUg2OlTQPO1MEJcEVMSG1AeTmWybOhvf2BE2FwRWudCDKcW6smVV97kxQz5nC/DQNv62FxlLKe/3CkPOJ7ZYEKrEDB3acE7VabUCEKCLXeIyZKsGoE1UQnmPOZd1w5kZrGtFA1rIAcnN7UKEZadIYMfc8mXeMIggIRyPWoECkCHKDK4VBxe4Ufn3wP4IEXfTMErLqgktdyHxmRocpN1mjozJfmVmNRjLIrjW+aZr/bZN4ogFRZdX0ByVKPdlweu3YgaHwsevDv4YDUmqnqVgIFXtx7SId5PZUC42fjBKdI/PGTfjC3iNwxUFFHpQWj72YOvUI6ojiQgUSQ2ruELIukBvPknmG10XsohhAbj4fL3FssCM09goT4lqfLZonUuXWDRISWt2Z4MloyeDVpz9Wtyx0dLQdB0PXnnkwoU1bY7VFFPQdowgCI4WGyiQsvqGjcNAknsBSAPpRmmXEwjt7Bsq6r/UMISsjpOocmedLbjkRKcJeOO9QOJxUO0fgIkHFHhR+o4Fw+goxh0DmBYQLHbgSYI/OqhnwYEKZFmd2aBCqaqCx9MreU9FiFzoYGC1pbL+5trFlVE5gqtJ2HIxdf+HOhMxkczb1SKw+tXokMEocECE+HiFEUzjqJGn8az1wUKIELLFaXv3g2TiJO01AI9XXB5cN6MSt+eUPeYbM44ZUulNazsVJMGacjBIxSfW3UeMDbgipgUZqmNS5OEwQc1mkel8OmnzywIXa2gZY2ifz0RV5IjQiTBFvKLWiFwv85hcuDMtTQvLphY/fzR8JjfLFdhxM2KpnwsZRDFwJz++9dPsVMQmNX5dW2Yfr6yr46PkgwnE4wDhRBYyllveeiRW7UlHfhGhSTWtQ0TQhC9nTGULoe99CSfnrskpMbKWQGqaIaLC7tqBCH3JLw94pYY7A7SEWkEkNbgwwraLXTtGhUYjk7KX/MnqZahCq8hsG4wrl5JT2s7ESXw7izoRIqV0N0hs3771d/mJ77nfbcXB1+rU3B3lnWpVpFHd4ZWPbTXaOYuXb+uLnVU6u0oUG7KXKRmOOVAjQuLfmQxsZpeCBlY0iVXhOlzulJSu4ypvc7EZBTRTPkJtopIYeYoEHhY+Hd2Sky4LIjZjRym1CVnxIjdte6JOoPeMUdwaYU4emJD/wiTY0yK0b9GRByTrRARqEquzaflqazIMJutABZyqAhmOigZEFfWgW+s0dM4IBnODmC7bjALNHMqW/Mv9UrVYr7J2hpHd//opC+PPXtdymCU82fDZWXNg4VNYyjOLAEfcFPTZUg2hyrfi9WKw3CNk1wWUEMu8kuakpqFROLHCj8BOK/wqnGJHbpatfuEzMiQ2pOUlu8iG3eIfCDhf+644TS/MekduVXKZkczvOxIrdmaAPR3g2vi0sTykdvPf41fLW9m5wckd2o8qUnPhA+us1sB0Hdx68Px4pnn38Ua9HCz92jz0kJslwn9y19W3lxCNyWpdPKExPkznq3qhL3yYx6g3tTeXLdHTH1wnZw8S8aUKWMKjIlcLHraQSSxQnyU0DOn5tswTuBDG3KbjUiybIsfVSpzceox8xHPwyLj0dK2VwezLqxpo7bo/ffPnmwzfd4Pq0zO7MujH7M3Bg/LIdB/efLZ6OlY7ffGEh4/WaDVx9ciZOqmvOpNFoFj5+q0CueYUih4EDnlh1KlpMJ9Vf0znx4ReHmj15Ih6TN6OyL4DcLCcW4A2wwhViDonUcD7+r+OkUUbaWYnhAFZMv/nwbXFl9efali77cTKG5SlTa0ZsPqfj/WAF23Hw4i3q1ybpn9Pr0cKP4zdenIptNRpzb/bxRyeqIMzuSMx6/MirG3Cl8CtNaCAzQqqcKAI8dFJBw5APuUV35cBwME/glgWXu1D4uYdwU8AGnFuHpokdvvbcPCVji/uTKoZ/rll3PzTVp+04WFpZZWT12BzT98rd1yeiJUYds1e+rTtKroxDoVGoupDQGkhuUhmTJs0QssJJdd5sCG9fIRjxoLSI/47ur7sqXCLmniY3nY4WO1xygD09Zw8H4zcOWGiTq4bjSwe//dwwxVqr6m3HwcbWTmzJADFJZtXz8MZXp98ERok/LBlJ+Pftx4YTVcDmmjNgxBlmYSG/YdCdCWaFVBqVLk8Rs6noav9Pesk6eNyVKoCCinURgC8JqDiZDlwstSV94IEDxuQHl26/wmlltMCtH48u7rfQndloD7qVtuNAq9WWw5MuNMA2SF6bWQiIFL83hoMfq1tOVFSRfyDJLGyA5Ux1pQiuEP4J1a/LYEy/oKvZqkdU7gyQZyBGxH41Q8gKIjeeihHbb4VmOAVMnnh1+gCHwYKWyxEFvct7Fy5djtpWtgsHw9eeudCAWwcl+TY6sk+ff3aPPVhdN2Le+GN10yF6Z5zEpWjoKCQppFqX97plBbEggNyctv/K7hMKVwaX6wXGwn+l2JM3xDlI14wPtUk8gUXMnppbMEo3vLIcngzNUSyuWBrUGP+h0YJdOFj4+M2NAdVKrhvt2ubKyenXThSBA8OqxRfLfagtQ/uNDXGOYnomdwpf1zS0QahCBd7BlbruK7o/uUvIuhhS7ceBHWtgjuJgT890695b8wSsl95gZMmNHrDM/9Dot3bhYHdXTU7rYnB7bLBeNzoarVb7fXUzLE95jCKgpv0VxVT3XbGh3ChSBUYKo0Nq7xiEQMb4Ok/g1geXejBB3XNfo1B1OkacGlJtxqxNSSw4QW4i/y2KtmFsRn+SWdXnwQTvPnxvikRYvaDrLjWj22Z5rl7nduFAq9W29s+diJbMPLJRmqQ3Gq1WOzT5zCsUOUYRkBxE36yafg8KHzZ24sNwMEPI4oZU7cVT/SeSNnq/iG+NCak1Y584T+Bm7t02c63PLGsUAVhlxp4dyuyTA0gq7pvbC6X8zZCGNtTYi4Mv39d9OEKw+679Im6tVrvybT2qsI/BRWMYhyTbZaeK0bRRhL7WQaS/NAW6CztevkvI4pDqiIlSXX+KRpGKnNLGItWbWkWwn18i5vqRm8/EOvIOmb5nl3b/2aJ5dnaO3A9K7nhlcfIL873ZiwOtVptaM8rOVnz+ZruyCx9iz/jDwCjJ9bkFHw4SdNEuu3UMB4WNQ04U1C7N1HEPy/F1gczjZO1L3s4TqViZHWRSgxmjNAwKVcFl7gwb844bXRUwe+VHL5dxshgtKC89IlyUvbDe39xobw7Awe3777w5yORB9xyjj9et/Ppj/VfU7qyG8dX1reORYmKiLXk29SjLyuxwogjqg0vN2CfeIGR7kVv0EkvyRBORud3nyDwz0ZoxHOwZvDcHJ7XpHi/0hmHVR8x/4bkJBzScYgNXn55PbLdZz4f3gxUcgAN0MS/qD81R7KrVer1b/nFnV51SPXIypnX+CRq540yc1OYUzLpEz64Z8AmFXakCFql+YE+fhG8HeGGcmOtKBwztwBJLFP7k5ut7Jgh4Y93CNCFrcC+5gzMNoKbKHIUDzK/twBwKI1PPziW0PX392XIim2npAByoNRqF6pEXGx69foBI3NQ4dnfV/VeeuDLAls47u2rUJffCxXZ7/Bt1oVALj0fn95yIEnlQ+fEhNb+MSvRecXFQkRcbMswOgu7TFL6uGRIGgnkCd5KYIw0qSgyp9qG2BEYIYwp6HGiiiPm5GpW06hJQdfPlmXjpk1cHbB+6PzFTdgAOtFrtl+/rdG7PhcR228Qaj14uE5NkkYV931c3sbGSUjvPx7fqHtx0WWttmSdSlfNHEksUgZFCH0oLi1TfElyCm55WBZf5hyF4xhW886yaflc6oJt1aY7AVRLz84MrKKQGH0pLQDgSU9BT1jLiWIMULGXU0pcDkrNeufv6dGzrgccIM7zX/coxONBqtdfnFpxpQK3kBvZC6z7DfHl1fTuysO9MnFR35vTM7nP/v70rf2paC6N/musUEAEto6M+X1GEttKW0tGOzxVsrYgLqCxtVWjShBZKLYgdQB+06CAKvvKwLMooyiYowthhKbLlvlfiYKaJSQdvIHb47ebu+c6Zm+Tmu+cLnXuHGeLOiHkLkSbt1do4ObI15W68xKw7nO89qLtwuCBJidHPmeuLQn5BZETmmoOGi3/kJ0hM/+sibEm5J1bjZ64/LFzxbF7lDazEyRU9FM7d+tbOoT1qW2//OLt5IyyFxgMAgN7cLM6yveweidBXGgAwE5w33GlOUOItHYPUVnLdg32aclhP3DCEilEP6agoklq2Hr23Q3I3WY0XlDaGVcs1PoqTo2KJSZRyZ1tqWYwMSVJalXpXnplfbW1S+X2WacedCmpb10hSZnnPO47PS2oTljRMHkwGgseyq+X6WtLbjGVUsmhq5ttNrHVnuqWi3h92fl6V6/5FPZQwUOmXxWiToaRBc7km7VyVNo8hesLNssbUs45DWrss23nqWu0VUwOs5xR9MtQczYpuHudB8o7e0QQl3sW1zcCJAlkBJg8IgmjrGhFn2bU3GjjPNczOLRTZXuxIs5RW++jBhE5cq0/OwiFqRVENHZYuCWml/thJXC014t7bSNNtpImxdLUa9ITaENJTpa6OjFj6+8Z2K3B2FTTGhoyZMHkAACAIoqLOvz3NojN5v80vMg4JAFhcWjY62rcdKzNWtjHW+avgsViN//rZYeggrUOHmZdCYriMZqFm9vR/js/AXnFtP1ObsKQh8wAAsLC4ZK5q35WB5ZU+HZ8Mf+klCGLk85TO5I2Vo+aq9uAcw39nAMD5osa9MHTz1gE26EOo9K6d6dzREPsGJuKOW/9dq59wGCfg84CkQkV9194sW2auu80/vPrrYWFx+alvID3ngUiKOB93zwR/6lt3ydy8RwUnEjR0nPjuUKFzxcrRMJzol/3Dk7FytOP1KL1oDTm88IBc+Vs7h5I19hgZqrzsxh522uv8CoNbJEP/PO18836cXfn5qqUlEZKeKt+wwe2fjBMXn4FxYvnh49cYGerrFTYPyNuYDAQLy5/vO1GRqCpPVOEHtJWlLl8k8aBv4a0JCiv9mx6u0QXYmxHzynPuJ6m4o6MOfOcBh5sCJ5/ICnytB9ThA9Nzbwcn+gYmvk5F6lxrcrTvVsCJDC9AsFmmZMQ8smynWGOnGpAxPThKrge/Dw8Yb4M901LTAV13n8X6wikqwTzpF5z7T1ay2wcAMDgaWHkuRDUPbHWvdh1H2TXZhQMexJmUWD1p56oiiZY8NBYQhd4PopoHrsZenuKxQMSMj66KrZ7Usw7Jmfuc60GIB1LU1xPVPHA/6YuVIRA1BPnAjI8+i9GQoNPR89WR8QD5J7p58PeLdzEyhO4TwIfpBdVnEeo5crpSmlPDyYPhTwGRNNp5MPZl+gb6jL4dyWmd373C0jLR0PLW8aib80amZ+fzrc/WEAeFsef1+G5kHHgzU1AW2OSBoODYsMls8mDDTC+ogTd5ICg4Nmwy/wEPd2M1/pJdRwAAAABJRU5ErkJggg==;" vertex="1" parent="1">
          <mxGeometry x="156.77" y="603.7" width="54.58" height="71.3" as="geometry" />
        </mxCell>
        <mxCell id="_nvLQFHXTz9P7ObtZMR7-10" value="" style="endArrow=classic;html=1;rounded=0;dashed=1;strokeWidth=2;fillColor=#d5e8d4;strokeColor=#82b366;" edge="1" parent="1">
          <mxGeometry relative="1" as="geometry">
            <mxPoint x="158" y="600" as="sourcePoint" />
            <mxPoint x="157.74" y="481" as="targetPoint" />
            <Array as="points" />
          </mxGeometry>
        </mxCell>
        <mxCell id="_nvLQFHXTz9P7ObtZMR7-15" value="&lt;b style=&quot;color: rgb(255, 255, 255); text-align: left;&quot;&gt;&lt;font style=&quot;font-size: 14px;&quot;&gt;Trigger: Approval by Counsellor&lt;/font&gt;&lt;/b&gt;&lt;div style=&quot;color: rgb(255, 255, 255); text-align: left;&quot;&gt;&lt;b&gt;&lt;font style=&quot;font-size: 14px;&quot;&gt;Instant Cloud Flow&lt;/font&gt;&lt;/b&gt;&lt;/div&gt;" style="rounded=0;whiteSpace=wrap;html=1;fillColor=#6778C6;" vertex="1" parent="1">
          <mxGeometry x="220" y="352.15" width="230" height="50" as="geometry" />
        </mxCell>
        <mxCell id="_nvLQFHXTz9P7ObtZMR7-16" value="&lt;b style=&quot;color: rgb(255, 255, 255); text-align: left;&quot;&gt;&lt;font style=&quot;font-size: 14px;&quot;&gt;Trigger: Submission of A new Inquiry Form&lt;/font&gt;&lt;/b&gt;&lt;div style=&quot;color: rgb(255, 255, 255); text-align: left;&quot;&gt;&lt;b&gt;&lt;font style=&quot;font-size: 14px;&quot;&gt;Automated Cloud Flow&lt;/font&gt;&lt;/b&gt;&lt;/div&gt;" style="rounded=0;whiteSpace=wrap;html=1;fillColor=#6778C6;" vertex="1" parent="1">
          <mxGeometry x="120" y="110" width="340" height="33.25" as="geometry" />
        </mxCell>
        <mxCell id="_nvLQFHXTz9P7ObtZMR7-17" value="&lt;b style=&quot;color: rgb(255, 255, 255);&quot;&gt;&lt;font style=&quot;font-size: 14px;&quot;&gt;Trigger: Manually Triggering Automation Flow&lt;/font&gt;&lt;/b&gt;&lt;div style=&quot;color: rgb(255, 255, 255);&quot;&gt;&lt;b&gt;&lt;font style=&quot;font-size: 14px;&quot;&gt;Instant Cloud Flow&lt;/font&gt;&lt;/b&gt;&lt;/div&gt;" style="rounded=0;whiteSpace=wrap;html=1;fillColor=#6778C6;align=left;" vertex="1" parent="1">
          <mxGeometry x="684" y="352.15" width="200" height="50" as="geometry" />
        </mxCell>
        <mxCell id="_nvLQFHXTz9P7ObtZMR7-23" value="&lt;font face=&quot;Georgia&quot; style=&quot;color: rgb(0, 0, 0);&quot;&gt;ADMISSION COUNSELLOR&lt;/font&gt;" style="rounded=1;whiteSpace=wrap;html=1;align=left;verticalAlign=top;fontFamily=Helvetica;fontSize=11;strokeWidth=0;strokeColor=none;fontStyle=1;fontColor=#6170B9;fillColor=none;" vertex="1" parent="1">
          <mxGeometry x="290" y="239" width="190" height="21" as="geometry" />
        </mxCell>
        <mxCell id="_nvLQFHXTz9P7ObtZMR7-24" value="&lt;font face=&quot;Georgia&quot; color=&quot;#000000&quot;&gt;CAMPUS ADMINISTRATOR&lt;/font&gt;" style="rounded=1;whiteSpace=wrap;html=1;align=left;verticalAlign=top;fontFamily=Helvetica;fontSize=11;strokeWidth=0;strokeColor=none;fontStyle=1;fontColor=#6170B9;fillColor=none;" vertex="1" parent="1">
          <mxGeometry x="705" y="666.3" width="170" height="21" as="geometry" />
        </mxCell>
        <mxCell id="_nvLQFHXTz9P7ObtZMR7-25" value="&lt;font face=&quot;Georgia&quot; color=&quot;#000000&quot;&gt;ADMISSION OFFICER&lt;/font&gt;" style="rounded=1;whiteSpace=wrap;html=1;align=left;verticalAlign=top;fontFamily=Helvetica;fontSize=11;strokeWidth=0;strokeColor=none;fontStyle=1;fontColor=#6170B9;fillColor=none;" vertex="1" parent="1">
          <mxGeometry x="472" y="671" width="135" height="21" as="geometry" />
        </mxCell>
        <mxCell id="_nvLQFHXTz9P7ObtZMR7-27" value="&lt;font face=&quot;Georgia&quot; color=&quot;#000000&quot;&gt;STUDENT&amp;nbsp;&lt;/font&gt;&lt;div&gt;&lt;font face=&quot;Georgia&quot; color=&quot;#000000&quot;&gt;FILLING INQUIRY FORMS&lt;/font&gt;&lt;/div&gt;" style="rounded=1;whiteSpace=wrap;html=1;align=left;verticalAlign=top;fontFamily=Helvetica;fontSize=11;strokeWidth=0;strokeColor=none;fontStyle=1;fontColor=#6170B9;fillColor=none;" vertex="1" parent="1">
          <mxGeometry x="89.47" y="657" width="160" height="21" as="geometry" />
        </mxCell>
        <mxCell id="_nvLQFHXTz9P7ObtZMR7-29" value="&lt;font style=&quot;font-size: 20px;&quot;&gt;1&lt;/font&gt;" style="ellipse;whiteSpace=wrap;html=1;aspect=fixed;align=center;verticalAlign=top;fontFamily=Lucida Console;fontSize=12;fillColor=#cdeb8b;strokeColor=#36393d;dashed=1;" vertex="1" parent="1">
          <mxGeometry x="120" y="544.5" width="32.5" height="32.5" as="geometry" />
        </mxCell>
        <mxCell id="_nvLQFHXTz9P7ObtZMR7-31" value="&lt;font style=&quot;font-size: 20px;&quot;&gt;2&lt;/font&gt;" style="ellipse;whiteSpace=wrap;html=1;aspect=fixed;align=center;verticalAlign=top;fontFamily=Lucida Console;fontSize=12;fillColor=#cdeb8b;strokeColor=#36393d;dashed=1;" vertex="1" parent="1">
          <mxGeometry x="124.27" y="352.15" width="32.5" height="32.5" as="geometry" />
        </mxCell>
        <mxCell id="_nvLQFHXTz9P7ObtZMR7-32" value="&lt;font style=&quot;font-size: 20px;&quot;&gt;3&lt;/font&gt;" style="ellipse;whiteSpace=wrap;html=1;aspect=fixed;align=center;verticalAlign=top;fontFamily=Lucida Console;fontSize=12;fillColor=#cdeb8b;strokeColor=#36393d;dashed=1;" vertex="1" parent="1">
          <mxGeometry x="178.85" y="300" width="32.5" height="32.5" as="geometry" />
        </mxCell>
        <mxCell id="_nvLQFHXTz9P7ObtZMR7-33" value="&lt;font style=&quot;font-size: 20px;&quot;&gt;4&lt;/font&gt;" style="ellipse;whiteSpace=wrap;html=1;aspect=fixed;align=center;verticalAlign=top;fontFamily=Lucida Console;fontSize=12;fillColor=#cdeb8b;strokeColor=#36393d;dashed=1;" vertex="1" parent="1">
          <mxGeometry x="318.75" y="430" width="32.5" height="32.5" as="geometry" />
        </mxCell>
        <mxCell id="_nvLQFHXTz9P7ObtZMR7-34" value="&lt;font style=&quot;font-size: 20px;&quot;&gt;5&lt;/font&gt;" style="ellipse;whiteSpace=wrap;html=1;aspect=fixed;align=center;verticalAlign=top;fontFamily=Lucida Console;fontSize=12;fillColor=#cdeb8b;strokeColor=#36393d;dashed=1;" vertex="1" parent="1">
          <mxGeometry x="445.5" y="515.75" width="32.5" height="32.5" as="geometry" />
        </mxCell>
        <mxCell id="_nvLQFHXTz9P7ObtZMR7-35" value="&lt;font style=&quot;font-size: 20px;&quot;&gt;6&lt;/font&gt;" style="ellipse;whiteSpace=wrap;html=1;aspect=fixed;align=center;verticalAlign=top;fontFamily=Lucida Console;fontSize=12;fillColor=#cdeb8b;strokeColor=#36393d;dashed=1;" vertex="1" parent="1">
          <mxGeometry x="870" y="369.65" width="32.5" height="32.5" as="geometry" />
        </mxCell>
        <mxCell id="_nvLQFHXTz9P7ObtZMR7-37" value="&lt;font style=&quot;font-size: 20px;&quot;&gt;7&lt;/font&gt;" style="ellipse;whiteSpace=wrap;html=1;aspect=fixed;align=center;verticalAlign=top;fontFamily=Lucida Console;fontSize=12;fillColor=#cdeb8b;strokeColor=#36393d;dashed=1;" vertex="1" parent="1">
          <mxGeometry x="902.5" y="639.5" width="32.5" height="32.5" as="geometry" />
        </mxCell>
        <mxCell id="_nvLQFHXTz9P7ObtZMR7-43" value="&lt;h1 style=&quot;margin-top: 0px;&quot;&gt;&lt;b style=&quot;background-color: transparent; color: light-dark(rgb(0, 0, 0), rgb(255, 255, 255)); font-size: 12px;&quot;&gt;&lt;font style=&quot;font-size: 13px;&quot;&gt;&lt;u&gt;TIME REQUIREMENT&lt;/u&gt;&lt;/font&gt;&lt;/b&gt;&lt;/h1&gt;&lt;p&gt;&lt;/p&gt;&lt;ul&gt;&lt;li data-end=&quot;160&quot; data-start=&quot;72&quot;&gt;&lt;p data-end=&quot;160&quot; data-start=&quot;74&quot;&gt;&lt;strong data-end=&quot;114&quot; data-start=&quot;74&quot;&gt;Manual Process (Without Automation):&lt;/strong&gt; Approximately &lt;strong data-end=&quot;158&quot; data-start=&quot;129&quot;&gt;50 minutes per enrollment&lt;/strong&gt;&lt;/p&gt;&lt;/li&gt;&lt;li data-end=&quot;253&quot; data-start=&quot;161&quot;&gt;&lt;p data-end=&quot;253&quot; data-start=&quot;163&quot;&gt;&lt;strong data-end=&quot;208&quot; data-start=&quot;163&quot;&gt;Automated Process (Using Power Automate):&lt;/strong&gt; Approximately &lt;strong data-end=&quot;251&quot; data-start=&quot;223&quot;&gt;5 minutes per enrollment&lt;/strong&gt;&lt;/p&gt;&lt;/li&gt;&lt;/ul&gt;&lt;p&gt;&lt;/p&gt;" style="text;html=1;whiteSpace=wrap;overflow=hidden;rounded=0;fontFamily=Helvetica;fontSize=12;fillColor=#fff2cc;strokeColor=#d6b656;strokeWidth=0.5;" vertex="1" parent="1">
          <mxGeometry x="730" y="110" width="280.01" height="140" as="geometry" />
        </mxCell>
        <mxCell id="_nvLQFHXTz9P7ObtZMR7-44" value="&lt;h1 style=&quot;margin-top: 0px;&quot;&gt;Power Automation for Process Improvement&lt;/h1&gt;&lt;p&gt;&lt;br&gt;&lt;/p&gt;&lt;p&gt;&lt;/p&gt;" style="text;html=1;whiteSpace=wrap;overflow=hidden;rounded=0;fontFamily=Helvetica;fontSize=12;fillColor=#ffcccc;strokeColor=#36393d;dashed=1;dashPattern=8 8;" vertex="1" parent="1">
          <mxGeometry x="330" y="20" width="526.01" height="41" as="geometry" />
        </mxCell>
      </root>
    </mxGraphModel>
  </diagram>
</mxfile>
